<svg width="22" height="22" viewBox="0 0 22 22" fill="none" xmlns="http://www.w3.org/2000/svg">
<path d="M17.4699 0H4.53013C2.02821 0 0 2.02821 0 4.53013V17.4699C0 19.9718 2.02821 22 4.53013 22H17.4699C19.9718 22 22 19.9718 22 17.4699V4.53013C22 2.02821 19.9718 0 17.4699 0Z" fill="#00B140"/>
<path d="M7.62301 8.89062H5.04834V17.0998H7.62301V8.89062Z" fill="white"/>
<path d="M14.5827 8.70901C14.4854 8.69833 14.3857 8.69062 14.2843 8.68647C12.8431 8.62775 12.0282 9.48301 11.747 9.84777C11.6723 9.94563 11.6349 10.0085 11.6349 10.0085V8.91007H9.17236V17.1192H11.747V13.2623C11.747 12.7053 11.7037 12.1099 11.9825 11.6039C12.2185 11.1763 12.645 10.9622 13.1278 10.9622C14.5494 10.9622 14.5832 12.2487 14.5832 12.3708V17.1566H17.1579V11.802C17.1579 9.96995 16.2267 8.88635 14.5832 8.70901H14.5827Z" fill="white"/>
<path d="M7.78588 6.67823C7.97526 5.8758 7.4783 5.07177 6.67587 4.88238C5.87345 4.69299 5.06942 5.18996 4.88003 5.99239C4.69064 6.79481 5.1876 7.59884 5.99003 7.78823C6.79246 7.97762 7.59649 7.48066 7.78588 6.67823Z" fill="white"/>
</svg>
