<svg width="22" height="22" viewBox="0 0 22 22" fill="none" xmlns="http://www.w3.org/2000/svg">
<path d="M17.4699 0H4.53013C2.02821 0 0 2.02821 0 4.53013V17.4699C0 19.9718 2.02821 22 4.53013 22H17.4699C19.9718 22 22 19.9718 22 17.4699V4.53013C22 2.02821 19.9718 0 17.4699 0Z" fill="#00B140"/>
<path d="M16.4733 5.98438H5.52701C4.06477 5.98438 2.87939 7.16975 2.87939 8.63199V13.3673C2.87939 14.8296 4.06477 16.0149 5.52701 16.0149H16.4733C17.9356 16.0149 19.121 14.8296 19.121 13.3673V8.63199C19.121 7.16975 17.9356 5.98438 16.4733 5.98438Z" fill="white"/>
<path d="M13.1084 11.0005L8.89258 8.56641V13.434L13.1084 11.0005Z" fill="#00B140"/>
</svg>
