<svg width="83" height="79" viewBox="0 0 83 79" fill="none" xmlns="http://www.w3.org/2000/svg">
<g clip-path="url(#clip0_3979_113218)">
<g style="mix-blend-mode:overlay" opacity="0.17">
<path d="M0.991737 3.84375C0.743804 3.84375 0.247933 3.84375 0 3.84375C2.9752 9.9384 4.46279 16.7644 4.46279 23.8342C4.46279 30.904 2.72727 37.73 0 43.8247C0.247933 43.8247 0.743804 43.8247 0.991737 43.8247C12.1487 43.8247 21.3223 34.8046 21.3223 23.8342C21.3223 12.8638 12.1487 3.84375 0.991737 3.84375Z" fill="white"/>
<path d="M9.42408 57.9839C9.17615 58.2276 9.17616 58.4714 8.92822 58.7152C15.6224 59.2028 22.5646 61.1531 28.7629 64.8099C34.9612 68.4667 40.1678 73.0986 44.1348 78.7057C44.3827 78.4619 44.3827 78.2181 44.6306 77.9743C50.3331 68.4667 46.862 56.2774 37.1926 50.6703C27.5232 45.0632 14.8786 48.4762 9.42408 57.9839Z" fill="white"/>
<path d="M60.9963 -30.2686C61.2443 -30.5124 61.2443 -30.7562 61.4922 -31C65.4591 -25.3929 70.4178 -20.761 76.8641 -17.1042C83.3103 -13.4474 90.0045 -11.4971 96.6987 -11.0096C96.4508 -10.7658 96.4508 -10.522 96.2029 -10.2782C90.5004 -0.770542 78.1038 2.64246 68.4343 -2.96462C58.7649 -8.57169 55.5418 -20.5172 60.9963 -30.2686Z" fill="white"/>
<path d="M60.9963 77.9743C61.2443 78.2181 61.2443 78.4619 61.4922 78.7057C65.4591 73.0986 70.4178 68.4667 76.8641 64.8099C83.3103 61.1531 90.0045 59.2028 96.6987 58.7152C96.4508 58.4714 96.4508 58.2276 96.2029 57.9839C90.5004 48.4762 78.1038 45.0632 68.4343 50.6703C58.7649 56.0336 55.5418 68.4667 60.9963 77.9743Z" fill="white"/>
<path d="M9.42408 -10.2782C9.17615 -10.522 9.17616 -10.7658 8.92822 -11.0096C15.6224 -11.4971 22.5646 -13.4474 28.7629 -17.1042C34.9612 -20.761 40.1678 -25.3929 44.1348 -31C44.3827 -30.7562 44.3827 -30.5124 44.6306 -30.2686C50.3331 -20.761 46.862 -8.57169 37.1926 -2.96462C27.5232 2.64246 14.8786 -0.770542 9.42408 -10.2782Z" fill="white"/>
</g>
</g>
<defs>
<clipPath id="clip0_3979_113218">
<rect width="83" height="79" fill="white"/>
</clipPath>
</defs>
</svg>
