<svg width="176" height="176" viewBox="0 0 176 176" fill="none" xmlns="http://www.w3.org/2000/svg">
<g opacity="0.2" clip-path="url(#clip0_3400_139679)">
<path d="M1.89535 29.7432C1.42152 29.7432 0.473837 29.7432 0 29.7432C5.68604 41.6711 8.52904 55.0304 8.52904 68.8669C8.52904 82.7033 5.2122 96.0627 0 107.991C0.473837 107.991 1.42152 107.991 1.89535 107.991C23.218 107.991 40.75 90.3372 40.75 68.8669C40.75 47.3966 23.218 29.7432 1.89535 29.7432Z" fill="#00902C"/>
<path d="M199.96 29.7432C200.434 29.7432 201.381 29.7432 201.855 29.7432C196.169 41.6712 193.326 55.0305 193.326 68.8669C193.326 82.7034 196.643 96.0627 201.855 107.991C201.381 107.991 200.434 107.991 199.96 107.991C178.637 107.991 161.105 90.3373 161.105 68.8669C161.105 47.3966 178.163 29.7432 199.96 29.7432Z" fill="#00902C"/>
<path d="M18.0057 135.664C17.5318 136.141 17.5318 136.618 17.058 137.096C29.8516 138.05 43.119 141.867 54.9649 149.024C66.8109 156.18 76.7614 165.246 84.3428 176.219C84.8167 175.742 84.8166 175.265 85.2905 174.788C96.1887 156.18 89.555 132.324 71.0754 121.351C52.5957 110.377 28.4301 117.057 18.0057 135.664Z" fill="#00902C"/>
<path d="M116.565 -37.053C117.038 -37.5301 117.038 -38.0073 117.512 -38.4844C125.094 -27.5107 134.57 -18.4454 146.89 -11.2886C159.21 -4.13185 172.004 -0.314899 184.797 0.639336C184.323 1.11646 184.323 1.59357 183.849 2.07069C172.951 20.6783 149.259 27.358 130.78 16.3842C112.3 5.41052 106.14 -17.9683 116.565 -37.053Z" fill="#00902C"/>
<path d="M116.565 174.788C117.038 175.265 117.038 175.742 117.512 176.219C125.094 165.246 134.57 156.18 146.89 149.024C159.21 141.867 172.004 138.05 184.797 137.096C184.323 136.618 184.323 136.141 183.849 135.664C172.951 117.057 149.259 110.377 130.78 121.351C112.3 131.847 106.14 156.18 116.565 174.788Z" fill="#00902C"/>
<path d="M18.0057 2.07069C17.5318 1.59357 17.5319 1.11646 17.058 0.639336C29.8516 -0.314899 43.119 -4.13185 54.965 -11.2886C66.8109 -18.4454 76.7614 -27.5107 84.3428 -38.4844C84.8167 -38.0073 84.8166 -37.5301 85.2905 -37.053C96.1887 -18.4454 89.555 5.41052 71.0754 16.3842C52.5957 27.358 28.4301 20.6783 18.0057 2.07069Z" fill="#00902C"/>
</g>
<defs>
<clipPath id="clip0_3400_139679">
<rect width="176" height="176" fill="white"/>
</clipPath>
</defs>
</svg>
