<svg width="315" height="372" viewBox="0 0 315 372" fill="none" xmlns="http://www.w3.org/2000/svg">
<g opacity="0.3" clip-path="url(#clip0_2896_103946)">
<path d="M51.5226 368.454C51.5226 369.381 51.5226 371.236 51.5226 372.164C74.5162 361.033 100.269 355.467 126.942 355.467C153.614 355.467 179.367 361.96 202.361 372.164C202.361 371.236 202.361 369.381 202.361 368.454C202.361 326.711 168.33 292.389 126.942 292.389C85.5531 292.389 51.5226 326.711 51.5226 368.454Z" fill="url(#paint0_linear_2896_103946)"/>
<path d="M51.5227 -19.2925C51.5227 -20.2202 51.5227 -22.0754 51.5227 -23.003C74.5163 -11.8715 100.269 -6.30579 126.942 -6.3058C153.614 -6.3058 179.367 -12.7992 202.361 -23.003C202.361 -22.0754 202.361 -20.2202 202.361 -19.2926C202.361 22.4503 168.33 56.7724 126.942 56.7724C85.5532 56.7724 51.5227 23.378 51.5227 -19.2925Z" fill="url(#paint1_linear_2896_103946)"/>
<path d="M255.707 336.915C256.627 337.842 257.547 337.842 258.466 338.77C260.306 313.724 267.664 287.751 281.46 264.56C295.256 241.37 312.731 221.89 333.885 207.048C332.966 206.12 332.046 206.12 331.126 205.193C295.256 183.858 249.269 196.844 228.115 233.021C206.961 269.199 219.837 316.507 255.707 336.915Z" fill="url(#paint2_linear_2896_103946)"/>
<path d="M-77.2408 143.968C-78.1605 143.04 -79.0803 143.04 -80 142.113C-58.8459 127.271 -41.3708 108.719 -27.5746 84.6005C-13.7785 60.4824 -6.42052 35.4367 -4.58104 10.391C-3.66129 11.3186 -2.74155 11.3185 -1.8218 12.2462C34.0482 33.5814 46.9246 79.9624 25.7705 116.14C4.61641 152.317 -40.451 164.376 -77.2408 143.968Z" fill="url(#paint3_linear_2896_103946)"/>
<path d="M331.126 143.968C332.046 143.04 332.966 143.04 333.885 142.113C312.731 127.271 295.256 108.719 281.46 84.6005C267.664 60.4824 260.306 35.4367 258.466 10.3909C257.547 11.3186 256.627 11.3185 255.707 12.2461C219.837 33.5814 206.961 79.9624 228.115 116.14C248.349 152.317 295.256 164.376 331.126 143.968Z" fill="url(#paint4_linear_2896_103946)"/>
<path d="M-1.82179 336.915C-2.74153 337.842 -3.66128 337.842 -4.58103 338.77C-6.42051 313.724 -13.7785 287.751 -27.5746 264.56C-41.3708 241.37 -58.8459 221.89 -80 207.048C-79.0803 206.12 -78.1605 206.12 -77.2408 205.193C-41.3708 183.858 4.61641 196.844 25.7705 233.021C46.9246 269.199 34.0482 316.507 -1.82179 336.915Z" fill="url(#paint5_linear_2896_103946)"/>
</g>
<defs>
<linearGradient id="paint0_linear_2896_103946" x1="0.0691549" y1="130.255" x2="227.503" y2="372.265" gradientUnits="userSpaceOnUse">
<stop stop-color="#B7B7B7"/>
<stop offset="1" stop-color="white" stop-opacity="0"/>
</linearGradient>
<linearGradient id="paint1_linear_2896_103946" x1="0.0691549" y1="130.255" x2="227.503" y2="372.265" gradientUnits="userSpaceOnUse">
<stop stop-color="#B7B7B7"/>
<stop offset="1" stop-color="white" stop-opacity="0"/>
</linearGradient>
<linearGradient id="paint2_linear_2896_103946" x1="0.0691549" y1="130.255" x2="227.503" y2="372.265" gradientUnits="userSpaceOnUse">
<stop stop-color="#B7B7B7"/>
<stop offset="1" stop-color="white" stop-opacity="0"/>
</linearGradient>
<linearGradient id="paint3_linear_2896_103946" x1="0.0691549" y1="130.255" x2="227.503" y2="372.265" gradientUnits="userSpaceOnUse">
<stop stop-color="#B7B7B7"/>
<stop offset="1" stop-color="white" stop-opacity="0"/>
</linearGradient>
<linearGradient id="paint4_linear_2896_103946" x1="0.0691549" y1="130.255" x2="227.503" y2="372.265" gradientUnits="userSpaceOnUse">
<stop stop-color="#B7B7B7"/>
<stop offset="1" stop-color="white" stop-opacity="0"/>
</linearGradient>
<linearGradient id="paint5_linear_2896_103946" x1="0.0691549" y1="130.255" x2="227.503" y2="372.265" gradientUnits="userSpaceOnUse">
<stop stop-color="#B7B7B7"/>
<stop offset="1" stop-color="white" stop-opacity="0"/>
</linearGradient>
<clipPath id="clip0_2896_103946">
<rect width="372" height="315" fill="white" transform="matrix(-4.37114e-08 -1 -1 4.37114e-08 315 372)"/>
</clipPath>
</defs>
</svg>
