<svg width="24" height="25" viewBox="0 0 24 25" fill="none" xmlns="http://www.w3.org/2000/svg">
<path d="M4.00403 19.7066C4.00403 20.2515 4.42737 20.6973 4.9449 20.6973H19.0592C19.5767 20.6973 20 20.2515 20 19.7066C20 19.1617 19.5767 18.716 19.0592 18.716L4.9449 18.7158C4.42737 18.7158 4.00403 19.1617 4.00403 19.7066V19.7066Z" fill="white"/>
<path d="M11.8611 4.69727C11.3436 4.69727 10.9203 5.143 10.9203 5.68789V14.7282L6.70951 10.914C6.30963 10.5673 5.72151 10.6169 5.39222 11.013C5.06289 11.434 5.10998 12.0533 5.48624 12.4L11.2496 17.6012C11.4143 17.7498 11.6495 17.849 11.8612 17.849C12.0728 17.849 12.3081 17.7747 12.4727 17.6012L18.2361 12.4C18.6359 12.0532 18.6831 11.4093 18.3301 11.013C17.9773 10.6167 17.3892 10.5424 17.0128 10.914L12.8025 14.7284V5.68807C12.8025 5.14318 12.3791 4.69744 11.8616 4.69744L11.8611 4.69727Z" fill="white"/>
</svg>
