<svg width="22" height="22" viewBox="0 0 22 22" fill="none" xmlns="http://www.w3.org/2000/svg">
<path d="M17.4699 0H4.53013C2.02821 0 0 2.02821 0 4.53013V17.4699C0 19.9718 2.02821 22 4.53013 22H17.4699C19.9718 22 22 19.9718 22 17.4699V4.53013C22 2.02821 19.9718 0 17.4699 0Z" fill="#00B140"/>
<path fill-rule="evenodd" clip-rule="evenodd" d="M15.8073 18.2221H6.19312C4.8622 18.2221 3.77979 17.1397 3.77979 15.8088V6.19459C3.77979 4.86366 4.8622 3.78125 6.19312 3.78125H15.8073C17.1383 3.78125 18.2207 4.86366 18.2207 6.19459V15.8088C18.2207 17.1397 17.1383 18.2221 15.8073 18.2221ZM11.0002 14.7066C10.0103 14.7066 9.08035 14.3211 8.38049 13.6212C7.68062 12.9214 7.2951 11.9908 7.2951 11.0015C7.2951 10.0122 7.68062 9.08163 8.38049 8.38177C9.08035 7.6819 10.0109 7.29639 11.0002 7.29639C11.9895 7.29639 12.9201 7.6819 13.62 8.38177C14.3198 9.08163 14.7053 10.0122 14.7053 11.0015C14.7053 11.9908 14.3198 12.9214 13.62 13.6212C12.9201 14.3211 11.9895 14.7066 11.0002 14.7066ZM15.7609 5.09431C16.1431 5.18453 16.3799 5.56753 16.2896 5.94978C16.1994 6.33202 15.8164 6.56876 15.4342 6.47854C15.0519 6.38832 14.8152 6.00532 14.9054 5.62307C14.9956 5.24083 15.3786 5.00409 15.7609 5.09431Z" fill="white"/>
</svg>
