<svg width="14" height="14" viewBox="0 0 14 14" fill="none" xmlns="http://www.w3.org/2000/svg">
<g clip-path="url(#clip0_2896_81874)">
<path d="M12.6766 1.3234C12.3894 1.03629 12 0.875 11.5939 0.875C11.1878 0.875 10.7984 1.03629 10.5112 1.3234L9.83632 1.99832L12.0016 4.16365L12.6766 3.48874C12.9637 3.20158 13.125 2.81214 13.125 2.40607C13.125 2 12.9637 1.61056 12.6766 1.3234ZM11.3827 4.78257L9.2174 2.61724L2.1299 9.70474C1.76989 10.0646 1.50525 10.5084 1.3599 10.9962L0.893232 12.5625C0.870701 12.6381 0.869021 12.7183 0.888369 12.7948C0.907716 12.8713 0.947372 12.9411 1.00314 12.9968C1.05891 13.0526 1.12872 13.0923 1.20517 13.1116C1.28163 13.1309 1.3619 13.1293 1.43748 13.1067L3.00373 12.6401C3.49153 12.4947 3.93541 12.2301 4.29523 11.8701L11.3827 4.78257Z" fill="#00902C"/>
</g>
<defs>
<clipPath id="clip0_2896_81874">
<rect width="14" height="14" fill="white"/>
</clipPath>
</defs>
</svg>
