<svg width="24" height="24" viewBox="0 0 24 24" fill="none" xmlns="http://www.w3.org/2000/svg">
<path d="M4.00391 19.0094C4.00391 19.5543 4.42725 20 4.94477 20H19.0591C19.5766 20 19.9999 19.5543 19.9999 19.0094C19.9999 18.4645 19.5766 18.0187 19.0591 18.0187L4.94477 18.0186C4.42725 18.0186 4.00391 18.4645 4.00391 19.0094V19.0094Z" fill="#00902C"/>
<path d="M11.861 4C11.3435 4 10.9201 4.44573 10.9201 4.99063V14.0309L6.70939 10.2168C6.3095 9.87001 5.72139 9.91959 5.3921 10.3157C5.06277 10.7368 5.10986 11.356 5.48612 11.7027L11.2495 16.904C11.4142 17.0526 11.6493 17.1517 11.861 17.1517C12.0727 17.1517 12.308 17.0774 12.4726 16.904L18.2359 11.7027C18.6358 11.356 18.6829 10.7121 18.33 10.3157C17.9772 9.91942 17.3891 9.84511 17.0127 10.2168L12.8023 14.0311V4.99081C12.8023 4.44591 12.379 4.00018 11.8615 4.00018L11.861 4Z" fill="#00902C"/>
</svg>
