<svg width="32" height="32" viewBox="0 0 32 32" fill="none" xmlns="http://www.w3.org/2000/svg">
<path d="M15.4909 8.52239C17.754 8.52239 18.0437 8.52239 18.9217 8.55864C19.4649 8.59488 19.9989 8.70362 20.5149 8.8758C20.886 9.02079 21.221 9.23827 21.5106 9.51013C21.8003 9.78198 22.0176 10.1263 22.1443 10.5069C22.3253 11.0144 22.4249 11.5581 22.4249 12.1018C22.4611 12.9899 22.4611 13.2708 22.4611 15.5362C22.4611 17.8017 22.4611 18.0826 22.4249 18.9707C22.4159 19.5144 22.3163 20.049 22.1443 20.5656C21.9995 20.9371 21.7822 21.2724 21.5106 21.5533C21.2391 21.8433 20.8951 22.0608 20.5149 22.1876C20.008 22.3689 19.4649 22.4685 18.9217 22.4685C18.0346 22.5048 17.754 22.5048 15.4909 22.5048C13.2279 22.5048 12.9382 22.5048 12.0602 22.4685C11.517 22.4595 10.983 22.3598 10.467 22.1876C10.0958 22.0426 9.76092 21.8252 9.47125 21.5533C9.18158 21.2814 8.96432 20.9371 8.83759 20.5565C8.70181 20.0219 8.62034 19.4781 8.59318 18.9254C8.55698 18.0373 8.55698 17.7564 8.55698 15.4909C8.55698 13.2255 8.55698 12.9355 8.59318 12.0565C8.60224 11.5128 8.70181 10.9781 8.8738 10.4616C9.01864 10.0901 9.23589 9.7548 9.50745 9.46482C9.77902 9.17484 10.123 8.95736 10.5032 8.83049C11.0101 8.6855 11.5351 8.60394 12.0602 8.58582C12.9473 8.52239 13.2279 8.52239 15.4909 8.52239ZM15.4909 7C13.1917 7 12.9111 7 11.9878 7.03625C11.2907 7.04531 10.5937 7.17217 9.94196 7.42591C9.37167 7.66151 8.8557 7.9968 8.41214 8.41365C7.99574 8.85768 7.66986 9.3742 7.46166 9.93603C7.2082 10.5975 7.08147 11.2953 7.07242 11.9931C7 12.9174 7 13.1983 7 15.5C7 17.8017 7 18.0826 7.03621 19.0069C7.04526 19.7138 7.17199 20.4025 7.42545 21.064C7.66081 21.6258 7.99574 22.1423 8.42119 22.5864C8.84665 23.0213 9.37167 23.3657 9.94196 23.5741C10.5937 23.8188 11.2907 23.9547 11.9968 23.9638C12.9201 24 13.2007 24 15.5 24C17.7993 24 18.0799 24 19.0032 23.9638C19.7093 23.9547 20.3972 23.8278 21.058 23.5741C21.6374 23.3657 22.1534 23.0213 22.5788 22.5864C23.0224 22.1604 23.3573 21.6349 23.5745 21.064C23.819 20.4115 23.9547 19.7138 23.9638 19.0069C24 18.0826 24 17.8017 24 15.5C24 13.1983 24 12.9174 23.9638 11.9931C23.9547 11.2862 23.828 10.5975 23.5745 9.93603C23.3392 9.3742 22.9952 8.85768 22.5788 8.41365C22.1534 7.97868 21.6283 7.63433 21.058 7.41684C20.4063 7.17217 19.7093 7.03625 19.0032 7.02719C18.0799 7 17.7902 7 15.4909 7Z" fill="#1A6638"/>
<path d="M15.4909 11.1406C13.0831 11.1406 11.1368 13.0889 11.1368 15.4994C11.1368 17.9098 13.0831 19.8581 15.4909 19.8581C17.8988 19.8581 19.845 17.9098 19.845 15.4994C19.845 13.098 17.9079 11.1497 15.509 11.1406C15.5 11.1406 15.5 11.1406 15.4909 11.1406ZM15.4909 18.3357C13.9249 18.3357 12.6576 17.0671 12.6576 15.4994C12.6576 13.9317 13.9249 12.663 15.4909 12.663C17.057 12.663 18.3243 13.9317 18.3243 15.4994C18.3152 17.0671 17.057 18.3267 15.4909 18.3357Z" fill="#1A6638"/>
<path d="M20.0258 11.9933C20.5908 11.9933 21.0487 11.5348 21.0487 10.9693C21.0487 10.4038 20.5908 9.94531 20.0258 9.94531C19.4609 9.94531 19.0029 10.4038 19.0029 10.9693C19.0029 11.5348 19.4609 11.9933 20.0258 11.9933Z" fill="#1A6638"/>
</svg>
