<svg width="82" height="134" viewBox="0 0 82 134" fill="none" xmlns="http://www.w3.org/2000/svg">
<path opacity="0.68" d="M27.5097 93.9947V90.4544C27.5097 85.262 28.2738 80.6596 29.8021 76.6473C31.448 72.635 33.5054 69.0947 35.9742 66.0264C38.443 62.8402 41.0294 59.9489 43.7333 57.3527C47.3778 53.6944 50.6107 50.3311 53.4323 47.2629C56.3713 44.0766 57.8409 40.3593 57.8409 36.111C57.8409 33.5147 57.1943 31.0955 55.9011 28.8534C54.6079 26.6112 52.6681 24.841 50.0817 23.5429C47.6129 22.2448 44.5563 21.5958 40.9118 21.5958C35.9742 21.5958 31.6832 23.1299 28.0387 26.1981C24.5118 29.2664 22.3369 33.3377 21.514 38.4122L0 33.1017C1.05806 26.4932 3.40932 20.7107 7.05376 15.7543C10.8158 10.7979 15.6358 6.96257 21.514 4.24835C27.5097 1.41612 34.152 0 41.4409 0C50.0229 0 57.3118 1.71114 63.3075 5.13342C69.4208 8.5557 74.0645 12.9811 77.2387 18.4095C80.4129 23.838 82 29.5614 82 35.5799C82 40.3003 81.0595 44.4897 79.1785 48.148C77.2975 51.8063 74.9462 55.1695 72.1247 58.2378C69.4208 61.188 66.5993 64.1383 63.6602 67.0885C59.8982 70.6288 56.6065 74.3461 53.7849 78.2404C50.9634 82.1347 49.5527 86.6781 49.5527 91.8705V93.9947H27.5097ZM26.9806 134V109.218H50.4344V134H26.9806Z" fill="white"/>
</svg>
