<svg width="64" height="65" viewBox="0 0 64 65" fill="none" xmlns="http://www.w3.org/2000/svg">
<g clip-path="url(#clip0_339_562)">
<g clip-path="url(#clip1_339_562)">
<path fill-rule="evenodd" clip-rule="evenodd" d="M28.5023 40.9967C28.8258 40.8205 29.0871 40.7324 29.4479 40.8897H29.479V40.9023L36.7512 45.1428C36.4588 44.9666 36.0669 45.0988 35.7745 45.2498C30.0389 48.5968 24.3033 51.9565 18.5303 55.3162C18.0078 55.6685 17.6843 56.1026 17.423 56.694C17.1928 57.2602 17.0622 58.0718 17.2924 58.6821C17.3919 58.8457 17.423 58.9149 17.5848 59.0219L10.4432 54.8569C10.182 54.7059 10.0824 54.6493 9.95179 54.3095C9.79005 53.6992 9.88336 53.0198 10.1135 52.4409C10.4059 51.8495 10.6983 51.4217 11.2519 51.0631C17.0187 47.716 22.7605 44.3564 28.4961 41.003L28.5023 40.9967Z" fill="#C1E7C6"/>
<path fill-rule="evenodd" clip-rule="evenodd" d="M28.6952 41.3364L11.451 51.3965C11.028 51.6671 10.7356 52.0194 10.4743 52.5982C10.2442 53.133 10.2131 53.7244 10.3126 54.2151C10.379 54.3242 10.4868 54.4228 10.6361 54.5108L16.7636 58.1096C16.7325 57.5308 16.8631 56.9582 17.056 56.5367C17.3795 55.7943 17.7714 55.3539 18.325 54.9827L35.5692 44.91L29.2799 41.2358C29.1182 41.1603 28.9876 41.1791 28.6952 41.3364ZM17.5785 59.4056C17.5101 59.4056 17.4479 59.393 17.3857 59.3553L10.2442 55.1966C9.95179 55.0204 9.75273 54.9009 9.59099 54.4542C9.42924 53.7684 9.49145 53.0135 9.75273 52.3025C10.1135 51.5601 10.4681 51.1071 11.0591 50.7485L28.3033 40.6632H28.3344C28.6579 40.4808 29.0809 40.3109 29.6034 40.5437C29.6242 40.5521 29.6573 40.5668 29.703 40.5877L36.9067 44.7967C36.9067 44.7967 36.9378 44.8093 36.9378 44.8219C37.0995 44.9289 37.168 45.1679 37.0684 45.3441C36.9689 45.5266 36.7076 45.5958 36.5459 45.4888V45.4762C36.4152 45.4196 36.2224 45.4511 35.9611 45.5958L18.717 55.6559C18.2939 55.9264 18.0327 56.2662 17.7403 56.8576C17.5474 57.3294 17.4479 58.0529 17.6408 58.5437C17.6719 58.6255 17.6719 58.6318 17.8025 58.7073C17.9642 58.8142 17.9953 59.0533 17.902 59.2295C17.8336 59.3364 17.7092 59.4056 17.5785 59.4056Z" fill="#00902C"/>
<path fill-rule="evenodd" clip-rule="evenodd" d="M17.9082 55.8698C17.6781 56.1403 17.4852 56.5115 17.3546 56.8513C17.1244 57.4553 16.9627 58.594 17.5848 59.0156L10.3499 54.8065C10.1197 54.6618 10.0575 54.5549 9.958 54.3032C9.85847 53.8943 9.88957 53.3721 9.958 52.9568C10.0886 52.4221 10.2815 52.0634 10.6112 51.6356L17.9145 55.8698H17.9082Z" fill="#6AC97B"/>
<path fill-rule="evenodd" clip-rule="evenodd" d="M10.7356 52.1515C10.5428 52.422 10.4121 52.6989 10.3126 53.0575C10.2442 53.4539 10.2442 53.9005 10.3437 54.2151C10.3748 54.3598 10.4121 54.3913 10.5365 54.4668L16.7636 58.097C16.7325 57.6062 16.8631 57.0841 16.9564 56.7317C17.056 56.5115 17.1866 56.241 17.3484 55.9893L10.7294 52.1515H10.7356ZM17.5785 59.3993C17.5101 59.3993 17.4479 59.3867 17.3857 59.349L10.182 55.1337C9.82115 54.9512 9.72783 54.7499 9.5972 54.4416C9.46656 53.9823 9.46656 53.4161 9.56609 52.8813C9.72783 52.2773 9.958 51.8684 10.3188 51.3965C10.4495 51.2392 10.6423 51.2015 10.8103 51.2959L18.1135 55.53C18.2131 55.5804 18.2753 55.681 18.3064 55.8069C18.3064 55.9138 18.2753 56.0334 18.2068 56.1215C18.0451 56.3291 17.846 56.6374 17.6843 57.0086C17.5225 57.5307 17.423 58.4367 17.8149 58.701C17.9767 58.8079 18.0078 59.047 17.9145 59.2232C17.846 59.3301 17.7216 59.3993 17.591 59.3993H17.5785Z" fill="#00902C"/>
<path fill-rule="evenodd" clip-rule="evenodd" d="M35.7745 45.2497C36.5583 44.803 37.1431 45.1616 37.1431 46.0488V46.4577C37.1431 47.3448 36.5583 48.4144 35.7745 48.8673L18.5303 58.9275C18.0762 59.198 17.6843 59.1665 17.423 58.896C17.0311 58.4934 17.0995 57.3105 17.5226 56.4801C17.7527 56.0019 18.1446 55.5615 18.5303 55.3224C34.1135 46.2312 19.9673 54.4794 35.7745 45.256V45.2497Z" fill="white"/>
<path fill-rule="evenodd" clip-rule="evenodd" d="M35.9673 45.5769L18.7232 55.6496C18.3997 55.8383 18.07 56.2095 17.8398 56.6562C17.4479 57.4112 17.479 58.3864 17.7092 58.6255C17.902 58.8331 18.2628 58.6443 18.3624 58.5814L35.6065 48.5213C36.2286 48.1501 36.7823 47.2001 36.7823 46.4577V46.0487C36.7823 45.7656 36.7201 45.5706 36.5521 45.4825C36.4215 45.407 36.2286 45.4511 35.9673 45.5832V45.5769ZM17.9393 59.5C17.6159 59.5 17.3546 59.3805 17.1244 59.1603C16.5708 58.5626 16.7014 57.1721 17.1555 56.2976C17.4479 55.7314 17.902 55.2469 18.3624 54.9764L35.6065 44.9163C36.0607 44.6269 36.5832 44.5954 36.944 44.8156C37.3359 45.0358 37.5288 45.4825 37.5288 46.0487V46.4577C37.5288 47.4769 36.8445 48.6912 35.9673 49.1945L18.7232 59.2672C18.4619 59.4245 18.2006 59.5063 17.9393 59.5063V59.5Z" fill="#00902C"/>
<path fill-rule="evenodd" clip-rule="evenodd" d="M20.7761 46.269L19.2457 45.3819V49.8803L20.7761 50.7737V46.269Z" fill="#6AC97B"/>
<path fill-rule="evenodd" clip-rule="evenodd" d="M19.6003 49.6475L20.3841 50.0942V46.4954L19.6003 46.0425V49.6412V49.6475ZM20.776 51.1575C20.6765 51.1575 20.6454 51.1449 20.5832 51.1008L19.0529 50.22C18.9222 50.1382 18.86 50.025 18.86 49.8803V45.3819C18.86 45.2371 18.9222 45.105 19.0529 45.0421C19.1524 44.9729 19.3142 44.9729 19.4448 45.0421L20.944 45.9355C21.0746 46.0047 21.1369 46.1305 21.1369 46.2627V50.7674C21.1369 50.8932 21.0746 51.0253 20.944 51.0945C20.9129 51.1386 20.8445 51.1512 20.7823 51.1512L20.776 51.1575Z" fill="#00902C"/>
<path fill-rule="evenodd" clip-rule="evenodd" d="M28.0109 42.0348L20.776 46.269V50.7737L28.0109 46.5332V42.0348Z" fill="white"/>
<path fill-rule="evenodd" clip-rule="evenodd" d="M21.1369 46.5017V50.1005L27.6252 46.313V42.7143L21.1369 46.5017ZM20.7761 51.1575C20.6765 51.1575 20.6454 51.1323 20.5832 51.1008C20.4526 51.0316 20.3841 50.9058 20.3841 50.7737V46.269C20.3841 46.1368 20.4526 46.0047 20.5832 45.9418L27.818 41.7013C27.9487 41.6384 28.0793 41.6384 28.21 41.7013C28.3406 41.7831 28.4028 41.909 28.4028 42.0411V46.5395C28.4028 46.6779 28.3406 46.81 28.21 46.8729L20.944 51.1071C20.9129 51.1386 20.8445 51.1638 20.7823 51.1638L20.7761 51.1575Z" fill="#00902C"/>
<path fill-rule="evenodd" clip-rule="evenodd" d="M8.78226 52.6549L5.84603 50.9624C5.35458 50.6667 5.45412 50.3081 5.39191 49.7356V26.0481C5.49144 24.8149 5.91446 23.7705 6.95956 23.0282L35.9984 6.06625C36.4526 5.85863 36.6516 5.80201 37.1057 6.04108L40.0047 7.7335C39.5505 7.49442 39.3826 7.55734 38.9285 7.77125L9.85847 24.7206C8.85069 25.4567 8.39035 26.4507 8.32814 27.7405V51.4406C8.35925 52.0005 8.39657 52.2396 8.78226 52.6549Z" fill="#6AC97B"/>
<path fill-rule="evenodd" clip-rule="evenodd" d="M36.6205 6.27363C36.4899 6.27363 36.3904 6.31767 36.1664 6.42463L7.15241 23.3551C6.30638 23.9653 5.88336 24.8336 5.78383 26.0667V49.987C5.81493 50.4023 5.81493 50.4903 6.0451 50.6225L7.96734 51.7423C7.93624 51.6543 7.93624 51.5662 7.93624 51.4781V27.7402C8.03577 26.2303 8.58942 25.1796 9.63453 24.4058L38.7356 7.43127L36.9129 6.38058C36.7823 6.30509 36.6827 6.27363 36.6205 6.27363ZM8.78227 53.051C8.71384 53.051 8.65163 53.0258 8.58942 52.9944L5.65319 51.3019C5.06843 50.9496 5.0311 50.4589 5.0311 50.0248L5 49.7731V26.0478C5.13064 24.5505 5.68429 23.4683 6.72939 22.7133L35.8056 5.73885C36.3593 5.48719 36.6516 5.38023 37.2737 5.70739L40.21 7.41239C40.409 7.51306 40.4712 7.75213 40.3717 7.9283C40.2411 8.11075 40.0109 8.18625 39.8491 8.09187C39.5257 7.9283 39.4883 7.93459 39.0653 8.12333L10.0513 25.0601C9.23639 25.6766 8.78227 26.5134 8.68274 27.7717V51.4404C8.74495 51.9437 8.74495 52.0758 9.04355 52.3904C9.17418 52.5225 9.20529 52.7427 9.07465 52.8937C9.01244 52.9944 8.8818 53.051 8.78227 53.051Z" fill="#00902C"/>
<path fill-rule="evenodd" clip-rule="evenodd" d="M9.85848 24.7206L38.9347 7.77124C39.7807 7.26792 40.465 7.80269 40.465 8.96033V32.6667C40.465 33.8244 39.7807 35.1833 38.9347 35.6741L9.85848 52.636C9.01245 53.1393 8.32816 52.6045 8.32816 51.4406V27.7405C8.32816 26.5828 9.01245 25.2239 9.85848 24.7206Z" fill="#6AC97B"/>
<path fill-rule="evenodd" clip-rule="evenodd" d="M39.5194 7.96628C39.3888 7.96628 39.2271 8.03549 39.0964 8.0984L10.0513 25.0603C9.33593 25.5007 8.68274 26.7276 8.68274 27.7405V51.4406C8.68274 51.8999 8.81338 52.2522 9.04355 52.3843C9.2364 52.5038 9.49767 52.4032 9.66564 52.2962L38.7418 35.3469C39.4572 34.9065 40.1104 33.6797 40.1104 32.6667V8.96034C40.1104 8.50106 39.9798 8.15503 39.7496 8.02291C39.6812 7.97887 39.5879 7.96628 39.5194 7.96628ZM9.2675 53.2148C9.03733 53.2148 8.84449 53.1645 8.64542 53.0512C8.1913 52.7744 7.93002 52.1956 7.93002 51.4406V27.7405C7.93002 26.4381 8.71385 24.9596 9.65942 24.3934L38.7356 7.4315C39.2271 7.1358 39.7123 7.11693 40.1353 7.35601C40.5894 7.62025 40.8507 8.21165 40.8507 8.96663V32.6667C40.8507 33.9691 40.0669 35.4413 39.0902 36.0138L10.0513 52.9694C9.79005 53.1267 9.49767 53.2085 9.2675 53.2085V53.2148Z" fill="#00902C"/>
<path fill-rule="evenodd" clip-rule="evenodd" d="M6.00778 24.0222L8.94402 25.7146C9.20529 25.2805 9.46657 25.0163 9.85848 24.7206L38.9347 7.77125C39.3888 7.56363 39.5568 7.49442 40.0109 7.7335L37.112 6.04108C36.6579 5.80201 36.4588 5.85863 36.0047 6.06625L6.95335 23.0282C6.56144 23.3239 6.26906 23.5881 6.00778 24.0222Z" fill="#C1E7C6"/>
<path fill-rule="evenodd" clip-rule="evenodd" d="M6.56765 23.8901L8.81959 25.205C9.04977 24.8778 9.34214 24.645 9.63452 24.406L38.7356 7.43148L36.9129 6.3808C36.6205 6.21722 36.5894 6.24238 36.1664 6.42484L7.15241 23.3553C6.92224 23.5189 6.72939 23.6824 6.56765 23.8901ZM8.95023 26.111C8.88802 26.111 8.81959 26.0858 8.75739 26.0543L5.82115 24.3493C5.75272 24.3053 5.69051 24.2172 5.65941 24.1166C5.6283 24.0159 5.6283 23.9089 5.69051 23.8209C5.98289 23.3112 6.3437 23.003 6.73561 22.7073L35.8056 5.73906C36.3593 5.4874 36.6516 5.38045 37.2737 5.70761L40.21 7.41261C40.409 7.51327 40.4712 7.75235 40.3717 7.92851C40.2411 8.11096 40.0109 8.18646 39.8491 8.09209C39.5257 7.92851 39.4883 7.9348 39.0653 8.12355L10.0513 25.0603C9.72784 25.2931 9.49767 25.5196 9.2675 25.9159C9.19907 26.048 9.07465 26.111 8.94401 26.111H8.95023Z" fill="#00902C"/>
<path fill-rule="evenodd" clip-rule="evenodd" d="M16.21 49.3203C16.0171 49.3203 15.8492 49.1442 15.8492 48.924V21.0274C15.8492 20.8072 16.0109 20.6374 16.21 20.6374C16.4401 20.6374 16.6019 20.8135 16.6019 21.0274V48.9303C16.6019 49.1505 16.4401 49.3266 16.21 49.3266V49.3203Z" fill="#00902C"/>
<path fill-rule="evenodd" clip-rule="evenodd" d="M24.3966 44.5388C24.1664 44.5388 24.0047 44.3626 24.0047 44.155V16.2459C24.0047 16.0257 24.1664 15.8621 24.3966 15.8621C24.6268 15.8621 24.7885 16.0257 24.7885 16.2459V44.1613C24.7885 44.3689 24.6268 44.5451 24.3966 44.5451V44.5388Z" fill="#00902C"/>
<path fill-rule="evenodd" clip-rule="evenodd" d="M32.6392 39.6881C32.409 39.6881 32.2473 39.5119 32.2473 39.3043V11.4329C32.2473 11.2127 32.409 11.0365 32.6392 11.0365C32.832 11.0365 33.0311 11.2127 33.0311 11.4329V39.3043C33.0311 39.5119 32.8383 39.6881 32.6392 39.6881Z" fill="#00902C"/>
<path fill-rule="evenodd" clip-rule="evenodd" d="M8.32193 44.7842C8.19129 44.7842 8.06065 44.7087 7.96112 44.5828C7.86159 44.4004 7.93002 44.1613 8.12286 44.0606L40.3344 25.249C40.4961 25.1484 40.7263 25.205 40.8569 25.3937C40.9565 25.5762 40.888 25.8216 40.6952 25.9285L8.48989 44.7275C8.45879 44.759 8.39036 44.7842 8.32815 44.7842H8.32193Z" fill="#00902C"/>
<path fill-rule="evenodd" clip-rule="evenodd" d="M8.32193 34.938C8.19129 34.938 8.06065 34.8625 7.96112 34.7429C7.86159 34.5605 7.93002 34.3151 8.12286 34.2207L40.4339 15.3525C40.5956 15.2456 40.8258 15.3085 40.9565 15.4972C41.056 15.6797 40.9876 15.925 40.7947 16.032L8.48989 34.8813C8.45879 34.9128 8.39036 34.938 8.32815 34.938H8.32193Z" fill="#00902C"/>
</g>
<g clip-path="url(#clip2_339_562)">
<path fill-rule="evenodd" clip-rule="evenodd" d="M53.6814 4.83993C56.3241 3.42369 57.152 4.35712 59.6631 5.77872C54.9753 3.38077 48.2425 13.965 51.6308 17.7685L52.2778 18.2942C51.1319 17.6505 49.6844 17.0657 49.0759 16.1269C47.113 13.096 49.8983 7.08767 53.6814 4.84529V4.83993Z" fill="#C1E7C6"/>
<path fill-rule="evenodd" clip-rule="evenodd" d="M53.7636 4.97941C51.5102 6.32054 49.4761 9.17448 48.8182 11.9265C48.4179 13.5949 48.555 15.0111 49.2184 16.0304C49.6187 16.6527 50.4301 17.1194 51.2635 17.5539C49.668 15.2525 50.9565 11.1325 53.2373 8.30006C54.9041 6.22398 56.8285 5.15107 58.4734 5.27446C56.7518 4.25519 55.891 3.83139 53.7582 4.97404L53.7636 4.97941ZM52.2778 18.4551C52.2504 18.4551 52.2175 18.4444 52.1956 18.4337C51.9488 18.2942 51.6802 18.1547 51.4115 18.0153C50.4411 17.5056 49.4377 16.9853 48.9333 16.2181C48.226 15.1238 48.0725 13.611 48.4892 11.8568C49.1745 8.98136 51.2306 6.1006 53.5937 4.70045C55.9787 3.41832 56.9985 4.02452 58.8517 5.11352C59.1258 5.27446 59.4219 5.45685 59.7454 5.63388C59.8276 5.68216 59.855 5.77872 59.8112 5.85919C59.7618 5.93966 59.6631 5.96648 59.5809 5.92357C57.4919 4.85602 55.074 6.55658 53.506 8.50928C51.1922 11.3739 49.9092 15.5851 51.7569 17.6558L52.382 18.1601C52.4478 18.2191 52.4642 18.3103 52.4094 18.3854C52.3765 18.4283 52.3217 18.4551 52.2723 18.4551H52.2778Z" fill="#00902C"/>
<path fill-rule="evenodd" clip-rule="evenodd" d="M60.8584 2.66191L59.7673 3.99232C58.7694 5.29054 59.8769 5.60705 60.3649 5.88064C59.6357 5.1457 61.1709 3.65436 61.6479 3.10717C61.9001 2.82285 62.2291 2.54926 62.6128 2.73702C61.7575 2.25421 61.5437 1.92161 60.8584 2.66191ZM61.6369 10.8697L62.5471 11.3471C62.251 11.2774 61.2696 11.1111 60.8913 11.3578C60.4197 11.6583 59.8057 12.7312 60.4307 13.1442C59.9318 12.8653 58.8078 12.5649 59.6905 11.3203C60.2169 10.5693 60.6829 10.7892 61.6369 10.875V10.8697ZM57.777 17.4091C57.3658 16.8404 56.4831 16.0465 57.5742 15.0218C58.1608 14.4746 58.4514 14.8341 59.1861 15.2525C58.413 14.8823 57.5522 16.3469 57.936 16.9745L58.6543 17.9455L57.777 17.4091ZM50.1231 20.8531C50.2711 20.4776 50.9674 17.9938 51.9379 18.38L52.7274 18.8253C51.7131 18.5732 51.1538 20.6224 50.9126 21.2983C50.7865 21.647 50.7097 22.0655 51.0716 22.3015C50.2163 21.8133 49.8215 21.808 50.1285 20.8477L50.1231 20.8531ZM47.6065 18.7931C46.6524 20.1021 47.6065 20.3488 48.1986 20.6814C47.4639 19.9465 49.0046 18.4498 49.4816 17.908C49.7283 17.6236 50.0627 17.3608 50.4465 17.5378C49.0813 16.7653 49.3609 16.6526 47.6065 18.7931ZM48.3795 9.71093C49.7667 9.83431 49.3116 9.67338 50.3862 10.2849C50.0902 10.2098 49.1033 10.0489 48.7249 10.2849C48.2479 10.5907 47.6393 11.6636 48.2644 12.0713C47.7709 11.7924 46.647 11.492 47.5242 10.2474C47.7326 9.94697 48.0012 9.72166 48.3795 9.70556V9.71093ZM50.4027 5.4032C51.0935 4.66289 51.3019 4.99549 52.1572 5.4783C51.3896 5.10815 50.5288 6.57267 50.9071 7.20032L51.6308 8.1713C50.7536 7.67776 50.6713 7.65631 50.1231 6.75506C49.8544 6.32053 50.1395 5.76799 50.4027 5.4032ZM46.965 14.7107C48.7853 13.6807 48.3411 13.7021 49.5583 14.3888C49.0265 14.1957 47.5571 15.2847 47.4529 15.3973C47.0966 15.7621 46.7128 16.5615 47.2062 16.9584C46.7621 16.7063 45.5833 16.363 46.5318 15.1023L46.965 14.7107ZM53.8404 20.3435C53.8404 19.6407 53.5991 17.924 54.767 17.5432C55.1234 17.4251 55.4468 17.7202 55.9513 18.0045C55.2714 17.7524 54.6573 18.7502 54.6299 19.3671C54.597 20.0645 54.4928 20.9926 54.8547 21.2823C54.0707 20.837 53.8897 20.8745 53.8404 20.3435ZM62.2729 6.0684C62.7609 5.84845 62.8212 6.01476 63.6052 6.46001C63.0679 6.26152 61.5985 7.35053 61.4944 7.46318C61.1489 7.82797 60.7597 8.63265 61.2476 9.02427C60.8035 8.77213 59.6192 8.43953 60.5732 7.1735C60.9022 6.73897 61.7137 6.37954 62.2674 6.0684H62.2729ZM54.6189 1.74994C55.1069 1.52463 55.1672 1.6963 55.9513 2.14155C55.2714 1.88942 54.6573 2.88186 54.6299 3.50415C54.597 4.19617 54.4928 5.12961 54.8547 5.41929C53.7746 4.80773 53.7527 5.11888 53.8404 3.05889C53.8623 2.51171 54.1584 2.05572 54.6189 1.74994ZM58.0895 4.59315C56.8559 3.90112 56.6585 4.14789 57.777 1.55682C58.424 0.0601101 59.2629 0.843334 59.7508 1.11693C58.731 0.864792 58.1773 2.91405 57.936 3.58998C57.8044 3.93868 57.7386 4.35711 58.095 4.58779L58.0895 4.59315Z" fill="#C1E7C6"/>
<path fill-rule="evenodd" clip-rule="evenodd" d="M58.7201 0.832588C58.6707 0.832588 58.6214 0.837953 58.572 0.848682C58.3363 0.923786 58.1115 1.18128 57.9306 1.62118C57.0478 3.65434 56.9985 3.80991 57.6564 4.16934C57.6345 3.90647 57.7277 3.64897 57.7715 3.53632C57.799 3.46122 57.8264 3.37538 57.8593 3.27346C58.106 2.54388 58.5227 1.30467 59.23 0.998889C59.0655 0.902327 58.89 0.827224 58.7201 0.827224V0.832588ZM58.0841 4.75944C58.0567 4.75944 58.0292 4.74871 58.0018 4.73798C57.8757 4.66824 57.7661 4.60923 57.6674 4.55558C56.6147 3.99231 56.6092 3.826 57.618 1.49243C57.8483 0.955973 58.1334 0.644829 58.4733 0.542903C58.9229 0.403425 59.3451 0.671652 59.6521 0.87014C59.7179 0.907692 59.7782 0.945244 59.8276 0.977431C59.9044 1.02035 59.9318 1.10618 59.8989 1.18128C59.8715 1.25639 59.7892 1.2993 59.7015 1.27785C58.9449 1.09009 58.4295 2.64044 58.1828 3.38075C58.1444 3.48267 58.117 3.57387 58.0896 3.64897C57.8977 4.19079 58.0402 4.36782 58.1828 4.45902C58.2595 4.51267 58.2814 4.60923 58.2376 4.68433C58.2047 4.73798 58.1499 4.7648 58.095 4.7648L58.0841 4.75944ZM54.7012 1.88404C54.279 2.17909 54.0323 2.59752 54.0158 3.05887C53.9446 4.65751 53.9446 4.73798 54.4764 5.01693C54.3996 4.66287 54.4216 4.21225 54.449 3.76699L54.4654 3.4934C54.4819 3.03742 54.7834 2.38831 55.2495 2.08253C55.2988 2.05034 55.3536 2.01815 55.4085 1.99669C55.0576 1.78211 54.9863 1.76065 54.7067 1.87867L54.7012 1.88404ZM54.8602 5.58021C54.8328 5.58021 54.7999 5.57485 54.7725 5.55339C54.6354 5.47292 54.5093 5.41391 54.4051 5.36027C53.5937 4.94183 53.5991 4.83454 53.6759 3.04815C53.6978 2.47414 53.9994 1.96451 54.5203 1.60508C54.5312 1.60508 54.5422 1.59435 54.5477 1.58899C55.0192 1.37977 55.2001 1.49243 55.6442 1.75529C55.7539 1.81966 55.88 1.90013 56.0335 1.98597C56.1103 2.02888 56.1432 2.12008 56.1048 2.20055C56.0664 2.27565 55.9732 2.3132 55.891 2.28638C55.7429 2.22737 55.5839 2.25419 55.4304 2.35612C55.074 2.58679 54.8163 3.13398 54.7999 3.50413L54.7834 3.77772C54.756 4.33027 54.7122 5.08131 54.9644 5.2798C55.0302 5.33344 55.0466 5.43537 54.9918 5.50511C54.9589 5.55339 54.9095 5.57485 54.8547 5.57485L54.8602 5.58021ZM60.9899 2.76919L59.9044 4.09423C59.6138 4.46975 59.4931 4.78626 59.548 5.01693C59.5973 5.23152 59.7947 5.38709 60.0085 5.50511C59.9208 4.74871 60.809 3.78309 61.3354 3.20908C61.4066 3.12861 61.4724 3.05887 61.5218 2.99986C61.604 2.9033 61.785 2.69409 62.0372 2.58143C61.5766 2.3132 61.4395 2.29174 60.9954 2.76919H60.9899ZM60.3649 6.04693C60.3375 6.04693 60.3101 6.0362 60.2772 6.02547C60.2224 5.99328 60.162 5.96109 60.0963 5.92891C59.7673 5.76261 59.3177 5.5373 59.2135 5.09204C59.1313 4.75407 59.2684 4.35709 59.6302 3.89038L60.7268 2.55997V2.54924C61.4066 1.81966 61.763 2.03425 62.3497 2.38831C62.4484 2.44732 62.5635 2.51706 62.6896 2.58679C62.7664 2.63508 62.7938 2.73164 62.7554 2.81211C62.7115 2.89257 62.6129 2.9194 62.5306 2.88184C62.3771 2.80674 62.1523 2.77455 61.7685 3.20908C61.7192 3.26809 61.6534 3.3432 61.5766 3.42366C61.0448 4.0084 59.9373 5.22079 60.48 5.76261C60.5349 5.81625 60.5404 5.91281 60.491 5.97719C60.4581 6.0201 60.4088 6.04156 60.3594 6.04156L60.3649 6.04693ZM50.5397 5.50511C50.2985 5.84307 50.0518 6.31515 50.2656 6.67458C50.5836 7.19494 50.7371 7.39879 50.9948 7.59192L50.7755 7.29687C50.4794 6.81942 50.7481 6.06302 51.1538 5.63386C51.2854 5.48901 51.4334 5.38709 51.576 5.32808C51.1209 5.05985 50.9784 5.03839 50.5397 5.51047V5.50511ZM51.6363 8.33759C51.6089 8.33759 51.576 8.32686 51.5486 8.31613L51.4389 8.25176C50.6494 7.8065 50.5288 7.73676 49.9805 6.84088C49.7338 6.43854 49.8325 5.90745 50.2711 5.30662C50.2711 5.30126 50.2711 5.29589 50.2821 5.29053C50.9619 4.56095 51.3183 4.77553 51.905 5.12959C52.0091 5.1886 52.1188 5.25834 52.2504 5.32808C52.3326 5.37636 52.36 5.47292 52.3162 5.54802C52.2723 5.62849 52.1736 5.66068 52.0914 5.62313C51.8118 5.48901 51.5431 5.70896 51.406 5.84844C51.0551 6.21859 50.8852 6.82479 51.0606 7.10911L51.7679 8.064C51.8172 8.12837 51.8118 8.2142 51.7569 8.27321C51.724 8.31077 51.6747 8.32686 51.6308 8.32686L51.6363 8.33759ZM62.3552 6.21859C62.2345 6.28833 62.1084 6.35271 61.9714 6.42781C61.4944 6.67994 60.9571 6.96426 60.7213 7.27541C60.4581 7.6241 60.3485 7.91915 60.4088 8.14983C60.4636 8.36441 60.6555 8.51998 60.8693 8.638C60.8638 8.61654 60.8638 8.60045 60.8638 8.58436C60.8364 8.1391 61.1106 7.63483 61.3847 7.35051C61.4505 7.28077 62.3661 6.56729 63.0899 6.33661C62.7115 6.1113 62.6512 6.07911 62.3606 6.21323L62.3552 6.21859ZM61.2531 9.19591C61.3079 9.19591 61.3628 9.16909 61.3902 9.12081C61.4395 9.05107 61.4286 8.95451 61.3628 8.90087C61.2586 8.81503 61.1983 8.70238 61.1928 8.55753C61.1709 8.2303 61.4012 7.8065 61.626 7.57582C61.8178 7.38806 63.1611 6.47073 63.5504 6.61557C63.6326 6.64239 63.7259 6.61557 63.7642 6.52974C63.7971 6.44927 63.7697 6.35807 63.693 6.31515C63.534 6.22396 63.4133 6.15422 63.3037 6.08448C62.8596 5.81625 62.6732 5.7036 62.2071 5.91281C62.2071 5.91818 62.1962 5.91818 62.1907 5.92354C62.0701 5.98792 61.944 6.05766 61.8069 6.12739C61.3025 6.40099 60.7268 6.70677 60.4472 7.07156C60.1127 7.51145 59.9976 7.88697 60.0743 8.21957C60.1895 8.68092 60.65 8.90623 60.9845 9.07253C61.0557 9.10472 61.1161 9.13154 61.1709 9.16373C61.1928 9.17982 61.2257 9.19055 61.2531 9.19055V9.19591ZM48.3795 9.87721C48.1054 9.89867 47.8806 10.0489 47.6668 10.3493C47.4255 10.6926 47.3268 10.9769 47.3871 11.1969C47.442 11.4061 47.6284 11.551 47.8422 11.6743C47.8422 11.6368 47.8422 11.5939 47.8422 11.551C47.8422 11.0306 48.2644 10.3922 48.6427 10.1508C48.8565 10.0167 49.2074 9.98987 49.5364 10.0006C49.4048 9.95232 49.2787 9.94159 48.9936 9.92013C48.8401 9.9094 48.6427 9.89331 48.385 9.87185L48.3795 9.87721ZM48.2644 12.243C48.237 12.243 48.2096 12.243 48.1821 12.2269C48.1164 12.1893 48.0451 12.1518 47.9683 12.1142C47.6339 11.9533 47.1733 11.728 47.0582 11.2827C46.9759 10.9609 47.0801 10.5961 47.3871 10.1615C47.6613 9.76992 47.9848 9.57143 48.3686 9.54998C48.3795 9.54998 48.3905 9.54998 48.3905 9.54998C48.6592 9.57143 48.851 9.58216 49.0046 9.59289C49.5748 9.63581 49.5967 9.64117 50.1066 9.93086C50.2053 9.98987 50.3204 10.0542 50.4685 10.1401C50.5397 10.183 50.5672 10.2688 50.5397 10.3439C50.5069 10.419 50.4191 10.4619 50.3424 10.4405C49.9641 10.3439 49.1033 10.242 48.8182 10.4244C48.5221 10.6175 48.1712 11.1486 48.1712 11.5456C48.1712 11.7173 48.2315 11.846 48.3631 11.9265C48.4398 11.9801 48.4563 12.0767 48.4124 12.1571C48.385 12.2054 48.3247 12.2322 48.2699 12.2322L48.2644 12.243ZM60.639 10.9394C60.3101 10.9394 60.0853 11.0413 59.8276 11.4115C59.5809 11.7548 59.4877 12.0391 59.548 12.2591C59.6028 12.4683 59.7837 12.6131 60.003 12.7365C60.003 12.699 59.9921 12.656 59.9921 12.6131C59.9921 12.0928 60.4197 11.4598 60.798 11.213C61.0009 11.0842 61.3299 11.052 61.6424 11.0628L61.5821 11.0306C61.4341 11.0145 61.297 10.9984 61.1654 10.9823C60.9625 10.9609 60.7871 10.934 60.639 10.934V10.9394ZM60.4307 13.3052C60.4033 13.3052 60.3759 13.3052 60.3485 13.2891C60.2827 13.2515 60.2169 13.214 60.1401 13.1764C59.8002 13.0155 59.3451 12.7902 59.2245 12.3449C59.1422 12.023 59.2464 11.6582 59.5535 11.2237C60.0524 10.5156 60.5404 10.5746 61.2147 10.6604C61.3463 10.6765 61.4944 10.6926 61.6534 10.7087C61.6698 10.7087 61.6972 10.7194 61.7137 10.7302L62.6293 11.2076C62.7061 11.2505 62.739 11.3364 62.7061 11.4115C62.6786 11.4919 62.5909 11.5402 62.5087 11.5134C62.1304 11.4222 61.2696 11.3149 60.9845 11.4973C60.6829 11.6904 60.3375 12.2215 60.332 12.6239C60.332 12.7955 60.3978 12.9243 60.5239 13.0047C60.6007 13.053 60.6226 13.1549 60.5787 13.2301C60.5458 13.2783 60.491 13.3052 60.4362 13.3052H60.4307ZM47.0637 14.8501L46.647 15.2257C46.4057 15.5529 46.3016 15.848 46.3564 16.0786C46.4112 16.2986 46.6031 16.4488 46.8169 16.5668C46.8169 16.5507 46.8169 16.5292 46.8169 16.5078C46.784 16.0625 47.0637 15.5636 47.3378 15.2793C47.3981 15.2149 48.3137 14.5015 49.0375 14.2708C48.5495 13.9811 48.5111 13.9972 47.7271 14.4639C47.5461 14.5658 47.3378 14.6946 47.0746 14.8394L47.0637 14.8501ZM47.2007 17.1247C47.1733 17.1247 47.1459 17.1193 47.113 17.1033C47.0637 17.0764 47.0033 17.0496 46.9321 17.0121C46.6141 16.8511 46.1316 16.6204 46.0219 16.1591C45.9342 15.8211 46.0603 15.451 46.3893 15.0057L46.8498 14.5926C46.8498 14.5926 46.8663 14.5766 46.8772 14.5712C47.1459 14.421 47.3597 14.2976 47.5407 14.1903C48.4673 13.6431 48.5385 13.6056 49.2677 14.0347C49.3719 14.0991 49.498 14.1688 49.6406 14.2547C49.7173 14.2976 49.7447 14.3888 49.7064 14.4639C49.668 14.5444 49.5803 14.5819 49.498 14.5497C49.0978 14.3995 47.76 15.3222 47.5736 15.51C47.3433 15.746 47.1185 16.1698 47.1404 16.4917C47.1514 16.6365 47.2062 16.7438 47.3104 16.8297C47.3762 16.8833 47.3926 16.9852 47.3378 17.055C47.3049 17.1033 47.2501 17.1247 47.2007 17.1247ZM57.8922 17.2803L58.0018 17.35L57.7935 17.0711C57.5029 16.5883 57.7661 15.8372 58.1718 15.4027C58.3034 15.2579 58.4459 15.1559 58.594 15.0969C58.2047 14.8662 58.0292 14.818 57.6838 15.1452C56.8285 15.9445 57.2945 16.5239 57.7332 17.0872C57.7935 17.1569 57.8428 17.2266 57.8922 17.2856V17.2803ZM58.6488 18.1064C58.6214 18.1064 58.583 18.0957 58.5611 18.085L57.6783 17.5485C57.6783 17.5485 57.6454 17.5217 57.629 17.5002C57.5797 17.4305 57.5248 17.3608 57.4645 17.2856C57.0369 16.7331 56.3844 15.9016 57.4481 14.9038C58.0292 14.3566 58.424 14.598 58.9284 14.9038C59.0271 14.9682 59.1368 15.0325 59.2629 15.1023C59.3396 15.1452 59.367 15.2418 59.3232 15.3222C59.2793 15.4027 59.1806 15.4295 59.0984 15.392C58.8188 15.2579 58.5501 15.4778 58.4185 15.6226C58.0676 15.9982 57.8977 16.599 58.0731 16.8833L58.7913 17.8382C58.8407 17.9026 58.8352 17.9884 58.7749 18.0474C58.742 18.0796 58.6981 18.1011 58.6488 18.1011V18.1064ZM47.738 18.8896C47.4475 19.2974 47.3268 19.6192 47.3871 19.8445C47.4365 20.043 47.6229 20.1825 47.8367 20.3059C47.7545 19.5495 48.6427 18.5785 49.1691 18.0045C49.2403 17.924 49.3006 17.8543 49.3555 17.7953C49.4377 17.6987 49.6186 17.4949 49.8544 17.3822C49.2348 17.0389 49.1471 17.1515 48.1602 18.3693L47.7435 18.8843L47.738 18.8896ZM48.1986 20.8477C48.2479 20.8477 48.2973 20.8263 48.3302 20.7833C48.385 20.719 48.374 20.6224 48.3137 20.5688C47.7709 20.0216 48.8785 18.8092 49.4103 18.2298C49.4871 18.1493 49.5528 18.0796 49.6022 18.0152C49.9805 17.5807 50.2053 17.6129 50.3643 17.688C50.4465 17.7255 50.5452 17.6987 50.5891 17.6183C50.633 17.5378 50.6055 17.4412 50.5233 17.3983C50.4136 17.3339 50.315 17.2749 50.2217 17.2266C49.1581 16.6044 49.0649 16.7224 47.8806 18.1708L47.4639 18.6858H47.4584C47.102 19.1847 46.9705 19.587 47.0472 19.9196C47.1459 20.3327 47.5407 20.5312 47.8916 20.7082C47.9628 20.7458 48.0396 20.7833 48.1054 20.8209C48.1273 20.837 48.1602 20.8423 48.1876 20.8423L48.1986 20.8477ZM54.0158 20.3434C54.0433 20.6439 54.0981 20.6921 54.4709 20.8906C54.3996 20.5366 54.4216 20.0859 54.449 19.6407L54.4654 19.3671C54.4819 18.9165 54.7889 18.2566 55.2495 17.9616C55.2988 17.9294 55.3536 17.9026 55.4085 17.8758C55.1563 17.7255 54.9918 17.6504 54.8328 17.7041C53.9336 18.0045 53.9775 19.2705 54.0104 20.0323C54.0158 20.1503 54.0213 20.2576 54.0213 20.3488L54.0158 20.3434ZM54.8602 21.4485C54.8328 21.4485 54.7999 21.4432 54.7725 21.4324C54.6189 21.3412 54.4874 21.2715 54.3777 21.2125C53.9171 20.9765 53.7253 20.8745 53.6759 20.3703V20.3542C53.6759 20.263 53.6759 20.161 53.6649 20.043C53.632 19.1954 53.5772 17.7685 54.7176 17.3929C55.0631 17.2749 55.3756 17.468 55.732 17.6934C55.8306 17.747 55.9293 17.8114 56.0335 17.8704C56.1103 17.9133 56.1432 18.0045 56.1048 18.085C56.0664 18.1654 55.9732 18.1976 55.891 18.1654C55.7429 18.1118 55.5839 18.1332 55.4304 18.2352C55.074 18.4712 54.8163 19.013 54.7999 19.3832L54.7834 19.6621C54.756 20.2093 54.7122 20.9604 54.9644 21.1589C55.0302 21.2179 55.0466 21.3144 54.9918 21.3842C54.9589 21.4324 54.9095 21.4539 54.8547 21.4539L54.8602 21.4485ZM50.2821 20.9121C50.2985 20.8638 50.3259 20.7887 50.3588 20.6868C50.5343 20.1718 51.0003 18.7985 51.5705 18.541C51.6747 18.4927 51.7679 18.4927 51.8501 18.5249L52.1956 18.718C51.4938 19.0345 51.0825 20.263 50.8413 20.9818C50.8084 21.0784 50.7755 21.1696 50.7536 21.2447C50.7097 21.3627 50.6165 21.6202 50.6384 21.8831C50.1724 21.6309 50.0847 21.5236 50.2875 20.9067L50.2821 20.9121ZM51.0661 22.4732C51.0387 22.4732 51.0113 22.4678 50.9784 22.4517C50.8523 22.382 50.7371 22.323 50.633 22.2639C50.0244 21.9474 49.657 21.749 49.9641 20.8155V20.8048C49.9805 20.7619 50.0079 20.6868 50.0408 20.5956C50.3807 19.5924 50.8139 18.5302 51.428 18.2566C51.6199 18.1708 51.8063 18.1654 51.9982 18.2405L52.8096 18.6912C52.8809 18.7341 52.9083 18.8199 52.8809 18.895C52.848 18.9755 52.7603 19.013 52.6835 18.9916C51.9324 18.8038 51.4115 20.3542 51.1648 21.0945C51.1319 21.1964 51.099 21.2876 51.0771 21.3627C50.8797 21.9045 51.0222 22.0816 51.1648 22.1728C51.2415 22.2264 51.258 22.323 51.2141 22.3981C51.1812 22.4517 51.1264 22.4785 51.0716 22.4785L51.0661 22.4732Z" fill="#00902C"/>
<path fill-rule="evenodd" clip-rule="evenodd" d="M56.1761 4.05132C56.1761 4.53949 55.8306 5.12423 55.403 5.36027C54.9753 5.60167 54.6299 5.40855 54.6299 4.92574V3.49877C54.6299 3.01596 54.9753 2.43123 55.403 2.18982C55.8306 1.94842 56.1761 2.14154 56.1761 2.62972V4.05132Z" fill="white"/>
<path fill-rule="evenodd" clip-rule="evenodd" d="M55.7484 2.24885C55.6716 2.24885 55.5784 2.27567 55.4907 2.33468C55.1124 2.5439 54.7999 3.08035 54.7999 3.49879V4.92576C54.7999 5.09206 54.8547 5.22081 54.9424 5.26909C55.0356 5.32273 55.1727 5.30128 55.3207 5.22081C55.6991 5.00623 56.0116 4.47514 56.0116 4.05134V2.62973C56.0116 2.45807 55.9567 2.32932 55.869 2.28104C55.8361 2.25958 55.7977 2.25421 55.7484 2.25421V2.24885ZM55.0576 5.62851C54.9589 5.62851 54.8602 5.60706 54.7725 5.55341C54.5751 5.44075 54.4654 5.21544 54.4654 4.92576V3.49879C54.4654 2.95697 54.8437 2.31859 55.3207 2.045C55.5839 1.90015 55.8361 1.88406 56.0335 1.99135C56.2364 2.10401 56.346 2.32932 56.346 2.62437V4.04597C56.346 4.59316 55.9677 5.23154 55.4852 5.49976C55.3372 5.5856 55.1946 5.62851 55.0576 5.62851Z" fill="#00902C"/>
<path fill-rule="evenodd" clip-rule="evenodd" d="M61.7959 8.97597C61.3738 9.21201 61.0229 9.02425 61.0229 8.53608C61.0229 8.04791 61.3683 7.46853 61.7959 7.22713L63.0625 6.51365C63.4846 6.27224 63.8355 6.46536 63.8355 6.95354C63.8355 7.44171 63.4846 8.02108 63.0625 8.26249L61.7959 8.97597Z" fill="white"/>
<path fill-rule="evenodd" clip-rule="evenodd" d="M63.4024 6.57268C63.3256 6.57268 63.2379 6.5995 63.1392 6.65851L61.8836 7.36663C61.5053 7.58121 61.1928 8.1123 61.1928 8.5361C61.1928 8.7024 61.2476 8.83115 61.3354 8.87943C61.4286 8.93308 61.5656 8.91162 61.7192 8.83115L62.9802 8.11767C63.353 7.90845 63.671 7.37199 63.671 6.95356C63.671 6.78189 63.6162 6.65314 63.5285 6.60486C63.4956 6.58877 63.4572 6.57804 63.4079 6.57804L63.4024 6.57268ZM61.456 9.23886C61.3518 9.23886 61.2531 9.2174 61.1709 9.16912C60.9735 9.0511 60.8584 8.83115 60.8584 8.5361C60.8584 7.98892 61.2367 7.35054 61.7192 7.08231L62.9802 6.36882C63.2434 6.22398 63.4956 6.20789 63.693 6.32054C63.8958 6.4332 64.0055 6.65851 64.0055 6.95356C64.0055 7.49538 63.6217 8.13376 63.1447 8.40735L61.8891 9.11547C61.7411 9.2013 61.5931 9.24422 61.4615 9.24422L61.456 9.23886Z" fill="#00902C"/>
<path fill-rule="evenodd" clip-rule="evenodd" d="M54.6354 19.3671C54.6354 18.8843 54.9808 18.2996 55.4085 18.0582C55.8361 17.8168 56.1816 18.0099 56.1816 18.4981V19.9197C56.1816 20.4025 55.8361 20.9926 55.4085 21.234C54.9808 21.47 54.6354 21.2769 54.6354 20.7995V19.3725V19.3671Z" fill="white"/>
<path fill-rule="evenodd" clip-rule="evenodd" d="M55.7484 18.1172C55.6716 18.1172 55.5784 18.144 55.4852 18.203C55.1124 18.4122 54.7999 18.9487 54.7999 19.3671V20.7941C54.7999 20.9604 54.8547 21.0891 54.9424 21.1374C55.0356 21.1911 55.1727 21.1696 55.3207 21.0891C55.6991 20.8799 56.0116 20.3435 56.0116 19.9197V18.4981C56.0116 18.3318 55.9567 18.1976 55.869 18.1494C55.8361 18.1333 55.7977 18.1225 55.7484 18.1225V18.1172ZM55.0576 21.4968C54.9589 21.4968 54.8602 21.4754 54.7725 21.4271C54.5751 21.3091 54.4654 21.0891 54.4654 20.7941V19.3671C54.4654 18.8253 54.8437 18.1869 55.3207 17.9133C55.5839 17.7685 55.8361 17.7524 56.0335 17.865C56.2364 17.9777 56.346 18.203 56.346 18.4981V19.9197C56.346 20.4668 55.9677 21.1052 55.4852 21.3735C55.3372 21.4593 55.1946 21.4968 55.0576 21.4968Z" fill="#00902C"/>
<path fill-rule="evenodd" clip-rule="evenodd" d="M49.01 14.4478C49.4377 14.2064 49.7886 14.3995 49.7886 14.8824C49.7886 15.3652 49.4432 15.9553 49.01 16.1967L47.7545 16.9048C47.3268 17.1462 46.9814 16.9531 46.9814 16.4703C46.9814 15.9875 47.3268 15.3974 47.7545 15.156L49.01 14.4478Z" fill="white"/>
<path fill-rule="evenodd" clip-rule="evenodd" d="M49.3555 14.5068C49.2787 14.5068 49.191 14.5337 49.0923 14.5873L47.8313 15.3008C47.4529 15.51 47.1404 16.0465 47.1404 16.4703C47.1404 16.6366 47.1953 16.7653 47.283 16.8136C47.3762 16.8619 47.5133 16.8458 47.6613 16.7599L48.9223 16.0465C49.2952 15.8372 49.6077 15.3008 49.6077 14.877C49.6077 14.7107 49.5583 14.5819 49.4651 14.5337C49.4377 14.5122 49.3939 14.5068 49.35 14.5068H49.3555ZM47.4036 17.173C47.3049 17.173 47.2062 17.1515 47.1185 17.0979C46.9211 16.9852 46.8115 16.7599 46.8115 16.4703C46.8115 15.9231 47.1898 15.2847 47.6668 15.0165L48.9278 14.303C49.191 14.1528 49.4432 14.1367 49.6406 14.2493C49.838 14.362 49.9476 14.5873 49.9476 14.877C49.9476 15.4242 49.5693 16.0625 49.0923 16.3308L47.8313 17.0443C47.6777 17.1301 47.5352 17.1676 47.3981 17.1676L47.4036 17.173Z" fill="#00902C"/>
<path fill-rule="evenodd" clip-rule="evenodd" d="M52.8809 6.44928C53.0947 6.74433 52.9686 7.35053 52.5958 7.80115C52.2284 8.25177 51.7514 8.37516 51.5376 8.08011L50.9071 7.20569C50.6933 6.91064 50.8194 6.29908 51.1922 5.85382C51.5595 5.4032 52.0365 5.27981 52.2504 5.57486L52.8809 6.45465V6.44928Z" fill="white"/>
<path fill-rule="evenodd" clip-rule="evenodd" d="M51.9269 5.5695C51.7844 5.5695 51.5486 5.66606 51.3238 5.94502C50.9784 6.36882 50.9016 6.89454 51.0497 7.0984L51.6802 7.97282C51.724 8.03183 51.7789 8.05865 51.8556 8.06938C51.9817 8.06938 52.2394 7.97282 52.4697 7.69386C52.8151 7.27006 52.8919 6.74434 52.7438 6.53512L52.1133 5.6607C52.0695 5.60169 52.0146 5.5695 51.9379 5.5695H51.9269ZM51.8611 8.40198H51.8447C51.6637 8.39125 51.5047 8.31078 51.4006 8.16594L50.77 7.29152C50.5124 6.93209 50.6385 6.24543 51.0606 5.74117C51.3293 5.41929 51.6583 5.23153 51.9488 5.2369C52.1298 5.24763 52.2833 5.3281 52.3929 5.46757L53.0235 6.34199C53.2812 6.70142 53.1551 7.38808 52.7329 7.89235C52.4752 8.20886 52.1517 8.39662 51.8666 8.39662L51.8611 8.40198Z" fill="#00902C"/>
<path fill-rule="evenodd" clip-rule="evenodd" d="M50.2546 10.2527C50.6275 10.2849 50.7536 10.7463 50.5398 11.2881C50.3259 11.8245 49.8544 12.2376 49.4816 12.2001L48.3905 12.1089C48.0177 12.0767 47.897 11.61 48.1054 11.0735C48.3192 10.5317 48.7962 10.124 49.1636 10.1562L50.2546 10.2527Z" fill="white"/>
<path fill-rule="evenodd" clip-rule="evenodd" d="M49.1252 10.3171C48.862 10.3171 48.4563 10.6444 48.2644 11.1325C48.1328 11.4705 48.1657 11.7173 48.2425 11.8353C48.2808 11.8997 48.3357 11.9319 48.4069 11.9372L49.498 12.0338C49.7502 12.0552 50.1834 11.728 50.3862 11.2237C50.5178 10.8858 50.4849 10.6336 50.4136 10.5156C50.3698 10.4512 50.315 10.419 50.2437 10.4137L49.1526 10.3171C49.1526 10.3171 49.1362 10.3171 49.1307 10.3171H49.1252ZM49.5199 12.3717C49.5199 12.3717 49.4871 12.3717 49.4706 12.3664L48.3795 12.2752C48.1986 12.2591 48.0506 12.1679 47.9519 12.0177C47.7984 11.7763 47.7984 11.4008 47.9519 11.0145C48.1931 10.403 48.7359 9.9577 49.18 9.99525L50.2711 10.0864C50.452 10.1025 50.6055 10.1937 50.6987 10.3493C50.8523 10.5854 50.8523 10.9662 50.6987 11.3471C50.463 11.9372 49.9586 12.3717 49.5199 12.3717Z" fill="#00902C"/>
<path fill-rule="evenodd" clip-rule="evenodd" d="M49.4816 17.9079C49.8544 17.4627 50.3259 17.3339 50.5398 17.6344C50.7536 17.9348 50.6275 18.541 50.2546 18.9862L49.1636 20.3166C48.7962 20.7672 48.3192 20.896 48.1054 20.5956C47.897 20.2952 48.0177 19.689 48.3905 19.2383L49.4816 17.9079Z" fill="white"/>
<path fill-rule="evenodd" clip-rule="evenodd" d="M50.2163 17.6343C50.0737 17.6343 49.8434 17.7309 49.6132 18.0099L48.5221 19.3403C48.1767 19.7587 48.0944 20.2844 48.2425 20.4936C48.2863 20.5527 48.3411 20.5848 48.4179 20.5848C48.5605 20.5848 48.7962 20.4936 49.032 20.2093L50.1231 18.8789C50.4685 18.4551 50.5452 17.9348 50.3972 17.7255C50.3533 17.6719 50.2985 17.6343 50.2217 17.6343H50.2108H50.2163ZM48.4289 20.9174H48.4124C48.2315 20.9174 48.0725 20.8262 47.9683 20.6868C47.7106 20.3273 47.8367 19.6461 48.2589 19.1364L49.35 17.806C49.6186 17.4841 49.9421 17.2964 50.2382 17.3071C50.4191 17.3071 50.5781 17.3929 50.6823 17.5378C50.94 17.8972 50.8139 18.5785 50.3917 19.0881L49.3006 20.4185C49.0429 20.7297 48.7195 20.9174 48.4344 20.9174H48.4289Z" fill="#00902C"/>
<path fill-rule="evenodd" clip-rule="evenodd" d="M51.5376 19.7104C51.7514 19.1686 52.2284 18.7609 52.5958 18.7931C52.9686 18.8253 53.0947 19.2866 52.8809 19.8285L52.2504 21.4164C52.0365 21.9528 51.5595 22.3605 51.1922 22.3283C50.8194 22.2962 50.6933 21.8348 50.9071 21.2983L51.5376 19.7104Z" fill="white"/>
<path fill-rule="evenodd" clip-rule="evenodd" d="M51.6911 19.7748L51.0606 21.3627C50.929 21.7007 50.9619 21.9528 51.0387 22.0708C51.0771 22.1352 51.1264 22.1674 51.2032 22.1728C51.4718 22.1996 51.883 21.867 52.0914 21.3627L52.7219 19.7748C52.8535 19.4368 52.8206 19.1847 52.7493 19.0667C52.7054 19.0023 52.6506 18.9701 52.5793 18.9648C52.3271 18.9487 51.8995 19.2705 51.6911 19.7802V19.7748ZM51.2306 22.5054H51.1812C51.0003 22.4839 50.8468 22.3981 50.7536 22.2425C50.6 22.0065 50.6 21.6309 50.7536 21.2447L51.3841 19.6568C51.6253 19.0452 52.1681 18.5946 52.6122 18.6375C52.7932 18.6536 52.9467 18.7448 53.0399 18.895C53.1934 19.1364 53.1934 19.512 53.0399 19.8982L52.4094 21.4861C52.1736 22.0762 51.6637 22.5054 51.2306 22.5054Z" fill="#00902C"/>
<path fill-rule="evenodd" clip-rule="evenodd" d="M57.9305 16.9745C57.7167 16.6741 57.8428 16.0733 58.2102 15.6173C58.583 15.172 59.0545 15.0433 59.2683 15.3437L59.8989 16.2181C60.1127 16.5185 59.9921 17.1247 59.6192 17.5754C59.2464 18.026 58.7749 18.1494 58.5611 17.8489L57.9305 16.9745Z" fill="white"/>
<path fill-rule="evenodd" clip-rule="evenodd" d="M58.9449 15.3491C58.8023 15.3491 58.572 15.4456 58.3418 15.7246C57.9964 16.143 57.9196 16.6741 58.0676 16.878L58.6981 17.7577C58.742 17.8114 58.7968 17.8436 58.8736 17.8436H58.8846C59.0271 17.8436 59.2574 17.747 59.4822 17.4681C59.8276 17.0496 59.9098 16.5239 59.7618 16.3147L59.1313 15.4349C59.0874 15.3759 59.0326 15.3437 58.9558 15.3437H58.9449V15.3491ZM58.8846 18.1762H58.8681C58.6872 18.1762 58.5282 18.085 58.424 17.9455L57.799 17.0711C57.5413 16.7117 57.6674 16.0304 58.0896 15.5154C58.3527 15.1935 58.6707 15.0057 58.9778 15.0165C59.1587 15.0165 59.3122 15.1077 59.4164 15.2471L60.0469 16.1216C60.3046 16.481 60.1785 17.1623 59.7618 17.6773C59.4986 17.9884 59.1806 18.1762 58.8955 18.1762H58.8846Z" fill="#00902C"/>
<path fill-rule="evenodd" clip-rule="evenodd" d="M60.5513 13.1711C60.184 13.1389 60.0579 12.6722 60.2717 12.1357C60.4855 11.5939 60.957 11.1862 61.3299 11.2184L62.4209 11.3149C62.7883 11.3471 62.9144 11.8085 62.7006 12.3449C62.4867 12.8867 62.0152 13.2944 61.6424 13.2623L60.5513 13.1657V13.1711Z" fill="white"/>
<path fill-rule="evenodd" clip-rule="evenodd" d="M60.5733 13.0047L61.6643 13.1013C61.933 13.1228 62.3442 12.7955 62.5471 12.2913C62.6787 11.9533 62.6512 11.7012 62.5745 11.5831C62.5361 11.5241 62.4758 11.4866 62.41 11.4812L61.3189 11.39C61.0612 11.3739 60.6336 11.6958 60.4307 12.2001C60.2991 12.538 60.3265 12.7902 60.4033 12.9028C60.4417 12.9672 60.4965 12.9994 60.5733 13.0047ZM61.6863 13.4339C61.6863 13.4339 61.6479 13.4339 61.6314 13.4339L60.5404 13.3373C60.3649 13.3266 60.2114 13.2301 60.1182 13.0798C59.9647 12.8384 59.9647 12.4629 60.1182 12.0767C60.3594 11.4651 60.9022 11.0199 61.3463 11.0574L62.4374 11.1486C62.6129 11.1701 62.7664 11.2559 62.8596 11.4115C63.0131 11.6529 63.0131 12.0284 62.8596 12.4093C62.6293 12.994 62.1194 13.4339 61.6863 13.4339Z" fill="#00902C"/>
<path fill-rule="evenodd" clip-rule="evenodd" d="M61.3299 5.51048C60.957 5.9611 60.4855 6.08449 60.2717 5.78407C60.0579 5.48902 60.184 4.88283 60.5513 4.43221L61.6424 3.1018C62.0152 2.65118 62.4867 2.52779 62.7006 2.82821C62.9144 3.12326 62.7828 3.72945 62.4209 4.18007L61.3299 5.51048Z" fill="white"/>
<path fill-rule="evenodd" clip-rule="evenodd" d="M62.3771 2.82822C62.2346 2.82822 62.0043 2.93015 61.7795 3.20374L60.6884 4.53415C60.343 4.95795 60.2662 5.48367 60.4143 5.68753C60.4581 5.74654 60.513 5.77336 60.5897 5.78409C60.7103 5.79482 60.968 5.68753 61.1983 5.40857L62.2894 4.07816C62.6348 3.65436 62.7116 3.12864 62.5635 2.92478C62.5197 2.86577 62.4648 2.83895 62.3881 2.82822H62.3771ZM60.5952 6.11669H60.5733C60.3923 6.10596 60.2388 6.03086 60.1346 5.88065C59.877 5.52122 60.0085 4.83993 60.4252 4.3303L61.5163 2.99989C61.7795 2.67802 62.1085 2.49026 62.4045 2.50099C62.5855 2.50099 62.739 2.58682 62.8431 2.73166C63.1008 3.09109 62.9747 3.77775 62.5526 4.28201L61.4615 5.61242C61.2038 5.92893 60.8803 6.11669 60.5952 6.11669Z" fill="#00902C"/>
<path fill-rule="evenodd" clip-rule="evenodd" d="M59.2683 3.70799C59.0545 4.24445 58.583 4.65215 58.2102 4.61996C57.8428 4.58778 57.7167 4.12643 57.9305 3.58997L58.5611 2.00207C58.7749 1.46025 59.2464 1.05254 59.6192 1.08473C59.9921 1.11692 60.1127 1.57827 59.8989 2.12009L59.2683 3.70799Z" fill="white"/>
<path fill-rule="evenodd" clip-rule="evenodd" d="M59.5754 1.24568C59.3177 1.24568 58.912 1.56755 58.7201 2.06109L58.0895 3.64899C57.958 3.98696 57.9854 4.23373 58.0621 4.35711C58.1005 4.41612 58.1608 4.45367 58.2321 4.45904C58.4843 4.4805 58.9174 4.15862 59.1203 3.64899L59.7508 2.06109C59.8879 1.72312 59.855 1.47099 59.7782 1.35297C59.7399 1.29396 59.6796 1.2564 59.6083 1.25104H59.5809L59.5754 1.24568ZM58.254 4.79164H58.1992C58.0237 4.77555 57.8702 4.68435 57.7715 4.52878C57.618 4.29274 57.618 3.91185 57.7715 3.53097L58.4021 1.94307C58.6433 1.32614 59.1806 0.880887 59.6302 0.918438C59.8111 0.934532 59.9592 1.02573 60.0524 1.17594C60.2114 1.41734 60.2114 1.79286 60.0524 2.17911L59.4219 3.76701C59.1916 4.35711 58.6817 4.79164 58.2485 4.79164H58.254Z" fill="#00902C"/>
<path fill-rule="evenodd" clip-rule="evenodd" d="M55.9732 6.12742C56.6805 5.73045 57.3549 5.50513 57.9689 5.44612C58.6104 5.38711 59.1861 5.49441 59.6631 5.77336C60.1456 6.04159 60.5294 6.47075 60.7926 7.04476C61.0503 7.59731 61.1873 8.2786 61.1873 9.07792C61.1873 9.87724 61.0503 10.7195 60.7926 11.5563C60.5294 12.4254 60.1456 13.2945 59.6631 14.1099C58.7146 15.7085 57.4097 17.1086 55.9677 17.9241C55.2604 18.321 54.5861 18.5463 53.972 18.6054C53.336 18.6644 52.7548 18.5517 52.2778 18.2781C51.7953 18.0045 51.4115 17.5754 51.1429 17.0067C50.8907 16.4542 50.7481 15.7729 50.7481 14.9736C50.7481 14.1742 50.8907 13.332 51.1429 12.4951C51.406 11.6207 51.7953 10.757 52.2778 9.94161C52.7603 9.1262 53.336 8.36444 53.972 7.7046C54.5861 7.07158 55.2604 6.52976 55.9677 6.12742H55.9732Z" fill="white"/>
<path fill-rule="evenodd" clip-rule="evenodd" d="M58.3089 5.59631C58.2047 5.59631 58.095 5.59631 57.9854 5.61241C57.3768 5.67142 56.7298 5.89136 56.0609 6.27225C55.3865 6.65313 54.7231 7.17349 54.1036 7.81724C53.4785 8.46635 52.9138 9.21202 52.4313 10.0274C51.9488 10.8428 51.576 11.6904 51.3128 12.5488C51.0551 13.3964 50.929 14.2171 50.929 14.9789C50.929 15.7407 51.0551 16.3951 51.3073 16.9423C51.5596 17.4841 51.9159 17.8865 52.3765 18.144C52.8316 18.4015 53.3744 18.5034 53.9665 18.4444C54.5751 18.3854 55.2275 18.1654 55.8964 17.7846C57.2617 17.0121 58.5556 15.6763 59.526 14.0294C60.0085 13.214 60.3868 12.3664 60.6445 11.508C60.9077 10.6604 61.0338 9.84503 61.0338 9.0779C61.0338 8.31077 60.9022 7.66166 60.6555 7.11448C60.4088 6.57266 60.0469 6.17032 59.5918 5.91282C59.2135 5.7036 58.7914 5.59631 58.3198 5.59631H58.3089ZM53.6375 18.7931C53.1057 18.7931 52.6232 18.6697 52.1956 18.4283C51.6747 18.1386 51.269 17.6826 50.9948 17.0764C50.7207 16.4863 50.5836 15.7836 50.5836 14.9789C50.5836 14.1742 50.7152 13.3266 50.9839 12.4522C51.2525 11.5724 51.6418 10.698 52.1352 9.86113C52.6287 9.02426 53.2099 8.26249 53.8568 7.59729C54.5038 6.93209 55.1892 6.39027 55.891 5.99329C56.5982 5.59095 57.2946 5.35491 57.9525 5.29053C58.6269 5.22616 59.23 5.33882 59.7508 5.63387C60.2717 5.92892 60.672 6.37954 60.9571 6.98573C61.2312 7.57047 61.3683 8.27859 61.3683 9.08327C61.3683 9.88795 61.2312 10.7302 60.9625 11.61C60.6994 12.4898 60.3101 13.3642 59.8166 14.1957C58.8133 15.8962 57.481 17.2696 56.0664 18.0689C55.3482 18.4712 54.6573 18.7073 53.9994 18.7716C53.8788 18.7824 53.7636 18.7877 53.6485 18.7877L53.6375 18.7931Z" fill="#00902C"/>
</g>
</g>
<defs>
<clipPath id="clip0_339_562">
<rect width="64" height="64" fill="white" transform="translate(0 0.5)"/>
</clipPath>
<clipPath id="clip1_339_562">
<rect width="36" height="54" fill="white" transform="translate(5 5.5)"/>
</clipPath>
<clipPath id="clip2_339_562">
<rect width="18" height="22" fill="white" transform="translate(46 0.5)"/>
</clipPath>
</defs>
</svg>
