<svg width="18" height="18" viewBox="0 0 18 18" fill="none" xmlns="http://www.w3.org/2000/svg">
<g clip-path="url(#clip0_2165_45721)">
<path d="M1.3875 18L2.12162 13.9805C0.751744 12.449 0 10.5123 0 8.49959C0 7.3482 0.239325 6.23151 0.712101 5.17976C1.16726 4.16713 1.81843 3.25783 2.64799 2.47769C3.47461 1.69977 4.43705 1.08939 5.5074 0.663523C6.61446 0.223635 7.78906 0 9.00037 0C10.2117 0 11.3863 0.223635 12.4933 0.663523C13.5644 1.08939 14.5261 1.69977 15.3527 2.47769C16.1816 3.25783 16.8327 4.16639 17.2886 5.17976C17.7614 6.23077 18.0007 7.3482 18.0007 8.49959C18.0007 9.65098 17.7614 10.7677 17.2886 11.8194C16.8335 12.832 16.1823 13.7413 15.3527 14.5215C14.5261 15.2994 13.5637 15.9098 12.4933 16.3357C11.3863 16.7763 10.2117 16.9992 9.00037 16.9992C7.70757 16.9992 6.4625 16.7468 5.29597 16.2478L1.3875 18ZM9.00037 0.998606C4.58534 0.998606 0.993271 4.36346 0.993271 8.49959C0.993271 10.3381 1.71124 12.1073 3.01432 13.4808L3.18904 13.6653L2.70451 16.3165L5.29524 15.1547L5.49859 15.2477C6.59391 15.7474 7.77144 16.0013 8.9989 16.0013C13.4139 16.0013 17.0053 12.6365 17.0053 8.50033C17.0053 4.36419 13.4147 0.998606 9.00037 0.998606Z" fill="#00B140"/>
<path d="M13.4807 10.598C13.2275 10.4208 12.9191 10.3382 12.6453 10.1935C12.2614 10.0046 11.9839 9.88353 11.7827 9.80678C11.655 9.75954 11.3635 9.6289 11.2593 9.7123C10.9355 9.98022 10.592 10.7286 10.2264 10.8703C9.31678 10.6902 8.47474 10.0621 7.81476 9.42224C7.51891 9.13809 6.98153 8.34688 6.86113 8.13062C6.84204 7.9092 7.2348 7.61471 7.32143 7.44717C7.77805 6.92905 7.43154 6.60947 7.37208 6.391C7.27077 6.1681 7.09165 5.77397 6.93895 5.44406C6.80901 5.22854 6.77964 4.91486 6.53958 4.79382C5.5375 4.27496 4.96709 5.31047 4.7307 5.85073C3.31531 9.27906 11.8319 15.8139 13.5637 11.3154C13.651 10.922 13.6173 10.7781 13.48 10.5972L13.4807 10.598Z" fill="#00B140"/>
</g>
<defs>
<clipPath id="clip0_2165_45721">
<rect width="18" height="18" fill="white"/>
</clipPath>
</defs>
</svg>
