<svg width="32" height="32" viewBox="0 0 32 32" fill="none" xmlns="http://www.w3.org/2000/svg">
<path d="M25.3974 11.5795C25.2824 11.1693 25.0585 10.798 24.7493 10.5049C24.4314 10.2029 24.0418 9.9868 23.6172 9.87711C22.0283 9.4583 15.6622 9.4583 15.6622 9.4583C13.0083 9.4281 10.3551 9.56091 7.71742 9.85596C7.29284 9.97375 6.90396 10.1946 6.58535 10.499C6.27229 10.8002 6.04554 11.1716 5.92709 11.5786C5.64254 13.1115 5.50429 14.668 5.51419 16.227C5.50404 17.7847 5.64195 19.3407 5.92709 20.8755C6.043 21.2808 6.26891 21.6505 6.58281 21.9492C6.89671 22.2479 7.28761 22.4636 7.71742 22.5778C9.32754 22.9958 15.6622 22.9958 15.6622 22.9958C18.3195 23.026 20.9762 22.8932 23.6172 22.5981C24.0418 22.4885 24.4314 22.2724 24.7493 21.9703C25.0623 21.6717 25.2849 21.3002 25.3966 20.8958C25.6885 19.3635 25.8305 17.8064 25.8204 16.2465C25.8424 14.6801 25.7006 13.1156 25.3974 11.5786V11.5795ZM13.6384 19.1241V13.3309L18.9349 16.2279L13.6384 19.1241Z" fill="#1A6638"/>
</svg>
