<svg width="64" height="65" viewBox="0 0 64 65" fill="none" xmlns="http://www.w3.org/2000/svg">
<g clip-path="url(#clip0_3764_113867)">
<g clip-path="url(#clip1_3764_113867)">
<path fill-rule="evenodd" clip-rule="evenodd" d="M35.5023 36.9967C35.8258 36.8205 36.0871 36.7324 36.4479 36.8897H36.479V36.9023L43.7512 41.1428C43.4588 40.9666 43.0669 41.0988 42.7745 41.2498C37.0389 44.5968 31.3033 47.9565 25.5303 51.3162C25.0078 51.6685 24.6843 52.1026 24.423 52.694C24.1928 53.2602 24.0622 54.0718 24.2924 54.6821C24.3919 54.8457 24.423 54.9149 24.5848 55.0219L17.4432 50.8569C17.182 50.7059 17.0824 50.6493 16.9518 50.3095C16.79 49.6992 16.8834 49.0198 17.1135 48.4409C17.4059 47.8495 17.6983 47.4217 18.2519 47.0631C24.0187 43.716 29.7605 40.3564 35.4961 37.003L35.5023 36.9967Z" fill="#C1E7C6"/>
<path fill-rule="evenodd" clip-rule="evenodd" d="M35.6952 37.3364L18.451 47.3966C18.028 47.6671 17.7357 48.0194 17.4744 48.5982C17.2442 49.133 17.2131 49.7244 17.3126 50.2152C17.379 50.3242 17.4868 50.4228 17.6361 50.5109L23.7636 54.1096C23.7325 53.5308 23.8632 52.9583 24.056 52.5367C24.3795 51.7943 24.7714 51.3539 25.3251 50.9827L42.5692 40.91L36.28 37.2358C36.1182 37.1603 35.9876 37.1792 35.6952 37.3364ZM24.5786 55.4057C24.5101 55.4057 24.4479 55.3931 24.3857 55.3553L17.2442 51.1966C16.9518 51.0205 16.7528 50.9009 16.591 50.4542C16.4293 49.7685 16.4915 49.0135 16.7528 48.3025C17.1136 47.5601 17.4682 47.1072 18.0591 46.7485L35.3033 36.6633H35.3344C35.6579 36.4808 36.0809 36.3109 36.6035 36.5437C36.6242 36.5521 36.6574 36.5668 36.703 36.5878L43.9067 40.7968C43.9067 40.7968 43.9378 40.8094 43.9378 40.8219C44.0996 40.9289 44.168 41.168 44.0685 41.3441C43.9689 41.5266 43.7077 41.5958 43.5459 41.4888V41.4763C43.4153 41.4196 43.2224 41.4511 42.9612 41.5958L25.717 51.6559C25.294 51.9265 25.0327 52.2662 24.7403 52.8576C24.5475 53.3295 24.4479 54.053 24.6408 54.5437C24.6719 54.6255 24.6719 54.6318 24.8025 54.7073C24.9643 54.8143 24.9954 55.0533 24.9021 55.2295C24.8336 55.3364 24.7092 55.4057 24.5786 55.4057Z" fill="#00902C"/>
<path fill-rule="evenodd" clip-rule="evenodd" d="M24.9083 51.8698C24.6781 52.1403 24.4853 52.5115 24.3546 52.8513C24.1245 53.4553 23.9627 54.594 24.5848 55.0156L17.35 50.8065C17.1198 50.6618 17.0576 50.5549 16.958 50.3032C16.8585 49.8943 16.8896 49.3721 16.958 48.9568C17.0887 48.4221 17.2815 48.0634 17.6112 47.6356L24.9145 51.8698H24.9083Z" fill="#6AC97B"/>
<path fill-rule="evenodd" clip-rule="evenodd" d="M17.7355 48.1515C17.5427 48.4221 17.4121 48.6989 17.3125 49.0575C17.2441 49.4539 17.2441 49.9006 17.3436 50.2152C17.3747 50.3599 17.4121 50.3913 17.5365 50.4668L23.7635 54.097C23.7324 53.6063 23.8631 53.0841 23.9564 52.7318C24.0559 52.5116 24.1866 52.241 24.3483 51.9894L17.7293 48.1515H17.7355ZM24.5785 55.3994C24.51 55.3994 24.4478 55.3868 24.3856 55.349L17.1819 51.1337C16.8211 50.9513 16.7278 50.7499 16.5971 50.4417C16.4665 49.9824 16.4665 49.4161 16.566 48.8814C16.7278 48.2774 16.9579 47.8684 17.3188 47.3966C17.4494 47.2393 17.6422 47.2015 17.8102 47.2959L25.1135 51.5301C25.213 51.5804 25.2752 51.6811 25.3063 51.8069C25.3063 51.9139 25.2752 52.0334 25.2068 52.1215C25.045 52.3291 24.846 52.6374 24.6842 53.0086C24.5225 53.5308 24.423 54.4368 24.8149 54.701C24.9766 54.808 25.0077 55.047 24.9144 55.2232C24.846 55.3301 24.7216 55.3994 24.5909 55.3994H24.5785Z" fill="#00902C"/>
<path fill-rule="evenodd" clip-rule="evenodd" d="M42.7746 41.2498C43.5584 40.8031 44.1432 41.1617 44.1432 42.0488V42.4577C44.1432 43.3448 43.5584 44.4144 42.7746 44.8674L25.5304 54.9275C25.0763 55.198 24.6844 55.1666 24.4231 54.896C24.0312 54.4934 24.0996 53.3106 24.5227 52.4801C24.7528 52.0019 25.1447 51.5615 25.5304 51.3225C41.1136 42.2312 26.9675 50.4794 42.7746 41.2561V41.2498Z" fill="white"/>
<path fill-rule="evenodd" clip-rule="evenodd" d="M42.9672 41.5769L25.7231 51.6496C25.3996 51.8383 25.0699 52.2095 24.8397 52.6562C24.4478 53.4112 24.4789 54.3864 24.7091 54.6255C24.9019 54.8331 25.2627 54.6443 25.3622 54.5814L42.6064 44.5213C43.2285 44.1501 43.7822 43.2001 43.7822 42.4577V42.0487C43.7822 41.7656 43.7199 41.5706 43.552 41.4825C43.4213 41.407 43.2285 41.4511 42.9672 41.5832V41.5769ZM24.9392 55.5C24.6157 55.5 24.3545 55.3805 24.1243 55.1603C23.5706 54.5626 23.7013 53.1721 24.1554 52.2976C24.4478 51.7314 24.9019 51.2469 25.3622 50.9764L42.6064 40.9163C43.0605 40.6269 43.5831 40.5954 43.9439 40.8156C44.3358 41.0358 44.5287 41.4825 44.5287 42.0487V42.4577C44.5287 43.4769 43.8444 44.6912 42.9672 45.1945L25.7231 55.2672C25.4618 55.4245 25.2005 55.5063 24.9392 55.5063V55.5Z" fill="#00902C"/>
<path fill-rule="evenodd" clip-rule="evenodd" d="M27.7759 42.2689L26.2456 41.3818V45.8803L27.7759 46.7737V42.2689Z" fill="#6AC97B"/>
<path fill-rule="evenodd" clip-rule="evenodd" d="M26.6004 45.6475L27.3842 46.0942V42.4955L26.6004 42.0425V45.6412V45.6475ZM27.7761 47.1575C27.6766 47.1575 27.6455 47.1449 27.5833 47.1009L26.053 46.2201C25.9223 46.1383 25.8601 46.025 25.8601 45.8803V41.3819C25.8601 41.2372 25.9223 41.1051 26.053 41.0421C26.1525 40.9729 26.3142 40.9729 26.4449 41.0421L27.9441 41.9355C28.0747 42.0047 28.1369 42.1306 28.1369 42.2627V46.7674C28.1369 46.8932 28.0747 47.0254 27.9441 47.0946C27.913 47.1386 27.8446 47.1512 27.7823 47.1512L27.7761 47.1575Z" fill="#00902C"/>
<path fill-rule="evenodd" clip-rule="evenodd" d="M35.011 38.0348L27.7761 42.269V46.7737L35.011 42.5332V38.0348Z" fill="white"/>
<path fill-rule="evenodd" clip-rule="evenodd" d="M28.1368 42.5017V46.1005L34.6251 42.313V38.7142L28.1368 42.5017ZM27.7759 47.1574C27.6764 47.1574 27.6453 47.1323 27.5831 47.1008C27.4525 47.0316 27.384 46.9058 27.384 46.7737V42.2689C27.384 42.1368 27.4525 42.0047 27.5831 41.9418L34.8179 37.7013C34.9486 37.6384 35.0792 37.6384 35.2098 37.7013C35.3405 37.7831 35.4027 37.9089 35.4027 38.041V42.5395C35.4027 42.6779 35.3405 42.81 35.2098 42.8729L27.9439 47.1071C27.9128 47.1386 27.8444 47.1637 27.7822 47.1637L27.7759 47.1574Z" fill="#00902C"/>
<path fill-rule="evenodd" clip-rule="evenodd" d="M15.7822 48.6549L12.846 46.9624C12.3545 46.6667 12.4541 46.3081 12.3918 45.7356V22.0481C12.4914 20.8149 12.9144 19.7705 13.9595 19.0282L42.9984 2.06625C43.4525 1.85863 43.6516 1.80201 44.1057 2.04108L47.0046 3.7335C46.5505 3.49442 46.3825 3.55734 45.9284 3.77125L16.8584 20.7206C15.8506 21.4567 15.3903 22.4507 15.3281 23.7405V47.4406C15.3592 48.0005 15.3965 48.2396 15.7822 48.6549Z" fill="#6AC97B"/>
<path fill-rule="evenodd" clip-rule="evenodd" d="M43.6205 2.2736C43.4899 2.2736 43.3904 2.31764 43.1664 2.42459L14.1524 19.355C13.3064 19.9653 12.8834 20.8335 12.7838 22.0667V45.987C12.8149 46.4022 12.8149 46.4903 13.0451 46.6224L14.9673 47.7423C14.9362 47.6542 14.9362 47.5662 14.9362 47.4781V23.7402C15.0358 22.2303 15.5894 21.1796 16.6345 20.4057L45.7356 3.43124L43.9129 2.38055C43.7823 2.30506 43.6827 2.2736 43.6205 2.2736ZM15.7823 49.051C15.7138 49.051 15.6516 49.0258 15.5894 48.9943L12.6532 47.3019C12.0684 46.9496 12.0311 46.4588 12.0311 46.0247L12 45.7731V22.0478C12.1306 20.5504 12.6843 19.4683 13.7294 18.7133L42.8056 1.73882C43.3593 1.48716 43.6516 1.3802 44.2737 1.70736L47.21 3.41236C47.409 3.51303 47.4712 3.7521 47.3717 3.92826C47.2411 4.11072 47.0109 4.18622 46.8491 4.09184C46.5257 3.92826 46.4883 3.93456 46.0653 4.1233L17.0513 21.06C16.2364 21.6766 15.7823 22.5134 15.6827 23.7717V47.4403C15.7449 47.9436 15.7449 48.0758 16.0435 48.3903C16.1742 48.5225 16.2053 48.7427 16.0747 48.8937C16.0124 48.9943 15.8818 49.051 15.7823 49.051Z" fill="#00902C"/>
<path fill-rule="evenodd" clip-rule="evenodd" d="M16.8585 20.7205L45.9347 3.77121C46.7807 3.26789 47.465 3.80266 47.465 4.9603V28.6667C47.465 29.8243 46.7807 31.1833 45.9347 31.674L16.8585 48.6359C16.0124 49.1393 15.3281 48.6045 15.3281 47.4405V23.7404C15.3281 22.5828 16.0124 21.2238 16.8585 20.7205Z" fill="#6AC97B"/>
<path fill-rule="evenodd" clip-rule="evenodd" d="M46.5194 3.96628C46.3887 3.96628 46.227 4.03549 46.0963 4.0984L17.0512 21.0603C16.3358 21.5007 15.6827 22.7276 15.6827 23.7405V47.4406C15.6827 47.8999 15.8133 48.2522 16.0435 48.3843C16.2363 48.5038 16.4976 48.4032 16.6655 48.2962L45.7418 31.3469C46.4571 30.9065 47.1103 29.6797 47.1103 28.6667V4.96034C47.1103 4.50106 46.9797 4.15503 46.7495 4.02291C46.6811 3.97887 46.5878 3.96628 46.5194 3.96628ZM16.2674 49.2148C16.0372 49.2148 15.8444 49.1645 15.6453 49.0512C15.1912 48.7744 14.9299 48.1956 14.9299 47.4406V23.7405C14.9299 22.4381 15.7138 20.9596 16.6593 20.3934L45.7355 3.4315C46.227 3.1358 46.7122 3.11693 47.1352 3.35601C47.5893 3.62025 47.8506 4.21165 47.8506 4.96663V28.6667C47.8506 29.9691 47.0668 31.4413 46.0901 32.0138L17.0512 48.9694C16.79 49.1267 16.4976 49.2085 16.2674 49.2085V49.2148Z" fill="#00902C"/>
<path fill-rule="evenodd" clip-rule="evenodd" d="M13.0078 20.0222L15.944 21.7146C16.2053 21.2805 16.4666 21.0163 16.8585 20.7206L45.9347 3.77125C46.3888 3.56363 46.5568 3.49442 47.0109 3.7335L44.112 2.04108C43.6579 1.80201 43.4588 1.85863 43.0047 2.06625L13.9534 19.0282C13.5615 19.3239 13.2691 19.5881 13.0078 20.0222Z" fill="#C1E7C6"/>
<path fill-rule="evenodd" clip-rule="evenodd" d="M13.5676 19.8901L15.8195 21.205C16.0497 20.8778 16.3421 20.645 16.6345 20.406L45.7356 3.43148L43.9128 2.3808C43.6205 2.21722 43.5894 2.24238 43.1663 2.42484L14.1523 19.3553C13.9222 19.5189 13.7293 19.6824 13.5676 19.8901ZM15.9502 22.111C15.888 22.111 15.8195 22.0858 15.7573 22.0543L12.8211 20.3493C12.7527 20.3053 12.6905 20.2172 12.6593 20.1166C12.6282 20.0159 12.6282 19.9089 12.6905 19.8209C12.9828 19.3112 13.3436 19.003 13.7356 18.7073L42.8055 1.73906C43.3592 1.4874 43.6516 1.38045 44.2737 1.70761L47.2099 3.41261C47.409 3.51327 47.4712 3.75235 47.3716 3.92851C47.241 4.11096 47.0108 4.18646 46.8491 4.09209C46.5256 3.92851 46.4883 3.9348 46.0653 4.12355L17.0513 21.0603C16.7278 21.2931 16.4976 21.5196 16.2674 21.9159C16.199 22.048 16.0746 22.111 15.944 22.111H15.9502Z" fill="#00902C"/>
<path fill-rule="evenodd" clip-rule="evenodd" d="M23.2099 45.3204C23.0171 45.3204 22.8491 45.1442 22.8491 44.924V17.0275C22.8491 16.8073 23.0109 16.6374 23.2099 16.6374C23.4401 16.6374 23.6018 16.8136 23.6018 17.0275V44.9303C23.6018 45.1505 23.4401 45.3267 23.2099 45.3267V45.3204Z" fill="#00902C"/>
<path fill-rule="evenodd" clip-rule="evenodd" d="M31.3966 40.5388C31.1664 40.5388 31.0046 40.3626 31.0046 40.155V12.2459C31.0046 12.0257 31.1664 11.8621 31.3966 11.8621C31.6267 11.8621 31.7885 12.0257 31.7885 12.2459V40.1613C31.7885 40.3689 31.6267 40.5451 31.3966 40.5451V40.5388Z" fill="#00902C"/>
<path fill-rule="evenodd" clip-rule="evenodd" d="M39.6392 35.688C39.4091 35.688 39.2473 35.5119 39.2473 35.3042V7.43286C39.2473 7.21266 39.4091 7.0365 39.6392 7.0365C39.8321 7.0365 40.0311 7.21266 40.0311 7.43286V35.3042C40.0311 35.5119 39.8383 35.688 39.6392 35.688Z" fill="#00902C"/>
<path fill-rule="evenodd" clip-rule="evenodd" d="M15.322 40.7842C15.1914 40.7842 15.0607 40.7087 14.9612 40.5829C14.8617 40.4004 14.9301 40.1613 15.123 40.0607L47.3345 21.2491C47.4962 21.1484 47.7264 21.205 47.857 21.3938C47.9565 21.5762 47.8881 21.8216 47.6953 21.9286L15.49 40.7276C15.4589 40.759 15.3904 40.7842 15.3282 40.7842H15.322Z" fill="#00902C"/>
<path fill-rule="evenodd" clip-rule="evenodd" d="M15.322 30.938C15.1914 30.938 15.0607 30.8625 14.9612 30.7429C14.8617 30.5605 14.9301 30.3151 15.123 30.2207L47.434 11.3525C47.5957 11.2456 47.8259 11.3085 47.9565 11.4972C48.0561 11.6797 47.9877 11.925 47.7948 12.032L15.49 30.8813C15.4589 30.9128 15.3904 30.938 15.3282 30.938H15.322Z" fill="#00902C"/>
</g>
<g clip-path="url(#clip2_3764_113867)">
<path fill-rule="evenodd" clip-rule="evenodd" d="M54.828 4.44539C57.177 3.1579 57.9129 4.00647 60.1451 5.29884C55.9781 3.11888 49.9934 12.7409 53.0052 16.1986L53.5803 16.6765C52.5617 16.0913 51.2751 15.5597 50.7341 14.7063C48.9894 11.9509 51.4652 6.48879 54.828 4.45026V4.44539Z" fill="#C1E7C6"/>
<path fill-rule="evenodd" clip-rule="evenodd" d="M54.9009 4.57218C52.8979 5.79139 51.0898 8.38588 50.5049 10.8877C50.1492 12.4044 50.271 13.6919 50.8607 14.6185C51.2165 15.1842 51.9378 15.6085 52.6785 16.0035C51.2603 13.9114 52.4056 10.1659 54.433 7.59095C55.9146 5.70361 57.6252 4.72824 59.0873 4.8404C57.557 3.9138 56.7919 3.52853 54.896 4.5673L54.9009 4.57218ZM53.5802 16.8228C53.5558 16.8228 53.5266 16.8131 53.5071 16.8033C53.2877 16.6765 53.0489 16.5497 52.8101 16.4229C51.9475 15.9596 51.0556 15.4866 50.6073 14.7892C49.9786 13.7943 49.8421 12.419 50.2125 10.8243C50.8217 8.21031 52.6493 5.59144 54.7498 4.31858C56.8698 3.15301 57.7763 3.7041 59.4236 4.6941C59.6673 4.8404 59.9305 5.00622 60.218 5.16715C60.2911 5.21105 60.3155 5.29883 60.2765 5.37198C60.2326 5.44513 60.1449 5.46952 60.0718 5.4305C58.2149 4.46001 56.0657 6.00597 54.6718 7.78115C52.6152 10.3854 51.4748 14.2137 53.1172 16.0962L53.6728 16.5546C53.7312 16.6083 53.7459 16.6912 53.6971 16.7594C53.6679 16.7985 53.6192 16.8228 53.5753 16.8228H53.5802Z" fill="#00902C"/>
<path fill-rule="evenodd" clip-rule="evenodd" d="M61.2075 2.46537L60.2377 3.67483C59.3507 4.85503 60.3351 5.14276 60.7689 5.39148C60.1207 4.72335 61.4853 3.36758 61.9093 2.87015C62.1335 2.61167 62.4259 2.36295 62.7671 2.53364C62.0068 2.09472 61.8167 1.79236 61.2075 2.46537ZM61.8996 9.92696L62.7086 10.361C62.4454 10.2976 61.573 10.1464 61.2367 10.3708C60.8176 10.6439 60.2718 11.6192 60.8274 11.9947C60.3839 11.7412 59.3848 11.468 60.1694 10.3366C60.6373 9.65386 61.0516 9.85381 61.8996 9.93184V9.92696ZM58.4685 15.8719C58.103 15.3549 57.3184 14.6331 58.2882 13.7016C58.8097 13.2042 59.068 13.531 59.7211 13.9114C59.0339 13.5749 58.2687 14.9062 58.6099 15.4768L59.2483 16.3595L58.4685 15.8719ZM51.665 19.0028C51.7966 18.6614 52.4155 16.4034 53.2782 16.7546L53.98 17.1593C53.0784 16.9301 52.5813 18.7931 52.3668 19.4076C52.2547 19.7246 52.1865 20.105 52.5081 20.3195C51.7479 19.8758 51.397 19.8709 51.6699 18.9979L51.665 19.0028ZM49.428 17.1301C48.58 18.32 49.428 18.5444 49.9544 18.8467C49.3013 18.1786 50.6708 16.818 51.0948 16.3254C51.3141 16.0669 51.6114 15.828 51.9526 15.9889C50.739 15.2866 50.9876 15.1842 49.428 17.1301ZM50.1152 8.87356C51.3482 8.98573 50.9437 8.83942 51.8989 9.39538C51.6358 9.32711 50.7585 9.1808 50.4223 9.39538C49.9982 9.67336 49.4573 10.6487 50.0129 11.0194C49.5742 10.7658 48.5752 10.4927 49.3549 9.36124C49.5401 9.08814 49.7789 8.88331 50.1152 8.86868V8.87356ZM51.9136 4.95744C52.5276 4.28443 52.7128 4.5868 53.4731 5.02572C52.7908 4.68921 52.0257 6.0206 52.3619 6.59119L53.0053 7.4739C52.2255 7.02523 52.1524 7.00572 51.665 6.18641C51.4262 5.79138 51.6796 5.28907 51.9136 4.95744ZM48.8578 13.4188C50.4759 12.4824 50.0811 12.5019 51.163 13.1262C50.6903 12.9506 49.3842 13.9406 49.2916 14.043C48.9748 14.3747 48.6336 15.1013 49.0723 15.4622C48.6775 15.233 47.6297 14.9209 48.4728 13.7748L48.8578 13.4188ZM54.9693 18.5395C54.9693 17.9006 54.7549 16.34 55.7929 15.9938C56.1097 15.8865 56.3973 16.1547 56.8456 16.4132C56.2413 16.184 55.6955 17.0911 55.6711 17.6519C55.6419 18.2859 55.5493 19.1296 55.8709 19.3929C55.174 18.9882 55.0132 19.0223 54.9693 18.5395ZM62.4649 5.56217C62.8986 5.36222 62.9523 5.5134 63.6492 5.91818C63.1716 5.73774 61.8654 6.72774 61.7728 6.83015C61.4658 7.16178 61.1198 7.89331 61.5535 8.24932C61.1588 8.02011 60.1061 7.71774 60.9541 6.5668C61.2465 6.17178 61.9678 5.84503 62.46 5.56217H62.4649ZM55.6614 1.6363C56.0951 1.43147 56.1487 1.58753 56.8456 1.99231C56.2413 1.7631 55.6955 2.66532 55.6711 3.23103C55.6419 3.86015 55.5493 4.70872 55.8709 4.97207C54.9108 4.41611 54.8913 4.69897 54.9693 2.82625C54.9888 2.32881 55.252 1.91428 55.6614 1.6363ZM58.7463 4.22104C57.6498 3.59192 57.4743 3.81626 58.4685 1.46073C59.0436 0.100089 59.7893 0.81211 60.223 1.06083C59.3166 0.831618 58.8243 2.69458 58.6099 3.30906C58.4929 3.62606 58.4344 4.00645 58.7512 4.21616L58.7463 4.22104Z" fill="#C1E7C6"/>
<path fill-rule="evenodd" clip-rule="evenodd" d="M59.3067 0.802192C59.2628 0.802192 59.219 0.807069 59.1751 0.816823C58.9655 0.885099 58.7657 1.11919 58.6049 1.51909C57.8202 3.36742 57.7764 3.50885 58.3612 3.8356C58.3417 3.59663 58.4246 3.36254 58.4635 3.26013C58.4879 3.19185 58.5123 3.11382 58.5415 3.02116C58.7608 2.35791 59.1312 1.23136 59.7599 0.953375C59.6137 0.865591 59.4578 0.797315 59.3067 0.797315V0.802192ZM58.7413 4.37205C58.717 4.37205 58.6926 4.3623 58.6682 4.35255C58.5561 4.28915 58.4587 4.2355 58.3709 4.18673C57.4352 3.67466 57.4303 3.52348 58.3271 1.40205C58.5318 0.91436 58.7852 0.631502 59.0874 0.538842C59.487 0.412043 59.8623 0.655886 60.1352 0.83633C60.1937 0.870468 60.2473 0.904606 60.2911 0.933867C60.3594 0.972882 60.3837 1.05091 60.3545 1.11919C60.3301 1.18746 60.257 1.22648 60.179 1.20697C59.5065 1.03628 59.0484 2.44569 58.8291 3.1187C58.7949 3.21136 58.7706 3.29427 58.7462 3.36254C58.5756 3.85511 58.7024 4.01604 58.8291 4.09895C58.8973 4.14772 58.9168 4.2355 58.8778 4.30378C58.8486 4.35255 58.7998 4.37693 58.7511 4.37693L58.7413 4.37205ZM55.7343 1.75806C55.3591 2.02628 55.1398 2.40668 55.1251 2.82609C55.0618 4.27939 55.0618 4.35255 55.5345 4.60614C55.4663 4.28427 55.4858 3.87461 55.5101 3.46983L55.5248 3.22111C55.5394 2.80658 55.8074 2.21648 56.2217 1.9385C56.2656 1.90924 56.3143 1.87998 56.363 1.86047C56.0511 1.6654 55.9878 1.64589 55.7392 1.75318L55.7343 1.75806ZM55.8757 5.11821C55.8513 5.11821 55.8221 5.11334 55.7977 5.09383C55.6759 5.02068 55.5638 4.96703 55.4712 4.91826C54.7499 4.53787 54.7547 4.44033 54.823 2.81634C54.8425 2.29451 55.1105 1.83121 55.5735 1.50446C55.5833 1.50446 55.593 1.49471 55.5979 1.48983C56.017 1.29963 56.1778 1.40205 56.5726 1.64101C56.6701 1.69953 56.7822 1.77269 56.9186 1.85072C56.9868 1.88973 57.0161 1.97264 56.982 2.04579C56.9479 2.11407 56.865 2.14821 56.7919 2.12382C56.6603 2.07018 56.519 2.09456 56.3825 2.18722C56.0657 2.39693 55.8367 2.89436 55.8221 3.23087L55.8074 3.47959C55.7831 3.9819 55.7441 4.66466 55.9683 4.84511C56.0267 4.89388 56.0414 4.98654 55.9926 5.04994C55.9634 5.09383 55.9195 5.11334 55.8708 5.11334L55.8757 5.11821ZM61.3243 2.56274L60.3594 3.76732C60.1011 4.1087 59.9939 4.39644 60.0426 4.60614C60.0865 4.80122 60.2619 4.94265 60.452 5.04994C60.374 4.3623 61.1635 3.48446 61.6314 2.96264C61.6947 2.88949 61.7532 2.82609 61.7971 2.77244C61.8702 2.68466 62.031 2.49446 62.2552 2.39205C61.8458 2.14821 61.724 2.1287 61.3292 2.56274H61.3243ZM60.7688 5.5425C60.7444 5.5425 60.72 5.53275 60.6908 5.52299C60.642 5.49373 60.5884 5.46447 60.5299 5.43521C60.2375 5.28403 59.8379 5.0792 59.7453 4.67442C59.6722 4.36718 59.794 4.00629 60.1157 3.582L61.0904 2.37254V2.36279C61.6947 1.69953 62.0115 1.89461 62.533 2.21648C62.6207 2.27013 62.7231 2.33353 62.8352 2.39693C62.9034 2.44082 62.9278 2.5286 62.8936 2.60175C62.8547 2.67491 62.7669 2.69929 62.6938 2.66515C62.5574 2.59688 62.3575 2.56762 62.0164 2.96264C61.9725 3.01629 61.914 3.08456 61.8458 3.15772C61.3731 3.68929 60.3886 4.79146 60.8711 5.28403C60.9198 5.3328 60.9247 5.42058 60.8808 5.4791C60.8516 5.51812 60.8077 5.53762 60.7639 5.53762L60.7688 5.5425ZM52.0353 5.04994C51.8208 5.35718 51.6015 5.78634 51.7916 6.11309C52.0743 6.58615 52.2107 6.77147 52.4398 6.94704L52.2448 6.67881C51.9817 6.24477 52.2205 5.55713 52.5811 5.16698C52.6981 5.03531 52.8297 4.94265 52.9564 4.889C52.5519 4.64516 52.4252 4.62565 52.0353 5.05481V5.04994ZM53.01 7.62492C52.9856 7.62492 52.9564 7.61516 52.932 7.60541L52.8345 7.54689C52.1328 7.14211 52.0255 7.07871 51.5382 6.26427C51.3189 5.89851 51.4066 5.4157 51.7965 4.86949C51.7965 4.86462 51.7965 4.85974 51.8062 4.85486C52.4105 4.19161 52.7273 4.38668 53.2488 4.70856C53.3414 4.7622 53.4389 4.8256 53.5558 4.889C53.6289 4.93289 53.6533 5.02068 53.6143 5.08895C53.5753 5.1621 53.4876 5.19137 53.4145 5.15723C53.166 5.03531 52.9271 5.23526 52.8053 5.36206C52.4934 5.69856 52.3423 6.24964 52.4983 6.50812L53.127 7.3762C53.1708 7.43472 53.166 7.51275 53.1172 7.5664C53.088 7.60053 53.0441 7.61517 53.0051 7.61517L53.01 7.62492ZM62.5379 5.69856C62.4306 5.76196 62.3186 5.82048 62.1967 5.88876C61.7727 6.11797 61.2951 6.37644 61.0855 6.6593C60.8516 6.9763 60.7541 7.24452 60.8077 7.45423C60.8565 7.6493 61.0271 7.79073 61.2171 7.89802C61.2123 7.87852 61.2123 7.86388 61.2123 7.84925C61.1879 7.44447 61.4316 6.98605 61.6752 6.72758C61.7337 6.66418 62.5476 6.01556 63.1909 5.80585C62.8547 5.60102 62.801 5.57176 62.5427 5.69368L62.5379 5.69856ZM61.5583 8.40522C61.607 8.40522 61.6557 8.38083 61.6801 8.33694C61.724 8.27354 61.7142 8.18576 61.6557 8.13699C61.5631 8.05896 61.5095 7.95655 61.5047 7.82487C61.4852 7.52738 61.6899 7.14211 61.8897 6.9324C62.0603 6.76171 63.2543 5.92777 63.6003 6.05945C63.6734 6.08383 63.7563 6.05945 63.7904 5.98142C63.8196 5.90826 63.7953 5.82536 63.727 5.78634C63.5857 5.70344 63.4785 5.64004 63.381 5.57664C62.9862 5.33279 62.8205 5.23038 62.4063 5.42058C62.4063 5.42546 62.3965 5.42545 62.3917 5.43033C62.2844 5.48885 62.1723 5.55225 62.0505 5.61565C61.6021 5.86437 61.0904 6.14235 60.8419 6.47398C60.5446 6.87388 60.4422 7.21526 60.5105 7.51763C60.6128 7.93704 61.0222 8.14187 61.3195 8.29305C61.3828 8.32231 61.4364 8.34669 61.4852 8.37595C61.5047 8.39059 61.5339 8.40034 61.5583 8.40034V8.40522ZM50.1151 9.02458C49.8714 9.04408 49.6716 9.18064 49.4815 9.45374C49.2671 9.76586 49.1794 10.0243 49.233 10.2243C49.2817 10.4145 49.4474 10.5462 49.6375 10.6583C49.6375 10.6242 49.6375 10.5852 49.6375 10.5462C49.6375 10.0731 50.0127 9.49276 50.349 9.2733C50.5391 9.15138 50.851 9.12699 51.1434 9.13674C51.0264 9.09285 50.9144 9.0831 50.6609 9.06359C50.5245 9.05384 50.349 9.03921 50.12 9.0197L50.1151 9.02458ZM50.0127 11.1753C49.9884 11.1753 49.964 11.1753 49.9396 11.1606C49.8812 11.1265 49.8178 11.0924 49.7496 11.0582C49.4523 10.9119 49.0429 10.7071 48.9405 10.3023C48.8674 10.0097 48.96 9.67808 49.233 9.28305C49.4766 8.92704 49.7642 8.7466 50.1053 8.72709C50.1151 8.72709 50.1248 8.72709 50.1248 8.72709C50.3636 8.7466 50.5342 8.75635 50.6707 8.7661C51.1775 8.80512 51.197 8.81 51.6503 9.07335C51.738 9.12699 51.8403 9.18551 51.9719 9.26354C52.0353 9.30256 52.0596 9.38059 52.0353 9.44886C52.006 9.51714 51.9281 9.55615 51.8598 9.53665C51.5236 9.44886 50.7584 9.3562 50.505 9.52202C50.2418 9.69758 49.9299 10.1804 49.9299 10.5413C49.9299 10.6973 49.9835 10.8144 50.1005 10.8875C50.1687 10.9363 50.1833 11.0241 50.1443 11.0972C50.12 11.1411 50.0663 11.1655 50.0176 11.1655L50.0127 11.1753ZM61.0124 9.99019C60.72 9.99019 60.5202 10.0829 60.2911 10.4194C60.0718 10.7315 59.989 10.99 60.0426 11.1899C60.0913 11.3801 60.2522 11.5118 60.4471 11.6239C60.4471 11.5898 60.4373 11.5508 60.4373 11.5118C60.4373 11.0387 60.8175 10.4633 61.1538 10.2389C61.3341 10.1219 61.6265 10.0926 61.9043 10.1024L61.8507 10.0731C61.7191 10.0585 61.5973 10.0438 61.4803 10.0292C61.3 10.0097 61.144 9.98532 61.0124 9.98532V9.99019ZM60.8272 12.1409C60.8029 12.1409 60.7785 12.1409 60.7541 12.1263C60.6956 12.0921 60.6372 12.058 60.5689 12.0238C60.2668 11.8775 59.8623 11.6727 59.755 11.2679C59.6819 10.9753 59.7745 10.6437 60.0475 10.2487C60.491 9.60492 60.9247 9.65857 61.5242 9.7366C61.6411 9.75123 61.7727 9.76586 61.914 9.78049C61.9287 9.78049 61.953 9.79024 61.9677 9.8L62.7815 10.234C62.8498 10.2731 62.879 10.3511 62.8498 10.4194C62.8254 10.4925 62.7474 10.5364 62.6743 10.512C62.3381 10.4291 61.5729 10.3316 61.3195 10.4974C61.0514 10.673 60.7444 11.1558 60.7395 11.5215C60.7395 11.6776 60.798 11.7946 60.9101 11.8678C60.9783 11.9117 60.9978 12.0043 60.9588 12.0726C60.9296 12.1165 60.8808 12.1409 60.8321 12.1409H60.8272ZM48.9454 13.5454L48.575 13.8868C48.3606 14.1843 48.268 14.4525 48.3167 14.6622C48.3655 14.8622 48.536 14.9987 48.7261 15.106C48.7261 15.0914 48.7261 15.0719 48.7261 15.0524C48.6969 14.6476 48.9454 14.194 49.1891 13.9356C49.2427 13.8771 50.0566 13.2284 50.6999 13.0187C50.2662 12.7554 50.232 12.77 49.5351 13.1943C49.3743 13.287 49.1891 13.404 48.9552 13.5357L48.9454 13.5454ZM49.0673 15.6132C49.0429 15.6132 49.0185 15.6083 48.9893 15.5937C48.9454 15.5693 48.8918 15.5449 48.8285 15.5108C48.5458 15.3645 48.1169 15.1548 48.0194 14.7354C47.9415 14.4281 48.0536 14.0916 48.346 13.6869L48.7554 13.3113C48.7554 13.3113 48.77 13.2967 48.7797 13.2918C49.0185 13.1553 49.2086 13.0431 49.3694 12.9456C50.1931 12.4481 50.2564 12.414 50.9046 12.8041C50.9972 12.8627 51.1093 12.9261 51.236 13.0041C51.3042 13.0431 51.3286 13.126 51.2945 13.1943C51.2604 13.2674 51.1824 13.3016 51.1093 13.2723C50.7535 13.1358 49.5644 13.9746 49.3987 14.1453C49.194 14.3599 48.9942 14.7451 49.0137 15.0377C49.0234 15.1694 49.0721 15.267 49.1647 15.345C49.2232 15.3938 49.2378 15.4864 49.1891 15.5498C49.1599 15.5937 49.1111 15.6132 49.0673 15.6132ZM58.5708 15.7546L58.6682 15.818L58.483 15.5644C58.2247 15.1255 58.4587 14.4428 58.8193 14.0477C58.9363 13.9161 59.063 13.8234 59.1946 13.7698C58.8486 13.5601 58.6926 13.5162 58.3856 13.8137C57.6253 14.5403 58.0395 15.067 58.4294 15.5791C58.483 15.6425 58.5269 15.7059 58.5708 15.7595V15.7546ZM59.2433 16.5057C59.219 16.5057 59.1848 16.4959 59.1653 16.4862L58.3807 15.9985C58.3807 15.9985 58.3515 15.9741 58.3368 15.9546C58.293 15.8912 58.2442 15.8278 58.1906 15.7595C57.8105 15.2572 57.2305 14.5013 58.176 13.5942C58.6926 13.0968 59.0435 13.3162 59.4919 13.5942C59.5796 13.6527 59.6771 13.7112 59.7892 13.7746C59.8574 13.8137 59.8818 13.9014 59.8428 13.9746C59.8038 14.0477 59.7161 14.0721 59.643 14.038C59.3944 13.9161 59.1556 14.116 59.0386 14.2477C58.7267 14.5891 58.5756 15.1353 58.7316 15.3938L59.37 16.2618C59.4139 16.3204 59.409 16.3984 59.3554 16.452C59.3262 16.4813 59.2872 16.5008 59.2433 16.5008V16.5057ZM49.5449 17.2177C49.2866 17.5883 49.1794 17.881 49.233 18.0858C49.2768 18.2662 49.4425 18.393 49.6326 18.5052C49.5595 17.8176 50.349 16.9348 50.8169 16.413C50.8802 16.3399 50.9338 16.2765 50.9826 16.2228C51.0557 16.135 51.2165 15.9497 51.4261 15.8473C50.8754 15.5352 50.7974 15.6376 49.9201 16.7446L49.5497 17.2128L49.5449 17.2177ZM49.9543 18.9978C49.9981 18.9978 50.042 18.9782 50.0712 18.9392C50.12 18.8807 50.1102 18.7929 50.0566 18.7442C49.5741 18.2467 50.5586 17.1445 51.0313 16.6178C51.0995 16.5447 51.158 16.4813 51.2019 16.4228C51.5382 16.0277 51.738 16.057 51.8793 16.1253C51.9524 16.1594 52.0402 16.135 52.0791 16.0619C52.1181 15.9887 52.0938 15.9009 52.0207 15.8619C51.9232 15.8034 51.8355 15.7498 51.7526 15.7059C50.8071 15.1402 50.7243 15.2474 49.6716 16.5642L49.3012 17.0324H49.2963C48.9795 17.4859 48.8626 17.8517 48.9308 18.1541C49.0185 18.5296 49.3694 18.71 49.6813 18.871C49.7447 18.9051 49.8129 18.9392 49.8714 18.9734C49.8909 18.988 49.9201 18.9929 49.9445 18.9929L49.9543 18.9978ZM55.1251 18.5393C55.1495 18.8124 55.1982 18.8563 55.5296 19.0368C55.4663 18.7149 55.4858 18.3052 55.5101 17.9005L55.5248 17.6517C55.5394 17.2421 55.8123 16.6422 56.2217 16.374C56.2656 16.3447 56.3143 16.3204 56.363 16.296C56.1388 16.1594 55.9926 16.0911 55.8513 16.1399C55.052 16.413 55.091 17.564 55.1203 18.2565C55.1251 18.3638 55.13 18.4613 55.13 18.5442L55.1251 18.5393ZM55.8757 19.544C55.8513 19.544 55.8221 19.5391 55.7977 19.5293C55.6612 19.4464 55.5443 19.383 55.4468 19.3294C55.0374 19.1148 54.8668 19.0221 54.823 18.5637V18.5491C54.823 18.4662 54.823 18.3735 54.8132 18.2662C54.784 17.4957 54.7352 16.1984 55.749 15.8571C56.056 15.7498 56.3338 15.9253 56.6506 16.1302C56.7383 16.1789 56.826 16.2375 56.9186 16.2911C56.9868 16.3301 57.0161 16.413 56.982 16.4862C56.9479 16.5593 56.865 16.5886 56.7919 16.5593C56.6603 16.5106 56.519 16.5301 56.3825 16.6227C56.0657 16.8373 55.8367 17.3299 55.8221 17.6664L55.8074 17.92C55.7831 18.4174 55.7441 19.1002 55.9683 19.2806C56.0267 19.3343 56.0414 19.422 55.9926 19.4854C55.9634 19.5293 55.9195 19.5488 55.8708 19.5488L55.8757 19.544ZM51.8062 19.0563C51.8208 19.0124 51.8452 18.9441 51.8744 18.8515C52.0304 18.3833 52.4447 17.1348 52.9515 16.9007C53.0441 16.8568 53.127 16.8568 53.2001 16.8861L53.5071 17.0616C52.8833 17.3494 52.5178 18.4662 52.3033 19.1197C52.2741 19.2075 52.2448 19.2904 52.2253 19.3586C52.1864 19.4659 52.1035 19.7 52.123 19.939C51.7087 19.7098 51.6308 19.6122 51.8111 19.0514L51.8062 19.0563ZM52.5031 20.4754C52.4788 20.4754 52.4544 20.4706 52.4252 20.4559C52.3131 20.3925 52.2107 20.3389 52.1181 20.2852C51.5772 19.9975 51.2506 19.8171 51.5236 18.9685V18.9587C51.5382 18.9197 51.5625 18.8514 51.5918 18.7685C51.8939 17.8566 52.279 16.891 52.8248 16.6422C52.9954 16.5642 53.1611 16.5593 53.3317 16.6276L54.0529 17.0373C54.1163 17.0763 54.1407 17.1543 54.1163 17.2226C54.0871 17.2957 54.0091 17.3299 53.9409 17.3104C53.2732 17.1397 52.8102 18.5491 52.5909 19.2221C52.5616 19.3148 52.5324 19.3977 52.5129 19.4659C52.3374 19.9585 52.4642 20.1194 52.5909 20.2023C52.6591 20.2511 52.6737 20.3389 52.6347 20.4072C52.6055 20.4559 52.5568 20.4803 52.508 20.4803L52.5031 20.4754Z" fill="#00902C"/>
<path fill-rule="evenodd" clip-rule="evenodd" d="M57.0455 3.72846C57.0455 4.17226 56.7385 4.70383 56.3583 4.91842C55.9782 5.13787 55.6711 4.96231 55.6711 4.52339V3.22615C55.6711 2.78723 55.9782 2.25565 56.3583 2.03619C56.7385 1.81673 57.0455 1.9923 57.0455 2.43609V3.72846Z" fill="white"/>
<path fill-rule="evenodd" clip-rule="evenodd" d="M56.6653 2.08985C56.5971 2.08985 56.5142 2.11423 56.4363 2.16788C56.1 2.35807 55.8222 2.84576 55.8222 3.22616V4.5234C55.8222 4.67458 55.8709 4.79163 55.9489 4.83552C56.0318 4.88429 56.1536 4.86478 56.2852 4.79163C56.6215 4.59655 56.8993 4.11374 56.8993 3.72847V2.4361C56.8993 2.28004 56.8505 2.163 56.7725 2.11911C56.7433 2.0996 56.7092 2.09472 56.6653 2.09472V2.08985ZM56.0513 5.16227C55.9635 5.16227 55.8758 5.14276 55.7978 5.09399C55.6224 4.99158 55.5249 4.78675 55.5249 4.5234V3.22616C55.5249 2.73359 55.8612 2.15325 56.2852 1.90453C56.5191 1.77285 56.7433 1.75822 56.9187 1.85576C57.0991 1.95817 57.1965 2.163 57.1965 2.43123V3.72359C57.1965 4.22103 56.8603 4.80138 56.4314 5.04522C56.2998 5.12325 56.1731 5.16227 56.0513 5.16227Z" fill="#00902C"/>
<path fill-rule="evenodd" clip-rule="evenodd" d="M62.0409 8.20546C61.6657 8.42004 61.3538 8.24935 61.3538 7.80555C61.3538 7.36176 61.6608 6.83506 62.0409 6.6156L63.1667 5.96698C63.542 5.74752 63.8539 5.92309 63.8539 6.36688C63.8539 6.81067 63.542 7.33738 63.1667 7.55683L62.0409 8.20546Z" fill="white"/>
<path fill-rule="evenodd" clip-rule="evenodd" d="M63.4689 6.0206C63.4006 6.0206 63.3227 6.04499 63.2349 6.09863L62.1189 6.74238C61.7826 6.93745 61.5048 7.42026 61.5048 7.80553C61.5048 7.95672 61.5535 8.07376 61.6315 8.11765C61.7144 8.16642 61.8362 8.14691 61.9727 8.07376L63.0936 7.42514C63.425 7.23494 63.7077 6.74726 63.7077 6.36686C63.7077 6.2108 63.6589 6.09376 63.581 6.04986C63.5517 6.03523 63.5176 6.02548 63.4737 6.02548L63.4689 6.0206ZM61.7387 8.4444C61.6461 8.4444 61.5584 8.4249 61.4853 8.381C61.3099 8.27371 61.2075 8.07376 61.2075 7.80553C61.2075 7.30809 61.5438 6.72775 61.9727 6.48391L63.0936 5.83528C63.3275 5.70361 63.5517 5.68898 63.7272 5.79139C63.9075 5.89381 64.005 6.09863 64.005 6.36686C64.005 6.85942 63.6638 7.43977 63.2398 7.68849L62.1238 8.33223C61.9922 8.41026 61.8606 8.44928 61.7436 8.44928L61.7387 8.4444Z" fill="#00902C"/>
<path fill-rule="evenodd" clip-rule="evenodd" d="M55.676 17.6519C55.676 17.213 55.9831 16.6814 56.3632 16.462C56.7433 16.2425 57.0504 16.4181 57.0504 16.8619V18.1542C57.0504 18.5932 56.7433 19.1296 56.3632 19.3491C55.9831 19.5637 55.676 19.3881 55.676 18.954V17.6568V17.6519Z" fill="white"/>
<path fill-rule="evenodd" clip-rule="evenodd" d="M56.6653 16.5156C56.5971 16.5156 56.5142 16.54 56.4314 16.5936C56.1 16.7838 55.8222 17.2715 55.8222 17.6519V18.9492C55.8222 19.1003 55.8709 19.2174 55.9489 19.2613C56.0318 19.31 56.1536 19.2905 56.2852 19.2174C56.6215 19.0272 56.8993 18.5395 56.8993 18.1542V16.8619C56.8993 16.7107 56.8505 16.5888 56.7725 16.5449C56.7433 16.5302 56.7092 16.5205 56.6653 16.5205V16.5156ZM56.0513 19.588C55.9635 19.588 55.8758 19.5685 55.7978 19.5246C55.6224 19.4173 55.5249 19.2174 55.5249 18.9492V17.6519C55.5249 17.1593 55.8612 16.579 56.2852 16.3303C56.5191 16.1986 56.7433 16.184 56.9187 16.2864C57.0991 16.3888 57.1965 16.5936 57.1965 16.8619V18.1542C57.1965 18.6517 56.8603 19.232 56.4314 19.4759C56.2998 19.5539 56.1731 19.588 56.0513 19.588Z" fill="#00902C"/>
<path fill-rule="evenodd" clip-rule="evenodd" d="M50.6755 13.1798C51.0557 12.9603 51.3676 13.1359 51.3676 13.5748C51.3676 14.0137 51.0606 14.5502 50.6755 14.7697L49.5595 15.4134C49.1794 15.6329 48.8723 15.4573 48.8723 15.0184C48.8723 14.5795 49.1794 14.043 49.5595 13.8236L50.6755 13.1798Z" fill="white"/>
<path fill-rule="evenodd" clip-rule="evenodd" d="M50.9825 13.2335C50.9143 13.2335 50.8363 13.2578 50.7486 13.3066L49.6277 13.9552C49.2914 14.1454 49.0136 14.6331 49.0136 15.0184C49.0136 15.1696 49.0623 15.2866 49.1403 15.3305C49.2232 15.3744 49.345 15.3598 49.4766 15.2817L50.5975 14.6331C50.9289 14.4429 51.2067 13.9552 51.2067 13.57C51.2067 13.4188 51.1629 13.3017 51.08 13.2578C51.0556 13.2383 51.0167 13.2335 50.9777 13.2335H50.9825ZM49.2475 15.6573C49.1598 15.6573 49.0721 15.6377 48.9941 15.589C48.8187 15.4866 48.7212 15.2817 48.7212 15.0184C48.7212 14.5209 49.0575 13.9406 49.4815 13.6968L50.6024 13.0481C50.8363 12.9116 51.0605 12.8969 51.236 12.9994C51.4114 13.1018 51.5089 13.3066 51.5089 13.57C51.5089 14.0674 51.1726 14.6477 50.7486 14.8916L49.6277 15.5402C49.4912 15.6182 49.3645 15.6524 49.2427 15.6524L49.2475 15.6573Z" fill="#00902C"/>
<path fill-rule="evenodd" clip-rule="evenodd" d="M54.1165 5.90841C54.3065 6.17664 54.1944 6.72773 53.863 7.13738C53.5365 7.54704 53.1125 7.65921 52.9224 7.39098L52.362 6.59605C52.1719 6.32782 52.284 5.77186 52.6154 5.36708C52.9419 4.95743 53.3659 4.84526 53.556 5.11348L54.1165 5.91329V5.90841Z" fill="white"/>
<path fill-rule="evenodd" clip-rule="evenodd" d="M53.2684 5.10862C53.1417 5.10862 52.9321 5.1964 52.7323 5.45C52.4253 5.83527 52.357 6.3132 52.4886 6.49852L53.0491 7.29345C53.0881 7.3471 53.1368 7.37148 53.205 7.38124C53.3171 7.38124 53.5462 7.29345 53.7509 7.03986C54.0579 6.65458 54.1261 6.17665 53.9946 5.98645L53.4341 5.19153C53.3951 5.13788 53.3464 5.10862 53.2781 5.10862H53.2684ZM53.2099 7.6836H53.1953C53.0345 7.67385 52.8931 7.60069 52.8005 7.46902L52.2401 6.67409C52.011 6.34734 52.1231 5.7231 52.4984 5.26468C52.7372 4.97207 53.0296 4.80138 53.2879 4.80625C53.4487 4.81601 53.5852 4.88916 53.6826 5.01596L54.2431 5.81089C54.4722 6.13764 54.3601 6.76187 53.9848 7.2203C53.7558 7.50803 53.4682 7.67872 53.2148 7.67872L53.2099 7.6836Z" fill="#00902C"/>
<path fill-rule="evenodd" clip-rule="evenodd" d="M51.782 9.36614C52.1134 9.3954 52.2255 9.81481 52.0354 10.3074C51.8453 10.7951 51.4262 11.1706 51.0948 11.1364L50.1249 11.0535C49.7935 11.0243 49.6863 10.6 49.8715 10.1123C50.0616 9.61973 50.4856 9.24909 50.8121 9.27835L51.782 9.36614Z" fill="white"/>
<path fill-rule="evenodd" clip-rule="evenodd" d="M50.7779 9.42462C50.5439 9.42462 50.1833 9.72211 50.0127 10.1659C49.8957 10.4731 49.925 10.6975 49.9932 10.8048C50.0273 10.8633 50.0761 10.8926 50.1394 10.8974L51.1093 10.9852C51.3335 11.0047 51.7185 10.7072 51.8988 10.2488C52.0158 9.94157 51.9865 9.71236 51.9232 9.60507C51.8842 9.54655 51.8354 9.51728 51.7721 9.51241L50.8022 9.42462C50.8022 9.42462 50.7876 9.42462 50.7827 9.42462H50.7779ZM51.1288 11.2925C51.1288 11.2925 51.0995 11.2925 51.0849 11.2876L50.1151 11.2047C49.9542 11.19 49.8226 11.1071 49.7349 10.9706C49.5985 10.7511 49.5985 10.4098 49.7349 10.0586C49.9494 9.50265 50.4318 9.09788 50.8266 9.13201L51.7964 9.21492C51.9573 9.22955 52.0937 9.31246 52.1766 9.45389C52.313 9.66847 52.313 10.0147 52.1766 10.361C51.967 10.8974 51.5186 11.2925 51.1288 11.2925Z" fill="#00902C"/>
<path fill-rule="evenodd" clip-rule="evenodd" d="M51.0948 16.3254C51.4262 15.9206 51.8453 15.8036 52.0354 16.0767C52.2255 16.3498 52.1134 16.9009 51.782 17.3057L50.8121 18.5151C50.4856 18.9248 50.0616 19.0418 49.8715 18.7687C49.6863 18.4956 49.7935 17.9445 50.1249 17.5349L51.0948 16.3254Z" fill="white"/>
<path fill-rule="evenodd" clip-rule="evenodd" d="M51.7478 16.0767C51.621 16.0767 51.4164 16.1645 51.2117 16.4181L50.2418 17.6275C49.9348 18.0079 49.8617 18.4859 49.9933 18.6761C50.0323 18.7297 50.081 18.759 50.1492 18.759C50.2759 18.759 50.4855 18.6761 50.6951 18.4176L51.6649 17.2081C51.9719 16.8229 52.0402 16.3498 51.9086 16.1596C51.8696 16.1108 51.8209 16.0767 51.7526 16.0767H51.7429H51.7478ZM50.159 19.0613H50.1443C49.9835 19.0613 49.8422 18.9784 49.7496 18.8516C49.5205 18.5249 49.6326 17.9055 50.0079 17.4422L50.9777 16.2328C51.2165 15.9401 51.5041 15.7695 51.7673 15.7792C51.9281 15.7792 52.0694 15.8572 52.162 15.9889C52.3911 16.3157 52.279 16.935 51.9037 17.3983L50.9339 18.6078C50.7048 18.8906 50.4173 19.0613 50.1638 19.0613H50.159Z" fill="#00902C"/>
<path fill-rule="evenodd" clip-rule="evenodd" d="M52.9224 17.964C53.1125 17.4715 53.5365 17.1008 53.863 17.1301C54.1944 17.1594 54.3065 17.5788 54.1165 18.0713L53.556 19.5149C53.3659 20.0026 52.9419 20.3732 52.6154 20.3439C52.284 20.3147 52.1719 19.8953 52.362 19.4076L52.9224 17.964Z" fill="white"/>
<path fill-rule="evenodd" clip-rule="evenodd" d="M53.0588 18.0225L52.4983 19.4661C52.3813 19.7733 52.4106 20.0026 52.4788 20.1098C52.5129 20.1684 52.5568 20.1976 52.625 20.2025C52.8638 20.2269 53.2294 19.9245 53.4145 19.4661L53.975 18.0225C54.092 17.7153 54.0627 17.4861 53.9994 17.3788C53.9604 17.3203 53.9117 17.291 53.8483 17.2861C53.6241 17.2715 53.244 17.5641 53.0588 18.0274V18.0225ZM52.6494 20.5049H52.6055C52.4447 20.4854 52.3082 20.4073 52.2254 20.2659C52.0889 20.0513 52.0889 19.7099 52.2254 19.3588L52.7859 17.9153C53.0003 17.3593 53.4828 16.9496 53.8775 16.9887C54.0384 17.0033 54.1748 17.0862 54.2577 17.2227C54.3941 17.4422 54.3941 17.7836 54.2577 18.1347L53.6972 19.5783C53.4877 20.1147 53.0344 20.5049 52.6494 20.5049Z" fill="#00902C"/>
<path fill-rule="evenodd" clip-rule="evenodd" d="M58.6048 15.4769C58.4147 15.2038 58.5268 14.6575 58.8534 14.243C59.1848 13.8382 59.6039 13.7212 59.794 13.9943L60.3544 14.7892C60.5445 15.0623 60.4373 15.6134 60.1059 16.0231C59.7745 16.4327 59.3553 16.5449 59.1653 16.2718L58.6048 15.4769Z" fill="white"/>
<path fill-rule="evenodd" clip-rule="evenodd" d="M59.5064 13.9992C59.3797 13.9992 59.175 14.087 58.9704 14.3406C58.6633 14.7209 58.5951 15.2038 58.7267 15.3891L59.2871 16.1889C59.3261 16.2377 59.3749 16.2669 59.4431 16.2669H59.4528C59.5796 16.2669 59.7842 16.1791 59.9841 15.9255C60.2911 15.5451 60.3642 15.0672 60.2326 14.877L59.6721 14.0772C59.6332 14.0236 59.5844 13.9943 59.5162 13.9943H59.5064V13.9992ZM59.4528 16.5693H59.4382C59.2774 16.5693 59.1361 16.4864 59.0435 16.3596L58.4879 15.5646C58.2588 15.2379 58.3709 14.6185 58.7462 14.1504C58.9801 13.8577 59.2628 13.6871 59.5357 13.6968C59.6965 13.6968 59.833 13.7797 59.9256 13.9065L60.486 14.7014C60.7151 15.0282 60.603 15.6476 60.2326 16.1157C59.9987 16.3986 59.716 16.5693 59.4626 16.5693H59.4528Z" fill="#00902C"/>
<path fill-rule="evenodd" clip-rule="evenodd" d="M60.9344 12.0192C60.6079 11.9899 60.4958 11.5656 60.6859 11.0779C60.8759 10.5854 61.2951 10.2147 61.6265 10.244L62.5963 10.3318C62.9228 10.361 63.0349 10.7804 62.8449 11.2681C62.6548 11.7607 62.2357 12.1313 61.9043 12.1021L60.9344 12.0143V12.0192Z" fill="white"/>
<path fill-rule="evenodd" clip-rule="evenodd" d="M60.9541 11.868L61.924 11.9557C62.1628 11.9752 62.5283 11.6778 62.7086 11.2193C62.8256 10.9121 62.8012 10.6829 62.733 10.5756C62.6989 10.5219 62.6453 10.4878 62.5868 10.4829L61.6169 10.4C61.3879 10.3854 61.0077 10.678 60.8274 11.1364C60.7104 11.4437 60.7348 11.6729 60.803 11.7753C60.8372 11.8338 60.8859 11.8631 60.9541 11.868ZM61.9435 12.2581C61.9435 12.2581 61.9093 12.2581 61.8947 12.2581L60.9249 12.1703C60.7689 12.1606 60.6325 12.0728 60.5496 11.9362C60.4132 11.7168 60.4132 11.3754 60.5496 11.0243C60.764 10.4683 61.2465 10.0635 61.6413 10.0977L62.6111 10.1806C62.7671 10.2001 62.9036 10.2781 62.9864 10.4195C63.1229 10.639 63.1229 10.9804 62.9864 11.3266C62.7817 11.8582 62.3285 12.2581 61.9435 12.2581Z" fill="#00902C"/>
<path fill-rule="evenodd" clip-rule="evenodd" d="M61.6265 5.05501C61.2951 5.46467 60.8759 5.57684 60.6859 5.30373C60.4958 5.03551 60.6079 4.48442 60.9344 4.07477L61.9043 2.8653C62.2357 2.45565 62.6548 2.34348 62.8449 2.61659C63.0349 2.88481 62.918 3.4359 62.5963 3.84555L61.6265 5.05501Z" fill="white"/>
<path fill-rule="evenodd" clip-rule="evenodd" d="M62.5574 2.61655C62.4307 2.61655 62.226 2.70921 62.0262 2.95793L61.0563 4.16739C60.7493 4.55266 60.6811 5.03059 60.8127 5.21592C60.8516 5.26956 60.9004 5.29395 60.9686 5.3037C61.0758 5.31345 61.3049 5.21592 61.5096 4.96232L62.4794 3.75286C62.7865 3.36759 62.8547 2.88965 62.7231 2.70433C62.6841 2.65069 62.6354 2.6263 62.5671 2.61655H62.5574ZM60.9735 5.60606H60.954C60.7932 5.59631 60.6567 5.52803 60.5641 5.39148C60.335 5.06473 60.452 4.44537 60.8224 3.98207L61.7922 2.77261C62.0262 2.48 62.3186 2.30931 62.5818 2.31906C62.7426 2.31906 62.8791 2.39709 62.9717 2.52877C63.2007 2.85552 63.0886 3.47975 62.7134 3.93818L61.7435 5.14764C61.5145 5.43537 61.2269 5.60606 60.9735 5.60606Z" fill="#00902C"/>
<path fill-rule="evenodd" clip-rule="evenodd" d="M59.794 3.41637C59.6039 3.90406 59.1848 4.2747 58.8534 4.24544C58.5268 4.21618 58.4147 3.79677 58.6048 3.30908L59.1653 1.86553C59.3553 1.37297 59.7745 1.00233 60.1059 1.03159C60.4373 1.06085 60.5445 1.48026 60.3544 1.97282L59.794 3.41637Z" fill="white"/>
<path fill-rule="evenodd" clip-rule="evenodd" d="M60.0671 1.17785C59.838 1.17785 59.4774 1.47047 59.3068 1.91914L58.7463 3.36269C58.6294 3.66993 58.6537 3.89426 58.722 4.00643C58.7561 4.06008 58.8097 4.09422 58.8731 4.09909C59.0972 4.1186 59.4823 3.82599 59.6626 3.36269L60.223 1.91914C60.3449 1.61189 60.3156 1.38268 60.2474 1.27539C60.2133 1.22175 60.1597 1.18761 60.0963 1.18273H60.072L60.0671 1.17785ZM58.8926 4.40146H58.8438C58.6879 4.38683 58.5514 4.30392 58.4637 4.16249C58.3272 3.94791 58.3272 3.60165 58.4637 3.2554L59.0241 1.81185C59.2386 1.25101 59.7162 0.846227 60.1158 0.880365C60.2767 0.894996 60.4082 0.977902 60.4911 1.11445C60.6324 1.33391 60.6324 1.67529 60.4911 2.02643L59.9306 3.46998C59.7259 4.00643 59.2727 4.40146 58.8877 4.40146H58.8926Z" fill="#00902C"/>
<path fill-rule="evenodd" clip-rule="evenodd" d="M56.865 5.61585C57.4937 5.25496 58.0931 5.05013 58.639 4.99649C59.2092 4.94284 59.7209 5.04038 60.1449 5.29398C60.5738 5.53782 60.9149 5.92797 61.1489 6.44979C61.3779 6.95211 61.4998 7.57147 61.4998 8.29812C61.4998 9.02477 61.3779 9.79044 61.1489 10.5512C60.9149 11.3413 60.5738 12.1313 60.1449 12.8726C59.3018 14.3259 58.1419 15.5988 56.8601 16.3401C56.2314 16.701 55.632 16.9058 55.0861 16.9594C54.5208 17.0131 54.0042 16.9107 53.5802 16.6619C53.1513 16.4132 52.8102 16.0231 52.5714 15.5061C52.3472 15.0038 52.2205 14.3844 52.2205 13.6578C52.2205 12.9311 52.3472 12.1655 52.5714 11.4047C52.8053 10.6098 53.1513 9.82458 53.5802 9.0833C54.0091 8.34201 54.5208 7.6495 55.0861 7.04965C55.632 6.47418 56.2314 5.98161 56.8601 5.61585H56.865Z" fill="white"/>
<path fill-rule="evenodd" clip-rule="evenodd" d="M58.9411 5.13302C58.8485 5.13302 58.751 5.13302 58.6536 5.14765C58.1126 5.2013 57.5375 5.40125 56.9429 5.74751C56.3435 6.09377 55.7538 6.56682 55.2031 7.15204C54.6475 7.74214 54.1455 8.42003 53.7166 9.16131C53.2877 9.90259 52.9563 10.6731 52.7224 11.4534C52.4933 12.224 52.3813 12.9701 52.3813 13.6627C52.3813 14.3552 52.4933 14.9501 52.7175 15.4476C52.9417 15.9401 53.2585 16.3059 53.6679 16.54C54.0724 16.7741 54.5549 16.8667 55.0812 16.8131C55.6222 16.7595 56.2021 16.5595 56.7967 16.2132C58.0103 15.511 59.1604 14.2966 60.023 12.7994C60.4519 12.0582 60.7882 11.2876 61.0173 10.5073C61.2512 9.73678 61.3633 8.9955 61.3633 8.29811C61.3633 7.60071 61.2463 7.01061 61.027 6.51317C60.8077 6.02061 60.486 5.65485 60.0815 5.42076C59.7453 5.23056 59.37 5.13302 58.9509 5.13302H58.9411ZM54.7888 17.1301C54.3161 17.1301 53.8872 17.0179 53.5071 16.7985C53.0441 16.5351 52.6834 16.1206 52.4397 15.5695C52.1961 15.033 52.0742 14.3942 52.0742 13.6627C52.0742 12.9311 52.1912 12.1606 52.43 11.3657C52.6688 10.5658 53.0148 9.77092 53.4534 9.01013C53.8921 8.24934 54.4087 7.55682 54.9838 6.95209C55.5588 6.34736 56.168 5.8548 56.7919 5.49391C57.4205 5.12815 58.0395 4.91357 58.6243 4.85504C59.2238 4.79652 59.7599 4.89893 60.2229 5.16716C60.6859 5.43539 61.0416 5.84505 61.2951 6.39613C61.5387 6.92771 61.6606 7.57145 61.6606 8.30298C61.6606 9.03451 61.5387 9.80018 61.2999 10.6C61.066 11.3998 60.72 12.1947 60.2813 12.9506C59.3895 14.4966 58.2052 15.7451 56.9478 16.4717C56.3094 16.8375 55.6953 17.0521 55.1105 17.1106C55.0032 17.1203 54.9009 17.1252 54.7986 17.1252L54.7888 17.1301Z" fill="#00902C"/>
</g>
<g clip-path="url(#clip3_3764_113867)">
<path fill-rule="evenodd" clip-rule="evenodd" d="M12.3637 54.2183L18.9581 50.4115C19.3077 50.2159 19.5245 49.8248 19.5245 49.4336V47.7084L19.8182 47.5477L20.4756 47.9389V49.6711C20.4756 50.202 20.091 50.8586 19.6294 51.131L12.9231 55.0006L12.3567 54.2253L12.3637 54.2183Z" fill="#6AC97B"/>
<path fill-rule="evenodd" clip-rule="evenodd" d="M12.6784 54.2881L12.993 54.7212L19.5315 50.9424C19.9371 50.7119 20.2658 50.1251 20.2658 49.6641V48.0576L19.8252 47.7922L19.7553 47.8271V49.4267C19.7553 49.9016 19.4826 50.3556 19.077 50.5931L12.6853 54.2742L12.6784 54.2881ZM12.9371 55.2171C12.8602 55.2171 12.7902 55.1892 12.7553 55.1263L12.1888 54.351C12.1539 54.3021 12.1329 54.2392 12.1539 54.1834C12.1749 54.1205 12.2098 54.0646 12.2658 54.0437L18.8602 50.2299C19.1329 50.0693 19.3147 49.7549 19.3147 49.4406V47.7154C19.3147 47.6385 19.3497 47.5617 19.4266 47.5268L19.7203 47.3591C19.7763 47.3242 19.8672 47.3242 19.9231 47.3591L20.6014 47.7573C20.6714 47.7922 20.7133 47.869 20.7133 47.9389V49.6711C20.7133 50.2858 20.2937 51.0122 19.7623 51.3196L13.035 55.1892C13.035 55.1892 12.9791 55.2171 12.9441 55.2171H12.9371Z" fill="#00902C"/>
<path fill-rule="evenodd" clip-rule="evenodd" d="M20.7413 48.4068C20.8882 48.316 21.056 48.1833 21.056 47.9947V44.4255C21.035 44.6141 20.9091 44.7328 20.7623 44.8306C20.3427 45.089 19.5735 45.089 19.1679 44.7677C19.056 44.6839 18.9651 44.5652 18.9651 44.4255V47.9878C18.9651 48.1833 19.1469 48.344 19.2938 48.4208C19.7133 48.6304 20.3217 48.6304 20.7203 48.4208L20.7413 48.4068Z" fill="#6AC97B"/>
<path fill-rule="evenodd" clip-rule="evenodd" d="M20.6085 48.2322L20.7344 48.4069L20.6225 48.2183C20.6784 48.1903 20.8253 48.0925 20.8253 47.9878V45.0401C20.3498 45.2986 19.6365 45.2916 19.1609 45.0401V47.9947C19.1609 48.0786 19.2868 48.1764 19.3987 48.2392C19.7484 48.4138 20.2798 48.4138 20.6085 48.2392V48.2322ZM19.9861 48.805C19.7134 48.805 19.4337 48.7421 19.1959 48.6234C18.9022 48.4767 18.7344 48.2462 18.7344 48.0017V44.4325C18.7344 44.3137 18.8253 44.2229 18.9372 44.2159C19.0491 44.202 19.154 44.3067 19.154 44.4255C19.1749 44.5093 19.2309 44.5722 19.2798 44.6071C19.5945 44.8585 20.2658 44.8725 20.6365 44.649C20.8043 44.5512 20.8183 44.4744 20.8183 44.4185C20.8393 44.2998 20.9302 44.202 21.0421 44.2159C21.154 44.2229 21.2449 44.3137 21.2449 44.4325V48.0017C21.2449 48.2392 21.098 48.4418 20.8393 48.5954L20.8183 48.6094C20.5805 48.7351 20.2868 48.805 19.9791 48.805H19.9861Z" fill="#00902C"/>
<path fill-rule="evenodd" clip-rule="evenodd" d="M23.7832 39.2567L21.2517 37.8038C19.2028 38.9982 17.1328 40.1857 15.0559 41.3661V46.046C15.0769 46.2276 15.0909 46.3603 15.2587 46.4721L17.7902 47.9319C17.6223 47.8201 17.6084 47.6874 17.5874 47.5058V42.826C19.6573 41.6385 21.7063 40.4441 23.7832 39.2567Z" fill="#6AC97B"/>
<path fill-rule="evenodd" clip-rule="evenodd" d="M15.2797 41.4989V46.053C15.3007 46.2136 15.3147 46.2556 15.3916 46.3045L17.3706 47.457V42.833C17.3706 42.7561 17.4265 42.6863 17.4825 42.6444L23.3426 39.2637L21.2517 38.0623L15.2797 41.5058V41.4989ZM17.7902 48.1485C17.7552 48.1485 17.7133 48.1345 17.6783 48.1205L15.1538 46.6677C14.8951 46.493 14.8601 46.2765 14.8601 46.067V41.3731C14.8601 41.3033 14.8951 41.2265 14.972 41.1915L21.1468 37.6223C21.2168 37.5873 21.2937 37.5873 21.3636 37.6223L23.8951 39.0821C23.951 39.117 24.007 39.1869 24.007 39.2637C24.007 39.3405 23.951 39.4174 23.8951 39.4523L17.8112 42.9517V47.5128C17.8112 47.6665 17.8461 47.7154 17.9021 47.7573C18.014 47.8272 18.0279 47.9529 17.979 48.0507C17.923 48.1135 17.8671 48.1554 17.7972 48.1554L17.7902 48.1485Z" fill="#00902C"/>
<path fill-rule="evenodd" clip-rule="evenodd" d="M18.2447 47.883C20.0768 46.8213 21.2866 46.1368 23.1188 45.0751C23.3006 44.9703 23.4684 44.7887 23.5943 44.5932C23.7062 44.3836 23.7761 44.1531 23.7761 43.9436V39.2567C21.7062 40.4441 19.6572 41.6386 17.5803 42.826V47.5058C17.5803 47.7084 17.6572 47.8551 17.7831 47.9319C17.895 47.9948 18.0558 47.9878 18.2377 47.883H18.2447Z" fill="white"/>
<path fill-rule="evenodd" clip-rule="evenodd" d="M17.8112 42.9447V47.5058C17.8112 47.6176 17.8461 47.7084 17.9021 47.7433C17.937 47.7712 18.0489 47.7573 18.1398 47.6944L23.014 44.8865C23.1608 44.8027 23.3077 44.656 23.3986 44.4814C23.5105 44.2998 23.5664 44.1042 23.5664 43.9435V39.6339L17.8112 42.9517V42.9447ZM17.958 48.1833C17.8671 48.1833 17.7552 48.1624 17.6853 48.1135C17.4825 48.0017 17.3706 47.7852 17.3706 47.5058V42.8259C17.3706 42.7491 17.4265 42.6793 17.4825 42.6374L23.6783 39.0751C23.7482 39.0332 23.8251 39.0332 23.8951 39.0751C23.951 39.11 24.007 39.1798 24.007 39.2567V43.9365C24.007 44.174 23.9161 44.4464 23.7692 44.6909C23.6433 44.9424 23.4405 45.1379 23.2377 45.2637L18.3636 48.0716C18.2377 48.1484 18.0909 48.1903 17.958 48.1903V48.1833Z" fill="#00902C"/>
<path fill-rule="evenodd" clip-rule="evenodd" d="M23.7832 39.2567L21.2517 37.8038C19.2028 38.9982 17.1328 40.1857 15.0559 41.3661L17.5804 42.826C19.6503 41.6385 21.6993 40.4441 23.7762 39.2567H23.7832Z" fill="#C1E7C6"/>
<path fill-rule="evenodd" clip-rule="evenodd" d="M15.4964 41.3661L17.5873 42.5745L23.3425 39.2497L21.2516 38.0483L15.4964 41.3661ZM17.5873 43.0355C17.5523 43.0355 17.5104 43.0355 17.4754 43.0145L14.9649 41.5547C14.888 41.5198 14.853 41.4429 14.853 41.3661C14.853 41.2963 14.888 41.2194 14.9649 41.1845L21.1397 37.6152C21.2097 37.5803 21.2866 37.5803 21.3565 37.6152L23.888 39.0751C23.9439 39.11 23.9999 39.1799 23.9999 39.2567C23.9999 39.3335 23.9439 39.4104 23.888 39.4453L17.6922 43.0145C17.6572 43.0355 17.6223 43.0355 17.5803 43.0355H17.5873Z" fill="#00902C"/>
<path fill-rule="evenodd" clip-rule="evenodd" d="M21.7481 37.3079C21.839 37.259 21.93 37.1822 21.93 37.0705V35.0658C21.909 35.1706 21.853 35.2334 21.7621 35.2893C21.5244 35.436 21.0838 35.436 20.867 35.2544C20.7901 35.2125 20.7551 35.1426 20.7551 35.0658V37.0705C20.7551 37.1892 20.846 37.273 20.9369 37.3219C21.1747 37.4407 21.5034 37.4407 21.7411 37.3219L21.7481 37.3079Z" fill="#6AC97B"/>
<path fill-rule="evenodd" clip-rule="evenodd" d="M21.6364 37.1263L21.7483 37.3079L21.6364 37.1193C21.6923 37.0984 21.7063 37.0704 21.7063 37.0634V35.5477C21.4686 35.6315 21.1958 35.6315 20.9581 35.5477V37.0704C20.9581 37.0704 20.993 37.0914 21.049 37.1263C21.1958 37.2101 21.4686 37.2101 21.6364 37.1263ZM21.3427 37.6153C21.1609 37.6153 20.993 37.5803 20.8462 37.5035C20.6434 37.4057 20.5315 37.2451 20.5315 37.0704V35.0658C20.5315 34.947 20.6224 34.8562 20.7343 34.8492H20.7553C20.8672 34.8492 20.9581 34.94 20.9581 35.0588C21.1399 35.2055 21.4686 35.2194 21.6574 35.1147C21.6923 35.0937 21.7133 35.0658 21.7133 35.0518C21.7133 34.94 21.8252 34.8562 21.9301 34.8562C22.056 34.8562 22.1469 34.961 22.1469 35.0728V37.0704C22.1259 37.2381 22.035 37.3847 21.8532 37.4895V37.5035C21.6853 37.5803 21.5035 37.6222 21.3427 37.6222V37.6153Z" fill="#00902C"/>
<path fill-rule="evenodd" clip-rule="evenodd" d="M21.3425 35.3941C21.853 35.3941 22.1327 35.0309 21.7481 34.8143C21.3845 34.6048 20.7551 34.7515 20.7551 35.0518C20.7551 35.2893 21.1048 35.3941 21.3425 35.3941Z" fill="#6AC97B"/>
<path fill-rule="evenodd" clip-rule="evenodd" d="M21.3428 34.9331C21.2519 34.9331 21.161 34.947 21.07 34.982C21.0001 35.0099 20.9582 35.0448 20.9582 35.0518C20.9791 35.0937 21.14 35.1775 21.3428 35.1775C21.5805 35.1775 21.6924 35.0728 21.7064 35.0518C21.7064 35.0518 21.6854 35.0239 21.6365 34.9959C21.5596 34.954 21.4547 34.9261 21.3428 34.9261V34.9331ZM21.3428 35.6176C20.9582 35.6176 20.5386 35.422 20.5386 35.0588C20.5386 34.8912 20.6295 34.7375 20.8113 34.6327C21.07 34.486 21.5246 34.4371 21.8533 34.6327C22.07 34.7584 22.1819 34.961 22.126 35.1636C22.0561 35.429 21.7414 35.6106 21.3358 35.6106L21.3428 35.6176Z" fill="#00902C"/>
<path fill-rule="evenodd" clip-rule="evenodd" d="M21.3425 39.592C21.4894 39.592 21.6362 39.5571 21.7481 39.4942C21.874 39.4244 21.93 39.3335 21.93 39.2497C21.93 39.1659 21.874 39.0751 21.7481 39.0053C21.6362 38.9424 21.4894 38.9075 21.3425 38.9075C21.1817 38.9075 21.0279 38.9424 20.923 39.0053C20.8111 39.0751 20.7551 39.1589 20.7551 39.2497C20.7551 39.3405 20.8111 39.4244 20.923 39.4942C21.0348 39.5571 21.1817 39.592 21.3425 39.592Z" fill="white"/>
<path fill-rule="evenodd" clip-rule="evenodd" d="M20.9582 39.2567C20.9582 39.2567 20.9791 39.2776 21.0281 39.3056C21.1749 39.3964 21.4896 39.3964 21.6295 39.3056C21.6854 39.2776 21.6994 39.2497 21.6994 39.2427C21.6994 39.2427 21.6784 39.2217 21.6295 39.1938C21.4826 39.103 21.1749 39.103 21.0281 39.1938C20.9721 39.2217 20.9582 39.2497 20.9582 39.2567ZM21.3428 39.8015C21.14 39.8015 20.9582 39.7596 20.8113 39.6758C20.6295 39.571 20.5386 39.4243 20.5386 39.2497C20.5386 39.0751 20.6295 38.9284 20.8113 38.8236C21.105 38.656 21.5805 38.656 21.8533 38.8236C22.0351 38.9284 22.147 39.0751 22.147 39.2497C22.147 39.4243 22.0351 39.571 21.8533 39.6758C21.7064 39.7596 21.5246 39.8015 21.3428 39.8015Z" fill="#00902C"/>
<path fill-rule="evenodd" clip-rule="evenodd" d="M21.7482 39.4872C21.8391 39.4383 21.93 39.3614 21.93 39.2567V36.791C21.9091 36.9028 21.8391 36.9796 21.7482 37.0285C21.4895 37.1682 21.0699 37.1542 20.8531 36.9796C20.7972 36.9307 20.7622 36.8678 20.7622 36.791V39.2567C20.7622 39.3754 20.8741 39.4662 20.965 39.5081C21.2028 39.6129 21.5314 39.6129 21.7552 39.4942L21.7482 39.4872Z" fill="white"/>
<path fill-rule="evenodd" clip-rule="evenodd" d="M21.6365 39.3056L21.7484 39.4872L21.6365 39.2986C21.6924 39.2776 21.7064 39.2497 21.7064 39.2427V37.273C21.4896 37.3498 21.1959 37.3568 20.9582 37.273V39.2497C20.9582 39.2497 20.9931 39.2846 21.0491 39.3126C21.2099 39.3894 21.4896 39.3824 21.6365 39.2986V39.3056ZM21.3428 39.8015C21.1819 39.8015 21.0141 39.7666 20.8882 39.7037C20.6714 39.6059 20.5386 39.4383 20.5386 39.2497V36.791C20.5386 36.6723 20.6295 36.5815 20.7414 36.5815C20.8323 36.5815 20.9582 36.6653 20.9582 36.784C21.14 36.9307 21.4547 36.9447 21.6365 36.8469C21.6714 36.8259 21.7064 36.798 21.7064 36.784C21.7064 36.6653 21.7973 36.5675 21.9232 36.5815C22.0491 36.5815 22.14 36.6793 22.14 36.791V39.2567C22.119 39.4243 22.0281 39.564 21.8463 39.6688V39.6828C21.6784 39.7666 21.5176 39.8085 21.3358 39.8085L21.3428 39.8015Z" fill="#00902C"/>
<path fill-rule="evenodd" clip-rule="evenodd" d="M18.0839 39.4174C18.1748 39.3685 18.2517 39.2916 18.2657 39.1869V37.1752C18.2447 37.28 18.1748 37.3499 18.1049 37.4057C17.8461 37.5524 17.4266 37.5454 17.1888 37.3708C17.1328 37.3219 17.0769 37.2521 17.0769 37.1752V39.1869C17.0769 39.2986 17.1888 39.3894 17.2797 39.4313C17.4965 39.5501 17.8461 39.5501 18.0699 39.4313L18.0909 39.4174H18.0839Z" fill="#6AC97B"/>
<path fill-rule="evenodd" clip-rule="evenodd" d="M17.9721 39.2357C18.028 39.2078 18.042 39.1799 18.042 39.1729V37.6642C17.8042 37.748 17.5105 37.748 17.2937 37.6642V39.1799C17.2937 39.1799 17.3147 39.2078 17.3707 39.2357C17.5385 39.3196 17.8112 39.3196 17.9721 39.2288V39.2357ZM17.6574 39.7317C17.4756 39.7317 17.3077 39.6967 17.1609 39.6199C16.9791 39.5151 16.8672 39.3615 16.8462 39.1869V37.1752C16.8462 37.0635 16.9581 36.9657 17.063 36.9657C17.1888 36.9866 17.2798 37.0565 17.2798 37.1682C17.4616 37.3149 17.7902 37.3289 17.9581 37.2171C17.993 37.2031 18.028 37.1822 18.028 37.1612C18.028 37.0495 18.1189 36.9587 18.2448 36.9587C18.3567 36.9587 18.4476 37.0565 18.4476 37.1682V39.1799C18.4476 39.3475 18.3567 39.4942 18.1749 39.599H18.1539C18.007 39.6898 17.8252 39.7247 17.6434 39.7247L17.6574 39.7317Z" fill="#00902C"/>
<path fill-rule="evenodd" clip-rule="evenodd" d="M17.6643 37.5105C18.1958 37.5105 18.4545 37.1473 18.0839 36.9307C17.7203 36.7212 17.0769 36.8679 17.0769 37.1752C17.0769 37.4127 17.4266 37.5175 17.6643 37.5175V37.5105Z" fill="#6AC97B"/>
<path fill-rule="evenodd" clip-rule="evenodd" d="M17.6643 37.0495C17.5734 37.0495 17.4825 37.0634 17.4056 37.0914C17.3147 37.1263 17.2937 37.1612 17.2937 37.1682C17.2937 37.2101 17.4755 37.2939 17.6573 37.2939C17.9161 37.2939 18.0209 37.1892 18.0419 37.1612C18.0419 37.1612 18.0209 37.1403 17.972 37.1123C17.8951 37.0634 17.7902 37.0495 17.6573 37.0495H17.6643ZM17.6643 37.72C17.2797 37.72 16.8601 37.5245 16.8601 37.1682C16.8601 37.0006 16.972 36.8469 17.1538 36.7421C17.3916 36.5955 17.8531 36.5396 18.1958 36.7421C18.4126 36.8679 18.5105 37.0704 18.4685 37.273C18.3916 37.5454 18.0629 37.72 17.6643 37.72Z" fill="#00902C"/>
<path fill-rule="evenodd" clip-rule="evenodd" d="M17.6643 41.7084C17.8112 41.7084 17.979 41.6735 18.0839 41.6036C18.1958 41.5407 18.2657 41.4499 18.2657 41.3661C18.2657 41.2753 18.1958 41.1915 18.0839 41.1217C17.972 41.0518 17.8112 41.0239 17.6643 41.0239C17.5175 41.0239 17.3706 41.0518 17.2587 41.1217C17.1328 41.1915 17.0769 41.2753 17.0769 41.3661C17.0769 41.4499 17.1328 41.5338 17.2587 41.6036C17.3706 41.6735 17.5175 41.7084 17.6643 41.7084Z" fill="white"/>
<path fill-rule="evenodd" clip-rule="evenodd" d="M17.2936 41.3661C17.2936 41.3661 17.3146 41.3871 17.3495 41.422C17.5104 41.5058 17.8251 41.5058 17.9719 41.422C18.0279 41.3871 18.0418 41.3661 18.0418 41.3591C18.0418 41.3591 18.0209 41.3382 17.9719 41.3102C17.8251 41.2194 17.5104 41.2194 17.3495 41.3102C17.3146 41.3312 17.2936 41.3591 17.2936 41.3661ZM17.6572 41.9179C17.4754 41.9179 17.2936 41.876 17.1467 41.7922C16.9649 41.6874 16.853 41.5407 16.853 41.3661C16.853 41.1915 16.9649 41.0378 17.1467 40.933C17.4195 40.7724 17.895 40.7724 18.1887 40.94C18.3705 41.0378 18.4614 41.1915 18.4614 41.3661C18.4614 41.5407 18.3705 41.6874 18.1887 41.7922C18.0418 41.876 17.86 41.9179 17.6572 41.9179Z" fill="#00902C"/>
<path fill-rule="evenodd" clip-rule="evenodd" d="M18.0838 41.6036C18.1747 41.5478 18.2516 41.4779 18.2656 41.3661V38.9075C18.2447 39.0192 18.1747 39.0961 18.0628 39.145C17.8251 39.2777 17.4055 39.2707 17.1817 39.0891C17.1258 39.0472 17.0698 38.9773 17.0698 38.9075V41.3661C17.0698 41.4849 17.1957 41.5757 17.2866 41.6176C17.5034 41.7294 17.8391 41.7224 18.0558 41.6036H18.0768H18.0838Z" fill="white"/>
<path fill-rule="evenodd" clip-rule="evenodd" d="M17.9721 41.415C18.028 41.3871 18.042 41.3591 18.042 41.3521V39.3894C17.8252 39.4662 17.5315 39.4732 17.2937 39.3894V41.3661C17.2937 41.3661 17.3287 41.401 17.3847 41.429C17.5525 41.5058 17.8042 41.5058 17.9721 41.415ZM17.6574 41.9109C17.4895 41.9109 17.3287 41.883 17.1958 41.8201C16.993 41.7153 16.8672 41.5547 16.8462 41.3731V38.9074C16.8462 38.7887 16.9581 38.6979 17.063 38.6909C17.1888 38.6909 17.2798 38.7817 17.2798 38.9004C17.4476 39.0471 17.7763 39.0611 17.9581 38.9633C17.993 38.9423 18.028 38.9144 18.028 38.8935C18.028 38.7817 18.1189 38.6769 18.2448 38.6909C18.3567 38.6909 18.4476 38.7957 18.4476 38.9074V41.3661C18.4476 41.5337 18.3567 41.6804 18.1749 41.7852H18.1539C18.007 41.869 17.8252 41.9039 17.6434 41.9039L17.6574 41.9109Z" fill="#00902C"/>
<path fill-rule="evenodd" clip-rule="evenodd" d="M10 51.7736L10.7343 51.3545L19.7343 56.5442L19.014 56.9633L9.95106 62.181L9.58043 62.3976L9.2168 62.6001V64.2835L0.216797 59.0937V57.4174L0.587426 57.2078L0.951063 56.9983L10 51.7736Z" fill="#C1E7C6"/>
<path fill-rule="evenodd" clip-rule="evenodd" d="M0.440559 58.975L9.01399 63.9133V62.6071C9.01399 62.5373 9.04895 62.4604 9.1049 62.4255L19.3077 56.5442L10.7343 51.6059L0.440559 57.5361V58.968V58.975ZM9.21678 64.5C9.18182 64.5 9.14685 64.486 9.1049 64.4721L0.111888 59.2823C0.0559441 59.2404 0 59.1706 0 59.0937V57.4174C0 57.3405 0.0559441 57.2707 0.111888 57.2288L9.91608 51.585L10.6294 51.1659C10.6993 51.131 10.7972 51.131 10.8462 51.1659L19.8392 56.3557C19.9091 56.3906 19.951 56.4604 19.951 56.5442C19.951 56.6211 19.9161 56.6909 19.8392 56.7259L9.43357 62.7328V64.2835C9.43357 64.3533 9.3986 64.4302 9.32168 64.4651C9.28671 64.486 9.25175 64.493 9.20979 64.493L9.21678 64.5Z" fill="#00902C"/>
<path fill-rule="evenodd" clip-rule="evenodd" d="M19.014 56.9633L19.7343 56.5443V58.2206L17.8112 59.3242L11.1399 63.1729L9.2168 64.2835V62.6001L9.58043 62.3976L9.95106 62.181L19.014 56.9633Z" fill="white"/>
<path fill-rule="evenodd" clip-rule="evenodd" d="M9.4335 62.7328V63.9133L19.5314 58.0949V56.9214L19.1118 57.1519L9.44049 62.7398L9.4335 62.7328ZM9.21671 64.5C9.18175 64.5 9.14678 64.486 9.10483 64.472C9.04888 64.4371 9.01392 64.3603 9.01392 64.2904V62.6071C9.01392 62.5372 9.04888 62.4604 9.10483 62.4255L18.909 56.7817L19.6223 56.3626C19.6922 56.3277 19.7901 56.3277 19.8391 56.3626C19.909 56.3975 19.951 56.4674 19.951 56.5512V58.2276C19.951 58.3044 19.916 58.3743 19.8391 58.4092L9.32161 64.472C9.28664 64.493 9.25168 64.5 9.20972 64.5H9.21671Z" fill="#00902C"/>
<path fill-rule="evenodd" clip-rule="evenodd" d="M6.96504 60.4628L3.9021 58.7096V43.2241C3.93706 42.7142 4.02797 42.4977 4.25175 42.0437C4.52448 41.6176 4.67133 41.436 5.09091 41.1496L11.7622 37.301C12.1119 37.1403 12.2587 37.0844 12.6224 37.2241L15.6643 38.9773L15.4825 38.9075L15.2797 38.8935L15.0629 38.9424L14.8252 39.0611L8.15385 42.9028C7.74825 43.1822 7.56644 43.3987 7.30769 43.7969C7.06993 44.2509 6.99301 44.4674 6.95804 44.9773V60.4558L6.96504 60.4628Z" fill="#C1E7C6"/>
<path fill-rule="evenodd" clip-rule="evenodd" d="M4.11894 58.5769L6.74132 60.0856V44.9773C6.77628 44.4325 6.86719 44.181 7.10495 43.6991C7.37768 43.273 7.58048 43.0285 8.02104 42.7282L14.8882 38.7817L12.5036 37.4057C12.2448 37.3149 12.1749 37.3498 11.8462 37.4965L5.20286 41.3382C4.83922 41.5966 4.70635 41.7503 4.43362 42.1624C4.23083 42.5815 4.1609 42.7701 4.11894 43.2381V58.5838V58.5769ZM6.9581 60.6793C6.92313 60.6793 6.88118 60.6653 6.84621 60.6444L3.78327 58.8842C3.72733 58.8493 3.67139 58.7724 3.67139 58.7026V43.2241C3.72733 42.6723 3.81824 42.4209 4.056 41.9459C4.37069 41.4709 4.53153 41.2684 4.97209 40.968L11.6714 37.1193C12.056 36.9377 12.2588 36.8679 12.6994 37.0216L15.7763 38.7957C15.8672 38.8586 15.9022 38.9773 15.8672 39.0751C15.8112 39.1799 15.7064 39.2288 15.5945 39.1799L15.4476 39.124H15.3008L15.098 39.1589L14.9161 39.2567L8.24481 43.0914C7.89516 43.3429 7.71334 43.5524 7.47558 43.9086C7.27279 44.3347 7.20286 44.5233 7.1609 44.9913V60.4558C7.1609 60.5396 7.12593 60.6025 7.04901 60.6444C7.02803 60.6653 6.99306 60.6793 6.9581 60.6793Z" fill="#00902C"/>
<path fill-rule="evenodd" clip-rule="evenodd" d="M8.1539 42.9098L14.8252 39.0681C15.4826 38.6839 16.014 38.9913 16.014 39.7526V55.2311L6.96509 60.4558V44.9773C6.96509 44.2159 7.49656 43.2869 8.1539 42.9028V42.9098Z" fill="white"/>
<path fill-rule="evenodd" clip-rule="evenodd" d="M8.24471 43.0984C7.65729 43.4407 7.16079 44.2998 7.16079 44.9773V60.0856L15.7902 55.1054V39.7526C15.7902 39.4733 15.7132 39.2567 15.5524 39.1729C15.4055 39.0821 15.1678 39.11 14.93 39.2497L8.24471 43.0984ZM6.96499 60.6793C6.93002 60.6793 6.88806 60.6653 6.8531 60.6444C6.78317 60.6025 6.74121 60.5396 6.74121 60.4558V44.9773C6.74121 44.1461 7.32862 43.1333 8.04191 42.7142L14.7132 38.8726C15.0979 38.649 15.4825 38.6211 15.7762 38.7887C16.0699 38.9634 16.2307 39.3056 16.2307 39.7457V55.2311C16.2307 55.3079 16.1958 55.3848 16.1188 55.4197L7.0489 60.6444C7.0489 60.6444 6.99296 60.6793 6.95799 60.6793H6.96499Z" fill="#00902C"/>
<path fill-rule="evenodd" clip-rule="evenodd" d="M8.22388 44.5303L14.5106 40.9052V46.0041L8.22388 49.6292V44.5303Z" fill="white"/>
<path fill-rule="evenodd" clip-rule="evenodd" d="M8.42657 44.649V49.252L14.2867 45.8783V41.2683L8.42657 44.642V44.649ZM8.22378 49.8457C8.18881 49.8457 8.15385 49.8318 8.11189 49.8178C8.04196 49.7759 8 49.706 8 49.6292V44.5302C8 44.4534 8.03497 44.3766 8.11189 44.3416L14.3986 40.7165C14.4545 40.6816 14.5455 40.6816 14.6154 40.7165C14.6713 40.7514 14.7273 40.8283 14.7273 40.9051V46.004C14.7273 46.0809 14.6713 46.1577 14.6154 46.1926L8.31469 49.8178C8.31469 49.8178 8.25874 49.8457 8.22378 49.8457Z" fill="#00902C"/>
<path fill-rule="evenodd" clip-rule="evenodd" d="M8.22388 44.5303L14.5106 40.9052V46.0041L8.22388 49.6292V44.5303Z" fill="#C1E7C6"/>
<path fill-rule="evenodd" clip-rule="evenodd" d="M8.42657 44.649V49.252L14.2867 45.8783V41.2683L8.42657 44.642V44.649ZM8.22378 49.8457C8.18881 49.8457 8.15385 49.8318 8.11189 49.8178C8.04196 49.7759 8 49.706 8 49.6292V44.5302C8 44.4534 8.03497 44.3766 8.11189 44.3416L14.3986 40.7165C14.4545 40.6816 14.5455 40.6816 14.6154 40.7165C14.6713 40.7514 14.7273 40.8283 14.7273 40.9051V46.004C14.7273 46.0809 14.6713 46.1577 14.6154 46.1926L8.31469 49.8178C8.31469 49.8178 8.25874 49.8457 8.22378 49.8457Z" fill="#00902C"/>
<path fill-rule="evenodd" clip-rule="evenodd" d="M12.6434 43.4826L12.7553 43.6711C12.7553 43.6711 12.6994 43.734 12.6994 43.755V45.1938L13.4127 44.7957C13.4127 44.7957 13.4476 44.7259 13.4476 44.7049V43.266L12.7483 43.6781L12.6364 43.4895L12.6434 43.4826ZM12.5735 45.7177C12.5385 45.7177 12.4826 45.6968 12.4266 45.6758C12.3357 45.6199 12.2798 45.5151 12.2798 45.3894V43.7619C12.2798 43.5803 12.3917 43.3848 12.5385 43.294L13.4196 42.798C13.5106 42.7352 13.6364 42.7282 13.7343 42.7771C13.8462 42.8399 13.8952 42.9447 13.8952 43.0704V44.6909C13.8952 44.8725 13.7833 45.0681 13.6224 45.1589L12.7623 45.6548C12.7064 45.6898 12.6504 45.7107 12.5805 45.7107L12.5735 45.7177Z" fill="#00902C"/>
<path fill-rule="evenodd" clip-rule="evenodd" d="M11.0141 44.677C11.0141 44.677 10.9582 44.7398 10.9582 44.7678V46.2066L11.6714 45.8015C11.6714 45.8015 11.7064 45.7387 11.7064 45.7177V44.2788L11.0071 44.677H11.0141ZM10.8323 46.7235C10.7973 46.7235 10.7414 46.7096 10.6854 46.6886C10.5945 46.6257 10.5386 46.521 10.5386 46.3952V44.7747C10.5386 44.5931 10.6505 44.3976 10.7973 44.3068L11.6575 43.8108C11.7833 43.748 11.8952 43.748 12.0071 43.7969C12.098 43.8527 12.154 43.9575 12.154 44.0902V45.7107C12.154 45.8923 12.0421 46.0879 11.8812 46.1787L11.0211 46.6746C10.9651 46.7026 10.8952 46.7235 10.8393 46.7235H10.8323Z" fill="#00902C"/>
<path fill-rule="evenodd" clip-rule="evenodd" d="M9.96511 45.2777L9.26581 45.6828C9.26581 45.6828 9.20986 45.7457 9.20986 45.7666V47.2125L9.90916 46.8074C9.90916 46.8074 9.96511 46.7375 9.96511 46.7166V45.2777ZM9.08399 47.7294C9.02805 47.7294 8.9721 47.7154 8.93714 47.6875C8.84623 47.6316 8.79028 47.5268 8.79028 47.4011V45.7736C8.79028 45.592 8.90217 45.3964 9.04902 45.3056L9.90916 44.8167C10.0211 44.7538 10.1469 44.7398 10.2378 44.8027C10.3497 44.8586 10.4057 44.9634 10.4057 45.0891V46.7166C10.4057 46.8982 10.2938 47.0937 10.1329 47.1776L9.2728 47.6735C9.21686 47.7084 9.14693 47.7294 9.09098 47.7294H9.08399Z" fill="#00902C"/>
<path fill-rule="evenodd" clip-rule="evenodd" d="M7.32867 43.7549L4.28672 41.9948L4.25175 42.0506C4.02797 42.4977 3.93706 42.7212 3.9021 43.2311V58.7095L6.96504 60.4627V44.9773C7 44.4674 7.07692 44.2578 7.31469 43.7968L7.33567 43.748L7.32867 43.7549Z" fill="#6AC97B"/>
<path fill-rule="evenodd" clip-rule="evenodd" d="M4.11894 58.5769L6.74132 60.0856V44.9773C6.77628 44.4814 6.85321 44.2299 7.056 43.8248L4.38467 42.2812C4.21684 42.6234 4.16789 42.812 4.12593 43.2241V58.5699L4.11894 58.5769ZM6.9581 60.6793C6.92313 60.6793 6.88118 60.6653 6.84621 60.6444L3.78327 58.8842C3.72733 58.8493 3.67139 58.7724 3.67139 58.7026V43.2241C3.72733 42.6723 3.79726 42.4348 4.056 41.9459L4.09097 41.876C4.1609 41.7783 4.29376 41.7503 4.38467 41.8062L7.42663 43.5594C7.48258 43.5873 7.51754 43.6362 7.53852 43.6991C7.5595 43.755 7.53852 43.8178 7.50355 43.8597L7.46859 43.9156C7.26579 44.3347 7.19586 44.5233 7.1539 44.9913V60.4558C7.1539 60.5396 7.11894 60.6025 7.04202 60.6444C7.02104 60.6653 6.98607 60.6793 6.95111 60.6793H6.9581Z" fill="#00902C"/>
<path fill-rule="evenodd" clip-rule="evenodd" d="M9.2168 62.691V64.2835L0.216797 59.0937V57.5082L9.2168 62.691Z" fill="#6AC97B"/>
<path fill-rule="evenodd" clip-rule="evenodd" d="M0.440559 58.9749L9.01399 63.9132V62.8236L0.440559 57.8783V58.968V58.9749ZM9.21678 64.5C9.18182 64.5 9.14685 64.486 9.1049 64.472L0.111888 59.2823C0.0559441 59.2404 0 59.1705 0 59.0937V57.5081C0 57.4313 0.0559441 57.3545 0.111888 57.3195C0.188811 57.2846 0.27972 57.2846 0.328671 57.3195L9.32168 62.5093C9.3986 62.5442 9.43357 62.6141 9.43357 62.6909V64.2834C9.43357 64.3533 9.3986 64.4301 9.32168 64.465C9.28671 64.486 9.25175 64.493 9.20979 64.493L9.21678 64.5Z" fill="#00902C"/>
</g>
</g>
<defs>
<clipPath id="clip0_3764_113867">
<rect width="64" height="64" fill="white" transform="translate(0 0.5)"/>
</clipPath>
<clipPath id="clip1_3764_113867">
<rect width="36" height="54" fill="white" transform="translate(12 1.5)"/>
</clipPath>
<clipPath id="clip2_3764_113867">
<rect width="16" height="20" fill="white" transform="translate(48 0.5)"/>
</clipPath>
<clipPath id="clip3_3764_113867">
<rect width="24" height="30" fill="white" transform="translate(0 34.5)"/>
</clipPath>
</defs>
</svg>
