<svg width="24" height="24" viewBox="0 0 24 24" fill="none" xmlns="http://www.w3.org/2000/svg">
<path fill-rule="evenodd" clip-rule="evenodd" d="M12 5.23077C8.26146 5.23077 5.23077 8.26146 5.23077 12C5.23077 15.7385 8.26146 18.7692 12 18.7692C15.7385 18.7692 18.7692 15.7385 18.7692 12C18.7692 8.26146 15.7385 5.23077 12 5.23077ZM4 12C4 7.58172 7.58172 4 12 4C16.4183 4 20 7.58172 20 12C20 16.4183 16.4183 20 12 20C7.58172 20 4 16.4183 4 12Z" fill="#ffffff"/>
<path fill-rule="evenodd" clip-rule="evenodd" d="M4.42308 9.53848C4.42308 9.19861 4.6986 8.9231 5.03847 8.9231H18.9615C19.3014 8.9231 19.5769 9.19861 19.5769 9.53848C19.5769 9.87835 19.3014 10.1539 18.9615 10.1539H5.03847C4.6986 10.1539 4.42308 9.87835 4.42308 9.53848Z" fill="#ffffff"/>
<path fill-rule="evenodd" clip-rule="evenodd" d="M4.42308 14.4616C4.42308 14.1217 4.6986 13.8462 5.03847 13.8462H18.9615C19.3014 13.8462 19.5769 14.1217 19.5769 14.4616C19.5769 14.8014 19.3014 15.077 18.9615 15.077H5.03847C4.6986 15.077 4.42308 14.8014 4.42308 14.4616Z" fill="#ffffff"/>
<path fill-rule="evenodd" clip-rule="evenodd" d="M10.39 7.16193C9.87315 8.36873 9.53846 10.0788 9.53846 12C9.53846 13.9211 9.87315 15.6312 10.39 16.838C10.6489 17.4425 10.9413 17.8923 11.2347 18.1821C11.5255 18.4693 11.7834 18.5692 12 18.5692C12.2166 18.5692 12.4745 18.4693 12.7653 18.1821C13.0587 17.8923 13.3511 17.4425 13.61 16.838C14.1269 15.6312 14.4615 13.9211 14.4615 12C14.4615 10.0788 14.1269 8.36873 13.61 7.16193C13.3511 6.55742 13.0587 6.10756 12.7653 5.81778C12.4745 5.5306 12.2166 5.43072 12 5.43072C11.7834 5.43072 11.5255 5.5306 11.2347 5.81778C10.9413 6.10756 10.6489 6.55742 10.39 7.16193ZM10.3699 4.94209C10.8154 4.50215 11.3669 4.19995 12 4.19995C12.6331 4.19995 13.1846 4.50215 13.6301 4.94209C14.0729 5.37943 14.4435 5.98174 14.7414 6.6774C15.3382 8.07091 15.6923 9.95314 15.6923 12C15.6923 14.0468 15.3382 15.929 14.7414 17.3225C14.4435 18.0182 14.0729 18.6205 13.6301 19.0578C13.1846 19.4977 12.6331 19.7999 12 19.7999C11.3669 19.7999 10.8154 19.4977 10.3699 19.0578C9.92708 18.6205 9.55652 18.0182 9.2586 17.3225C8.6618 15.929 8.30769 14.0468 8.30769 12C8.30769 9.95314 8.6618 8.07091 9.2586 6.6774C9.55652 5.98174 9.92708 5.37943 10.3699 4.94209Z" fill="#ffffff"/>
</svg>
