<svg width="58" height="65" viewBox="0 0 58 65" fill="none" xmlns="http://www.w3.org/2000/svg">
<g clip-path="url(#clip0_339_652)">
<g style="mix-blend-mode:multiply">
<path opacity="0.02" d="M28.6194 64.4432C44.3896 64.4432 57.1739 57.6368 57.1739 49.2407C57.1739 40.8445 44.3896 34.0381 28.6194 34.0381C12.8492 34.0381 0.0649414 40.8445 0.0649414 49.2407C0.0649414 57.6368 12.8492 64.4432 28.6194 64.4432Z" fill="#FDF9F9"/>
<path opacity="0.02" d="M28.6194 64.4188C44.3717 64.4188 57.1414 57.6233 57.1414 49.2407C57.1414 40.858 44.3717 34.0625 28.6194 34.0625C12.8671 34.0625 0.0974121 40.858 0.0974121 49.2407C0.0974121 57.6233 12.8671 64.4188 28.6194 64.4188Z" fill="#FCF8F8"/>
<path opacity="0.03" d="M28.6194 64.3864C44.3538 64.3864 57.109 57.6054 57.109 49.2407C57.109 40.8759 44.3538 34.0949 28.6194 34.0949C12.8851 34.0949 0.129883 40.8759 0.129883 49.2407C0.129883 57.6054 12.8851 64.3864 28.6194 64.3864Z" fill="#FBF7F7"/>
<path opacity="0.04" d="M28.6194 64.3539C44.3358 64.3539 57.0765 57.5875 57.0765 49.2406C57.0765 40.8938 44.3358 34.1274 28.6194 34.1274C12.903 34.1274 0.162354 40.8938 0.162354 49.2406C0.162354 57.5875 12.903 64.3539 28.6194 64.3539Z" fill="#FAF6F6"/>
<path opacity="0.05" d="M28.6194 64.3295C44.3179 64.3295 57.044 57.574 57.044 49.2406C57.044 40.9073 44.3179 34.1517 28.6194 34.1517C12.921 34.1517 0.194824 40.9073 0.194824 49.2406C0.194824 57.574 12.921 64.3295 28.6194 64.3295Z" fill="#F9F5F5"/>
<path opacity="0.05" d="M28.6194 64.2971C44.3 64.2971 57.0116 57.5561 57.0116 49.2406C57.0116 40.9252 44.3 34.1842 28.6194 34.1842C12.9389 34.1842 0.227295 40.9252 0.227295 49.2406C0.227295 57.5561 12.9389 64.2971 28.6194 64.2971Z" fill="#F8F4F4"/>
<path opacity="0.06" d="M28.6194 64.2646C44.282 64.2646 56.9791 57.5382 56.9791 49.2406C56.9791 40.9431 44.282 34.2167 28.6194 34.2167C12.9568 34.2167 0.259766 40.9431 0.259766 49.2406C0.259766 57.5382 12.9568 64.2646 28.6194 64.2646Z" fill="#F7F3F3"/>
<path opacity="0.07" d="M28.6194 64.2321C44.2641 64.2321 56.9466 57.5202 56.9466 49.2406C56.9466 40.9611 44.2641 34.2491 28.6194 34.2491C12.9748 34.2491 0.292236 40.9611 0.292236 49.2406C0.292236 57.5202 12.9748 64.2321 28.6194 64.2321Z" fill="#F6F2F2"/>
<path opacity="0.08" d="M28.6194 64.2078C44.2462 64.2078 56.9142 57.5068 56.9142 49.2407C56.9142 40.9745 44.2462 34.2735 28.6194 34.2735C12.9927 34.2735 0.324707 40.9745 0.324707 49.2407C0.324707 57.5068 12.9927 64.2078 28.6194 64.2078Z" fill="#F5F1F1"/>
<path opacity="0.08" d="M28.6194 64.1753C44.2283 64.1753 56.8817 57.4889 56.8817 49.2407C56.8817 40.9925 44.2283 34.306 28.6194 34.306C13.0106 34.306 0.357178 40.9925 0.357178 49.2407C0.357178 57.4889 13.0106 64.1753 28.6194 64.1753Z" fill="#F4F0F0"/>
<path opacity="0.09" d="M28.6195 64.1429C44.2103 64.1429 56.8493 57.4709 56.8493 49.2407C56.8493 41.0104 44.2103 34.3384 28.6195 34.3384C13.0286 34.3384 0.389648 41.0104 0.389648 49.2407C0.389648 57.4709 13.0286 64.1429 28.6195 64.1429Z" fill="#F3EFEF"/>
<path opacity="0.1" d="M28.6195 64.1185C44.1924 64.1185 56.8168 57.4575 56.8168 49.2406C56.8168 41.0238 44.1924 34.3628 28.6195 34.3628C13.0465 34.3628 0.422119 41.0238 0.422119 49.2406C0.422119 57.4575 13.0465 64.1185 28.6195 64.1185Z" fill="#F2EEEE"/>
<path opacity="0.11" d="M28.6195 64.086C44.1745 64.086 56.7843 57.4395 56.7843 49.2406C56.7843 41.0417 44.1745 34.3952 28.6195 34.3952C13.0644 34.3952 0.45459 41.0417 0.45459 49.2406C0.45459 57.4395 13.0644 64.086 28.6195 64.086Z" fill="#F1EDED"/>
<path opacity="0.11" d="M28.6195 64.0536C44.1566 64.0536 56.7519 57.4216 56.7519 49.2406C56.7519 41.0597 44.1566 34.4277 28.6195 34.4277C13.0824 34.4277 0.487061 41.0597 0.487061 49.2406C0.487061 57.4216 13.0824 64.0536 28.6195 64.0536Z" fill="#F0ECEC"/>
<path opacity="0.12" d="M28.6194 64.0292C44.1431 64.0292 56.7275 57.4082 56.7275 49.2406C56.7275 41.0731 44.1431 34.4521 28.6194 34.4521C13.0958 34.4521 0.511353 41.0731 0.511353 49.2406C0.511353 57.4082 13.0958 64.0292 28.6194 64.0292Z" fill="#EFEBEB"/>
<path opacity="0.13" d="M28.6194 63.9968C44.1251 63.9968 56.695 57.3902 56.695 49.2406C56.695 41.0911 44.1251 34.4845 28.6194 34.4845C13.1137 34.4845 0.543823 41.0911 0.543823 49.2406C0.543823 57.3902 13.1137 63.9968 28.6194 63.9968Z" fill="#EEEAEA"/>
<path opacity="0.14" d="M28.6194 63.9643C44.1072 63.9643 56.6625 57.3723 56.6625 49.2407C56.6625 41.109 44.1072 34.517 28.6194 34.517C13.1316 34.517 0.576294 41.109 0.576294 49.2407C0.576294 57.3723 13.1316 63.9643 28.6194 63.9643Z" fill="#EDE9E9"/>
<path opacity="0.14" d="M28.6194 63.94C44.0893 63.94 56.6301 57.3589 56.6301 49.2407C56.6301 41.1225 44.0893 34.5414 28.6194 34.5414C13.1496 34.5414 0.608765 41.1225 0.608765 49.2407C0.608765 57.3589 13.1496 63.94 28.6194 63.94Z" fill="#ECE8E8"/>
<path opacity="0.15" d="M28.6194 63.9075C44.0713 63.9075 56.5976 57.3409 56.5976 49.2407C56.5976 41.1404 44.0713 34.5738 28.6194 34.5738C13.1675 34.5738 0.641235 41.1404 0.641235 49.2407C0.641235 57.3409 13.1675 63.9075 28.6194 63.9075Z" fill="#EBE7E7"/>
<path opacity="0.16" d="M28.6194 63.875C44.0534 63.875 56.5651 57.323 56.5651 49.2406C56.5651 41.1583 44.0534 34.6063 28.6194 34.6063C13.1854 34.6063 0.673706 41.1583 0.673706 49.2406C0.673706 57.323 13.1854 63.875 28.6194 63.875Z" fill="#EAE6E6"/>
<path opacity="0.17" d="M28.6194 63.8507C44.0355 63.8507 56.5327 57.3095 56.5327 49.2406C56.5327 41.1717 44.0355 34.6306 28.6194 34.6306C13.2034 34.6306 0.706177 41.1717 0.706177 49.2406C0.706177 57.3095 13.2034 63.8507 28.6194 63.8507Z" fill="#E9E5E5"/>
<path opacity="0.17" d="M28.6194 63.8182C44.0176 63.8182 56.5002 57.2916 56.5002 49.2406C56.5002 41.1897 44.0176 34.6631 28.6194 34.6631C13.2213 34.6631 0.738647 41.1897 0.738647 49.2406C0.738647 57.2916 13.2213 63.8182 28.6194 63.8182Z" fill="#E8E4E4"/>
<path opacity="0.18" d="M28.6194 63.7857C43.9996 63.7857 56.4678 57.2737 56.4678 49.2406C56.4678 41.2076 43.9996 34.6956 28.6194 34.6956C13.2392 34.6956 0.771118 41.2076 0.771118 49.2406C0.771118 57.2737 13.2392 63.7857 28.6194 63.7857Z" fill="#E7E3E3"/>
<path opacity="0.19" d="M28.6194 63.7614C43.9817 63.7614 56.4353 57.2602 56.4353 49.2406C56.4353 41.2211 43.9817 34.7199 28.6194 34.7199C13.2572 34.7199 0.803589 41.2211 0.803589 49.2406C0.803589 57.2602 13.2572 63.7614 28.6194 63.7614Z" fill="#E6E2E2"/>
<path opacity="0.2" d="M28.6194 63.7289C43.9638 63.7289 56.4028 57.2423 56.4028 49.2406C56.4028 41.239 43.9638 34.7524 28.6194 34.7524C13.2751 34.7524 0.83606 41.239 0.83606 49.2406C0.83606 57.2423 13.2751 63.7289 28.6194 63.7289Z" fill="#E5E1E1"/>
<path opacity="0.2" d="M28.6194 63.6965C43.9459 63.6965 56.3704 57.2244 56.3704 49.2407C56.3704 41.2569 43.9459 34.7849 28.6194 34.7849C13.293 34.7849 0.86853 41.2569 0.86853 49.2407C0.86853 57.2244 13.293 63.6965 28.6194 63.6965Z" fill="#E4E0E0"/>
<path opacity="0.21" d="M28.6195 63.6721C43.9279 63.6721 56.3379 57.2109 56.3379 49.2407C56.3379 41.2704 43.9279 34.8092 28.6195 34.8092C13.311 34.8092 0.901001 41.2704 0.901001 49.2407C0.901001 57.2109 13.311 63.6721 28.6195 63.6721Z" fill="#E3DFDF"/>
<path opacity="0.22" d="M28.6195 63.6396C43.91 63.6396 56.3054 57.193 56.3054 49.2407C56.3054 41.2883 43.91 34.8417 28.6195 34.8417C13.3289 34.8417 0.933472 41.2883 0.933472 49.2407C0.933472 57.193 13.3289 63.6396 28.6195 63.6396Z" fill="#E2DEDE"/>
<path opacity="0.23" d="M28.6195 63.6072C43.8921 63.6072 56.273 57.175 56.273 49.2406C56.273 41.3062 43.8921 34.8741 28.6195 34.8741C13.3468 34.8741 0.965942 41.3062 0.965942 49.2406C0.965942 57.175 13.3468 63.6072 28.6195 63.6072Z" fill="#E1DDDD"/>
<path opacity="0.23" d="M28.6193 63.5828C43.874 63.5828 56.2404 57.1616 56.2404 49.2406C56.2404 41.3197 43.874 34.8985 28.6193 34.8985C13.3647 34.8985 0.998291 41.3197 0.998291 49.2406C0.998291 57.1616 13.3647 63.5828 28.6193 63.5828Z" fill="#E0DCDC"/>
<path opacity="0.24" d="M28.6193 63.5503C43.8561 63.5503 56.2079 57.1437 56.2079 49.2406C56.2079 41.3376 43.8561 34.9309 28.6193 34.9309C13.3826 34.9309 1.03076 41.3376 1.03076 49.2406C1.03076 57.1437 13.3826 63.5503 28.6193 63.5503Z" fill="#DFDBDB"/>
<path opacity="0.25" d="M28.6194 63.5179C43.8382 63.5179 56.1755 57.1257 56.1755 49.2406C56.1755 41.3555 43.8382 34.9634 28.6194 34.9634C13.4005 34.9634 1.06323 41.3555 1.06323 49.2406C1.06323 57.1257 13.4005 63.5179 28.6194 63.5179Z" fill="#DEDADA"/>
<path opacity="0.26" d="M28.6194 63.4854C43.8203 63.4854 56.143 57.1078 56.143 49.2406C56.143 41.3735 43.8203 34.9959 28.6194 34.9959C13.4185 34.9959 1.0957 41.3735 1.0957 49.2406C1.0957 57.1078 13.4185 63.4854 28.6194 63.4854Z" fill="#DDDADA"/>
<path opacity="0.26" d="M28.6194 63.4611C43.8069 63.4611 56.1187 57.0944 56.1187 49.2407C56.1187 41.3869 43.8069 35.0202 28.6194 35.0202C13.432 35.0202 1.12012 41.3869 1.12012 49.2407C1.12012 57.0944 13.432 63.4611 28.6194 63.4611Z" fill="#DCD9D9"/>
<path opacity="0.27" d="M28.6194 63.4286C43.7889 63.4286 56.0863 57.0764 56.0863 49.2407C56.0863 41.4049 43.7889 35.0527 28.6194 35.0527C13.4499 35.0527 1.15259 41.4049 1.15259 49.2407C1.15259 57.0764 13.4499 63.4286 28.6194 63.4286Z" fill="#DBD8D8"/>
<path opacity="0.28" d="M28.6194 63.3961C43.771 63.3961 56.0538 57.0585 56.0538 49.2407C56.0538 41.4228 43.771 35.0852 28.6194 35.0852C13.4678 35.0852 1.18506 41.4228 1.18506 49.2407C1.18506 57.0585 13.4678 63.3961 28.6194 63.3961Z" fill="#DAD7D7"/>
<path opacity="0.29" d="M28.6194 63.3718C43.7531 63.3718 56.0213 57.045 56.0213 49.2406C56.0213 41.4362 43.7531 35.1095 28.6194 35.1095C13.4858 35.1095 1.21753 41.4362 1.21753 49.2406C1.21753 57.045 13.4858 63.3718 28.6194 63.3718Z" fill="#D9D6D6"/>
<path opacity="0.29" d="M28.6194 63.3393C43.7352 63.3393 55.9889 57.0271 55.9889 49.2406C55.9889 41.4542 43.7352 35.142 28.6194 35.142C13.5037 35.142 1.25 41.4542 1.25 49.2406C1.25 57.0271 13.5037 63.3393 28.6194 63.3393Z" fill="#D8D5D5"/>
<path opacity="0.3" d="M28.6194 63.3068C43.7172 63.3068 55.9564 57.0092 55.9564 49.2406C55.9564 41.4721 43.7172 35.1744 28.6194 35.1744C13.5216 35.1744 1.28247 41.4721 1.28247 49.2406C1.28247 57.0092 13.5216 63.3068 28.6194 63.3068Z" fill="#D7D4D4"/>
<path opacity="0.31" d="M28.6194 63.2825C43.6993 63.2825 55.9239 56.9957 55.9239 49.2406C55.9239 41.4855 43.6993 35.1988 28.6194 35.1988C13.5396 35.1988 1.31494 41.4855 1.31494 49.2406C1.31494 56.9957 13.5396 63.2825 28.6194 63.2825Z" fill="#D6D3D3"/>
<path opacity="0.32" d="M28.6194 63.25C43.6814 63.25 55.8915 56.9778 55.8915 49.2406C55.8915 41.5035 43.6814 35.2313 28.6194 35.2313C13.5575 35.2313 1.34741 41.5035 1.34741 49.2406C1.34741 56.9778 13.5575 63.25 28.6194 63.25Z" fill="#D5D2D2"/>
<path opacity="0.32" d="M28.6194 63.2176C43.6634 63.2176 55.859 56.9599 55.859 49.2406C55.859 41.5214 43.6634 35.2637 28.6194 35.2637C13.5755 35.2637 1.37988 41.5214 1.37988 49.2406C1.37988 56.9599 13.5755 63.2176 28.6194 63.2176Z" fill="#D4D1D1"/>
<path opacity="0.33" d="M28.6195 63.1932C43.6455 63.1932 55.8266 56.9464 55.8266 49.2407C55.8266 41.5349 43.6455 35.2881 28.6195 35.2881C13.5934 35.2881 1.41235 41.5349 1.41235 49.2407C1.41235 56.9464 13.5934 63.1932 28.6195 63.1932Z" fill="#D3D0D0"/>
<path opacity="0.34" d="M28.6195 63.1608C43.6276 63.1608 55.7941 56.9285 55.7941 49.2407C55.7941 41.5528 43.6276 35.3206 28.6195 35.3206C13.6113 35.3206 1.44482 41.5528 1.44482 49.2407C1.44482 56.9285 13.6113 63.1608 28.6195 63.1608Z" fill="#D2CFCF"/>
<path opacity="0.35" d="M28.6195 63.1283C43.6097 63.1283 55.7616 56.9106 55.7616 49.2406C55.7616 41.5707 43.6097 35.353 28.6195 35.353C13.6293 35.353 1.47729 41.5707 1.47729 49.2406C1.47729 56.9106 13.6293 63.1283 28.6195 63.1283Z" fill="#D1CECE"/>
<path opacity="0.35" d="M28.6193 63.1039C43.5916 63.1039 55.729 56.8971 55.729 49.2406C55.729 41.5842 43.5916 35.3773 28.6193 35.3773C13.6471 35.3773 1.50964 41.5842 1.50964 49.2406C1.50964 56.8971 13.6471 63.1039 28.6193 63.1039Z" fill="#D0CDCD"/>
<path opacity="0.36" d="M28.6193 63.0715C43.5737 63.0715 55.6966 56.8792 55.6966 49.2406C55.6966 41.6021 43.5737 35.4098 28.6193 35.4098C13.665 35.4098 1.54211 41.6021 1.54211 49.2406C1.54211 56.8792 13.665 63.0715 28.6193 63.0715Z" fill="#CFCCCC"/>
<path opacity="0.37" d="M28.6194 63.039C43.5558 63.039 55.6641 56.8613 55.6641 49.2406C55.6641 41.62 43.5558 35.4423 28.6194 35.4423C13.6829 35.4423 1.57458 41.62 1.57458 49.2406C1.57458 56.8613 13.6829 63.039 28.6194 63.039Z" fill="#CECBCB"/>
<path opacity="0.38" d="M28.6194 63.0146C43.5378 63.0146 55.6317 56.8478 55.6317 49.2406C55.6317 41.6335 43.5378 35.4666 28.6194 35.4666C13.7009 35.4666 1.60706 41.6335 1.60706 49.2406C1.60706 56.8478 13.7009 63.0146 28.6194 63.0146Z" fill="#CDCACA"/>
<path opacity="0.38" d="M28.6194 62.9822C43.5199 62.9822 55.5992 56.8299 55.5992 49.2407C55.5992 41.6514 43.5199 35.4991 28.6194 35.4991C13.7188 35.4991 1.63953 41.6514 1.63953 49.2407C1.63953 56.8299 13.7188 62.9822 28.6194 62.9822Z" fill="#CCC9C9"/>
<path opacity="0.39" d="M28.6194 62.9497C43.502 62.9497 55.5667 56.812 55.5667 49.2407C55.5667 41.6693 43.502 35.5316 28.6194 35.5316C13.7367 35.5316 1.672 41.6693 1.672 49.2407C1.672 56.812 13.7367 62.9497 28.6194 62.9497Z" fill="#CBC8C8"/>
<path opacity="0.4" d="M28.6194 62.9254C43.4841 62.9254 55.5343 56.7985 55.5343 49.2407C55.5343 41.6828 43.4841 35.5559 28.6194 35.5559C13.7547 35.5559 1.70447 41.6828 1.70447 49.2407C1.70447 56.7985 13.7547 62.9254 28.6194 62.9254Z" fill="#CAC7C7"/>
<path opacity="0.41" d="M28.6194 62.8929C43.4707 62.8929 55.51 56.7806 55.51 49.2406C55.51 41.7007 43.4707 35.5884 28.6194 35.5884C13.7682 35.5884 1.72888 41.7007 1.72888 49.2406C1.72888 56.7806 13.7682 62.8929 28.6194 62.8929Z" fill="#C9C6C6"/>
<path opacity="0.41" d="M28.6194 62.8604C43.4527 62.8604 55.4775 56.7626 55.4775 49.2406C55.4775 41.7186 43.4527 35.6208 28.6194 35.6208C13.7861 35.6208 1.76135 41.7186 1.76135 49.2406C1.76135 56.7626 13.7861 62.8604 28.6194 62.8604Z" fill="#C8C5C5"/>
<path opacity="0.42" d="M28.6194 62.8361C43.4348 62.8361 55.4451 56.7492 55.4451 49.2406C55.4451 41.7321 43.4348 35.6452 28.6194 35.6452C13.8041 35.6452 1.79382 41.7321 1.79382 49.2406C1.79382 56.7492 13.8041 62.8361 28.6194 62.8361Z" fill="#C7C4C4"/>
<path opacity="0.43" d="M28.6194 62.8036C43.4169 62.8036 55.4126 56.7313 55.4126 49.2406C55.4126 41.75 43.4169 35.6777 28.6194 35.6777C13.822 35.6777 1.82629 41.75 1.82629 49.2406C1.82629 56.7313 13.822 62.8036 28.6194 62.8036Z" fill="#C6C3C3"/>
<path opacity="0.44" d="M28.6194 62.7711C43.399 62.7711 55.3801 56.7133 55.3801 49.2406C55.3801 41.768 43.399 35.7101 28.6194 35.7101C13.8399 35.7101 1.85876 41.768 1.85876 49.2406C1.85876 56.7133 13.8399 62.7711 28.6194 62.7711Z" fill="#C5C2C2"/>
<path opacity="0.44" d="M28.6195 62.7387C43.381 62.7387 55.3477 56.6954 55.3477 49.2407C55.3477 41.7859 43.381 35.7426 28.6195 35.7426C13.8579 35.7426 1.89124 41.7859 1.89124 49.2407C1.89124 56.6954 13.8579 62.7387 28.6195 62.7387Z" fill="#C4C1C1"/>
<path opacity="0.45" d="M28.6195 62.7143C43.3631 62.7143 55.3152 56.682 55.3152 49.2407C55.3152 41.7993 43.3631 35.767 28.6195 35.767C13.8758 35.767 1.92371 41.7993 1.92371 49.2407C1.92371 56.682 13.8758 62.7143 28.6195 62.7143Z" fill="#C3C0C0"/>
<path opacity="0.46" d="M28.6195 62.6819C43.3452 62.6819 55.2827 56.664 55.2827 49.2407C55.2827 41.8173 43.3452 35.7994 28.6195 35.7994C13.8937 35.7994 1.95618 41.8173 1.95618 49.2407C1.95618 56.664 13.8937 62.6819 28.6195 62.6819Z" fill="#C2BFBF"/>
<path opacity="0.47" d="M28.6193 62.6494C43.3271 62.6494 55.2502 56.6461 55.2502 49.2406C55.2502 41.8352 43.3271 35.8319 28.6193 35.8319C13.9115 35.8319 1.98853 41.8352 1.98853 49.2406C1.98853 56.6461 13.9115 62.6494 28.6193 62.6494Z" fill="#C1BEBE"/>
<path opacity="0.47" d="M28.6193 62.625C43.3092 62.625 55.2177 56.6326 55.2177 49.2406C55.2177 41.8486 43.3092 35.8562 28.6193 35.8562C13.9295 35.8562 2.021 41.8486 2.021 49.2406C2.021 56.6326 13.9295 62.625 28.6193 62.625Z" fill="#C0BDBD"/>
<path opacity="0.48" d="M28.6194 62.5926C43.2913 62.5926 55.1852 56.6147 55.1852 49.2406C55.1852 41.8666 43.2913 35.8887 28.6194 35.8887C13.9474 35.8887 2.05347 41.8666 2.05347 49.2406C2.05347 56.6147 13.9474 62.5926 28.6194 62.5926Z" fill="#BFBCBC"/>
<path opacity="0.49" d="M28.6194 62.5601C43.2734 62.5601 55.1528 56.5968 55.1528 49.2406C55.1528 41.8845 43.2734 35.9212 28.6194 35.9212C13.9654 35.9212 2.08594 41.8845 2.08594 49.2406C2.08594 56.5968 13.9654 62.5601 28.6194 62.5601Z" fill="#BEBBBB"/>
<path opacity="0.5" d="M28.6194 62.5358C43.2554 62.5358 55.1203 56.5833 55.1203 49.2406C55.1203 41.898 43.2554 35.9455 28.6194 35.9455C13.9833 35.9455 2.11841 41.898 2.11841 49.2406C2.11841 56.5833 13.9833 62.5358 28.6194 62.5358Z" fill="#BDBABA"/>
<path opacity="0.5" d="M28.6194 62.5033C43.2375 62.5033 55.0878 56.5654 55.0878 49.2406C55.0878 41.9159 43.2375 35.978 28.6194 35.978C14.0012 35.978 2.15088 41.9159 2.15088 49.2406C2.15088 56.5654 14.0012 62.5033 28.6194 62.5033Z" fill="#BCB9B9"/>
<path opacity="0.51" d="M28.6194 62.4708C43.2196 62.4708 55.0554 56.5475 55.0554 49.2407C55.0554 41.9338 43.2196 36.0105 28.6194 36.0105C14.0192 36.0105 2.18335 41.9338 2.18335 49.2407C2.18335 56.5475 14.0192 62.4708 28.6194 62.4708Z" fill="#BBB8B8"/>
<path opacity="0.52" d="M28.6194 62.4465C43.2016 62.4465 55.0229 56.534 55.0229 49.2407C55.0229 41.9473 43.2016 36.0348 28.6194 36.0348C14.0371 36.0348 2.21582 41.9473 2.21582 49.2407C2.21582 56.534 14.0371 62.4465 28.6194 62.4465Z" fill="#BAB7B7"/>
<path opacity="0.53" d="M28.6194 62.414C43.1837 62.414 54.9905 56.5161 54.9905 49.2407C54.9905 41.9652 43.1837 36.0673 28.6194 36.0673C14.055 36.0673 2.24829 41.9652 2.24829 49.2407C2.24829 56.5161 14.055 62.414 28.6194 62.414Z" fill="#B9B6B6"/>
<path opacity="0.53" d="M28.6194 62.3815C43.1658 62.3815 54.958 56.4981 54.958 49.2406C54.958 41.9831 43.1658 36.0997 28.6194 36.0997C14.073 36.0997 2.28076 41.9831 2.28076 49.2406C2.28076 56.4981 14.073 62.3815 28.6194 62.3815Z" fill="#B8B5B5"/>
<path opacity="0.54" d="M28.6194 62.3572C43.1479 62.3572 54.9255 56.4847 54.9255 49.2406C54.9255 41.9966 43.1479 36.1241 28.6194 36.1241C14.0909 36.1241 2.31323 41.9966 2.31323 49.2406C2.31323 56.4847 14.0909 62.3572 28.6194 62.3572Z" fill="#B7B4B4"/>
<path opacity="0.55" d="M28.6194 62.3247C43.1345 62.3247 54.9012 56.4668 54.9012 49.2406C54.9012 42.0145 43.1345 36.1566 28.6194 36.1566C14.1044 36.1566 2.33765 42.0145 2.33765 49.2406C2.33765 56.4668 14.1044 62.3247 28.6194 62.3247Z" fill="#B6B3B3"/>
<path opacity="0.56" d="M28.6194 62.2923C43.1166 62.2923 54.8688 56.4489 54.8688 49.2406C54.8688 42.0324 43.1166 36.189 28.6194 36.189C14.1223 36.189 2.37012 42.0324 2.37012 49.2406C2.37012 56.4489 14.1223 62.2923 28.6194 62.2923Z" fill="#B5B2B2"/>
<path opacity="0.56" d="M28.6195 62.2679C43.0986 62.2679 54.8363 56.4354 54.8363 49.2406C54.8363 42.0459 43.0986 36.2134 28.6195 36.2134C14.1403 36.2134 2.40259 42.0459 2.40259 49.2406C2.40259 56.4354 14.1403 62.2679 28.6195 62.2679Z" fill="#B4B1B1"/>
<path opacity="0.57" d="M28.6195 62.2354C43.0807 62.2354 54.8039 56.4175 54.8039 49.2406C54.8039 42.0638 43.0807 36.2458 28.6195 36.2458C14.1582 36.2458 2.43506 42.0638 2.43506 49.2406C2.43506 56.4175 14.1582 62.2354 28.6195 62.2354Z" fill="#B3B0B0"/>
<path opacity="0.58" d="M28.6195 62.203C43.0628 62.203 54.7714 56.3996 54.7714 49.2407C54.7714 42.0818 43.0628 36.2783 28.6195 36.2783C14.1761 36.2783 2.46753 42.0818 2.46753 49.2407C2.46753 56.3996 14.1761 62.203 28.6195 62.203Z" fill="#B2AFAF"/>
<path opacity="0.59" d="M28.6193 62.1786C43.0447 62.1786 54.7388 56.3861 54.7388 49.2407C54.7388 42.0952 43.0447 36.3027 28.6193 36.3027C14.194 36.3027 2.49988 42.0952 2.49988 49.2407C2.49988 56.3861 14.194 62.1786 28.6193 62.1786Z" fill="#B1AEAE"/>
<path opacity="0.59" d="M28.6193 62.1462C43.0268 62.1462 54.7063 56.3682 54.7063 49.2407C54.7063 42.1131 43.0268 36.3351 28.6193 36.3351C14.2119 36.3351 2.53235 42.1131 2.53235 49.2407C2.53235 56.3682 14.2119 62.1462 28.6193 62.1462Z" fill="#B0ADAD"/>
<path opacity="0.6" d="M28.6194 62.1137C43.0089 62.1137 54.6739 56.3502 54.6739 49.2406C54.6739 42.131 43.0089 36.3676 28.6194 36.3676C14.2298 36.3676 2.56482 42.131 2.56482 49.2406C2.56482 56.3502 14.2298 62.1137 28.6194 62.1137Z" fill="#AFACAC"/>
<path opacity="0.61" d="M28.6194 62.0893C42.9909 62.0893 54.6414 56.3368 54.6414 49.2406C54.6414 42.1445 42.9909 36.3919 28.6194 36.3919C14.2478 36.3919 2.59729 42.1445 2.59729 49.2406C2.59729 56.3368 14.2478 62.0893 28.6194 62.0893Z" fill="#AEABAB"/>
<path opacity="0.62" d="M28.6194 62.0569C42.973 62.0569 54.609 56.3189 54.609 49.2406C54.609 42.1624 42.973 36.4244 28.6194 36.4244C14.2657 36.4244 2.62976 42.1624 2.62976 49.2406C2.62976 56.3189 14.2657 62.0569 28.6194 62.0569Z" fill="#ADAAAA"/>
<path opacity="0.62" d="M28.6194 62.0244C42.9551 62.0244 54.5765 56.3009 54.5765 49.2406C54.5765 42.1804 42.9551 36.4569 28.6194 36.4569C14.2836 36.4569 2.66223 42.1804 2.66223 49.2406C2.66223 56.3009 14.2836 62.0244 28.6194 62.0244Z" fill="#ACA9A9"/>
<path opacity="0.63" d="M28.6194 62.0001C42.9372 62.0001 54.544 56.2875 54.544 49.2406C54.544 42.1938 42.9372 36.4812 28.6194 36.4812C14.3016 36.4812 2.6947 42.1938 2.6947 49.2406C2.6947 56.2875 14.3016 62.0001 28.6194 62.0001Z" fill="#ABA8A8"/>
<path opacity="0.64" d="M28.6194 61.9676C42.9192 61.9676 54.5116 56.2696 54.5116 49.2407C54.5116 42.2118 42.9192 36.5137 28.6194 36.5137C14.3195 36.5137 2.72717 42.2118 2.72717 49.2407C2.72717 56.2696 14.3195 61.9676 28.6194 61.9676Z" fill="#AAA7A7"/>
<path opacity="0.65" d="M28.6194 61.9351C42.9013 61.9351 54.4791 56.2516 54.4791 49.2407C54.4791 42.2297 42.9013 36.5462 28.6194 36.5462C14.3374 36.5462 2.75964 42.2297 2.75964 49.2407C2.75964 56.2516 14.3374 61.9351 28.6194 61.9351Z" fill="#A9A6A6"/>
<path opacity="0.65" d="M28.6194 61.9027C42.8834 61.9027 54.4467 56.2337 54.4467 49.2407C54.4467 42.2476 42.8834 36.5786 28.6194 36.5786C14.3554 36.5786 2.79211 42.2476 2.79211 49.2407C2.79211 56.2337 14.3554 61.9027 28.6194 61.9027Z" fill="#A8A5A5"/>
<path opacity="0.66" d="M28.6194 61.8783C42.8655 61.8783 54.4142 56.2202 54.4142 49.2406C54.4142 42.261 42.8655 36.603 28.6194 36.603C14.3733 36.603 2.82458 42.261 2.82458 49.2406C2.82458 56.2202 14.3733 61.8783 28.6194 61.8783Z" fill="#A7A4A4"/>
<path opacity="0.67" d="M28.6194 61.8458C42.8475 61.8458 54.3817 56.2023 54.3817 49.2406C54.3817 42.279 42.8475 36.6354 28.6194 36.6354C14.3912 36.6354 2.85706 42.279 2.85706 49.2406C2.85706 56.2023 14.3912 61.8458 28.6194 61.8458Z" fill="#A6A3A3"/>
<path opacity="0.68" d="M28.6194 61.8134C42.8296 61.8134 54.3493 56.1844 54.3493 49.2406C54.3493 42.2969 42.8296 36.6679 28.6194 36.6679C14.4092 36.6679 2.88953 42.2969 2.88953 49.2406C2.88953 56.1844 14.4092 61.8134 28.6194 61.8134Z" fill="#A5A2A2"/>
<path opacity="0.68" d="M28.6194 61.789C42.8117 61.789 54.3168 56.1709 54.3168 49.2406C54.3168 42.3104 42.8117 36.6923 28.6194 36.6923C14.4271 36.6923 2.922 42.3104 2.922 49.2406C2.922 56.1709 14.4271 61.789 28.6194 61.789Z" fill="#A4A1A1"/>
<path opacity="0.69" d="M28.6195 61.7566C42.7983 61.7566 54.2925 56.153 54.2925 49.2406C54.2925 42.3283 42.7983 36.7247 28.6195 36.7247C14.4406 36.7247 2.94641 42.3283 2.94641 49.2406C2.94641 56.153 14.4406 61.7566 28.6195 61.7566Z" fill="#A3A0A0"/>
<path opacity="0.7" d="M28.6193 61.7241C42.7802 61.7241 54.2599 56.1351 54.2599 49.2407C54.2599 42.3462 42.7802 36.7572 28.6193 36.7572C14.4584 36.7572 2.97876 42.3462 2.97876 49.2407C2.97876 56.1351 14.4584 61.7241 28.6193 61.7241Z" fill="#A29F9F"/>
<path opacity="0.71" d="M28.6193 61.6998C42.7623 61.6998 54.2275 56.1216 54.2275 49.2407C54.2275 42.3597 42.7623 36.7816 28.6193 36.7816C14.4764 36.7816 3.01123 42.3597 3.01123 49.2407C3.01123 56.1216 14.4764 61.6998 28.6193 61.6998Z" fill="#A19E9E"/>
<path opacity="0.71" d="M28.6194 61.6673C42.7444 61.6673 54.195 56.1037 54.195 49.2407C54.195 42.3776 42.7444 36.814 28.6194 36.814C14.4943 36.814 3.0437 42.3776 3.0437 49.2407C3.0437 56.1037 14.4943 61.6673 28.6194 61.6673Z" fill="#A09D9D"/>
<path opacity="0.72" d="M28.6194 61.6348C42.7265 61.6348 54.1625 56.0857 54.1625 49.2406C54.1625 42.3955 42.7265 36.8465 28.6194 36.8465C14.5122 36.8465 3.07617 42.3955 3.07617 49.2406C3.07617 56.0857 14.5122 61.6348 28.6194 61.6348Z" fill="#9F9C9C"/>
<path opacity="0.73" d="M28.6194 61.6105C42.7085 61.6105 54.1301 56.0723 54.1301 49.2406C54.1301 42.409 42.7085 36.8708 28.6194 36.8708C14.5302 36.8708 3.10864 42.409 3.10864 49.2406C3.10864 56.0723 14.5302 61.6105 28.6194 61.6105Z" fill="#9E9B9B"/>
<path opacity="0.74" d="M28.6194 61.578C42.6906 61.578 54.0976 56.0544 54.0976 49.2406C54.0976 42.4269 42.6906 36.9033 28.6194 36.9033C14.5481 36.9033 3.14111 42.4269 3.14111 49.2406C3.14111 56.0544 14.5481 61.578 28.6194 61.578Z" fill="#9D9A9A"/>
<path opacity="0.74" d="M28.6194 61.5455C42.6727 61.5455 54.0652 56.0364 54.0652 49.2406C54.0652 42.4448 42.6727 36.9358 28.6194 36.9358C14.566 36.9358 3.17358 42.4448 3.17358 49.2406C3.17358 56.0364 14.566 61.5455 28.6194 61.5455Z" fill="#9C9999"/>
<path opacity="0.75" d="M28.6194 61.5212C42.6548 61.5212 54.0327 56.023 54.0327 49.2406C54.0327 42.4583 42.6548 36.9601 28.6194 36.9601C14.584 36.9601 3.20605 42.4583 3.20605 49.2406C3.20605 56.023 14.584 61.5212 28.6194 61.5212Z" fill="#9B9999"/>
<path opacity="0.76" d="M28.6194 61.4887C42.6368 61.4887 54.0002 56.0051 54.0002 49.2407C54.0002 42.4762 42.6368 36.9926 28.6194 36.9926C14.6019 36.9926 3.23853 42.4762 3.23853 49.2407C3.23853 56.0051 14.6019 61.4887 28.6194 61.4887Z" fill="#9A9898"/>
<path opacity="0.77" d="M28.6194 61.4563C42.6189 61.4563 53.9678 55.9871 53.9678 49.2407C53.9678 42.4942 42.6189 37.0251 28.6194 37.0251C14.6199 37.0251 3.271 42.4942 3.271 49.2407C3.271 55.9871 14.6199 61.4563 28.6194 61.4563Z" fill="#999797"/>
<path opacity="0.77" d="M28.6194 61.4319C42.601 61.4319 53.9353 55.9737 53.9353 49.2407C53.9353 42.5076 42.601 37.0494 28.6194 37.0494C14.6378 37.0494 3.30347 42.5076 3.30347 49.2407C3.30347 55.9737 14.6378 61.4319 28.6194 61.4319Z" fill="#989696"/>
<path opacity="0.78" d="M28.6194 61.3994C42.583 61.3994 53.9028 55.9557 53.9028 49.2406C53.9028 42.5255 42.583 37.0818 28.6194 37.0818C14.6557 37.0818 3.33594 42.5255 3.33594 49.2406C3.33594 55.9557 14.6557 61.3994 28.6194 61.3994Z" fill="#979595"/>
<path opacity="0.79" d="M28.6194 61.3669C42.5651 61.3669 53.8704 55.9378 53.8704 49.2406C53.8704 42.5435 42.5651 37.1143 28.6194 37.1143C14.6737 37.1143 3.36841 42.5435 3.36841 49.2406C3.36841 55.9378 14.6737 61.3669 28.6194 61.3669Z" fill="#969494"/>
<path opacity="0.8" d="M28.6194 61.3426C42.5472 61.3426 53.8379 55.9244 53.8379 49.2406C53.8379 42.5569 42.5472 37.1387 28.6194 37.1387C14.6916 37.1387 3.40088 42.5569 3.40088 49.2406C3.40088 55.9244 14.6916 61.3426 28.6194 61.3426Z" fill="#959393"/>
<path opacity="0.8" d="M28.6194 61.3101C42.5293 61.3101 53.8055 55.9064 53.8055 49.2406C53.8055 42.5748 42.5293 37.1711 28.6194 37.1711C14.7095 37.1711 3.43335 42.5748 3.43335 49.2406C3.43335 55.9064 14.7095 61.3101 28.6194 61.3101Z" fill="#949292"/>
<path opacity="0.81" d="M28.6194 61.2777C42.5113 61.2777 53.773 55.8885 53.773 49.2406C53.773 42.5928 42.5113 37.2036 28.6194 37.2036C14.7275 37.2036 3.46582 42.5928 3.46582 49.2406C3.46582 55.8885 14.7275 61.2777 28.6194 61.2777Z" fill="#939191"/>
<path opacity="0.82" d="M28.6194 61.2533C42.4934 61.2533 53.7405 55.8751 53.7405 49.2406C53.7405 42.6062 42.4934 37.228 28.6194 37.228C14.7454 37.228 3.49829 42.6062 3.49829 49.2406C3.49829 55.8751 14.7454 61.2533 28.6194 61.2533Z" fill="#929090"/>
<path opacity="0.83" d="M28.6194 61.2209C42.4755 61.2209 53.7081 55.8571 53.7081 49.2407C53.7081 42.6242 42.4755 37.2604 28.6194 37.2604C14.7633 37.2604 3.53076 42.6242 3.53076 49.2407C3.53076 55.8571 14.7633 61.2209 28.6194 61.2209Z" fill="#918F8F"/>
<path opacity="0.83" d="M28.6194 61.1884C42.462 61.1884 53.6837 55.8392 53.6837 49.2407C53.6837 42.6421 42.462 37.2929 28.6194 37.2929C14.7767 37.2929 3.55505 42.6421 3.55505 49.2407C3.55505 55.8392 14.7767 61.1884 28.6194 61.1884Z" fill="#908E8E"/>
<path opacity="0.84" d="M28.6194 61.1559C42.4441 61.1559 53.6512 55.8213 53.6512 49.2406C53.6512 42.66 42.4441 37.3253 28.6194 37.3253C14.7947 37.3253 3.58752 42.66 3.58752 49.2406C3.58752 55.8213 14.7947 61.1559 28.6194 61.1559Z" fill="#8F8D8D"/>
<path opacity="0.85" d="M28.6194 61.1316C42.4261 61.1316 53.6187 55.8078 53.6187 49.2406C53.6187 42.6735 42.4261 37.3497 28.6194 37.3497C14.8126 37.3497 3.62 42.6735 3.62 49.2406C3.62 55.8078 14.8126 61.1316 28.6194 61.1316Z" fill="#8E8C8C"/>
<path opacity="0.86" d="M28.6194 61.0991C42.4082 61.0991 53.5863 55.7899 53.5863 49.2406C53.5863 42.6914 42.4082 37.3822 28.6194 37.3822C14.8305 37.3822 3.65247 42.6914 3.65247 49.2406C3.65247 55.7899 14.8305 61.0991 28.6194 61.0991Z" fill="#8D8B8B"/>
<path opacity="0.86" d="M28.6194 61.0666C42.3903 61.0666 53.5538 55.772 53.5538 49.2406C53.5538 42.7093 42.3903 37.4146 28.6194 37.4146C14.8485 37.4146 3.68494 42.7093 3.68494 49.2406C3.68494 55.772 14.8485 61.0666 28.6194 61.0666Z" fill="#8C8A8A"/>
<path opacity="0.87" d="M28.6194 61.0423C42.3723 61.0423 53.5213 55.7585 53.5213 49.2406C53.5213 42.7228 42.3723 37.439 28.6194 37.439C14.8664 37.439 3.71741 42.7228 3.71741 49.2406C3.71741 55.7585 14.8664 61.0423 28.6194 61.0423Z" fill="#8B8989"/>
<path opacity="0.88" d="M28.6194 61.0098C42.3544 61.0098 53.4889 55.7406 53.4889 49.2406C53.4889 42.7407 42.3544 37.4715 28.6194 37.4715C14.8843 37.4715 3.74988 42.7407 3.74988 49.2406C3.74988 55.7406 14.8843 61.0098 28.6194 61.0098Z" fill="#8A8888"/>
<path opacity="0.89" d="M28.6194 60.9774C42.3365 60.9774 53.4564 55.7227 53.4564 49.2407C53.4564 42.7586 42.3365 37.5039 28.6194 37.5039C14.9023 37.5039 3.78235 42.7586 3.78235 49.2407C3.78235 55.7227 14.9023 60.9774 28.6194 60.9774Z" fill="#898787"/>
<path opacity="0.89" d="M28.6194 60.953C42.3186 60.953 53.424 55.7092 53.424 49.2407C53.424 42.7721 42.3186 37.5283 28.6194 37.5283C14.9202 37.5283 3.81482 42.7721 3.81482 49.2407C3.81482 55.7092 14.9202 60.953 28.6194 60.953Z" fill="#888686"/>
<path opacity="0.9" d="M28.6194 60.9206C42.3006 60.9206 53.3915 55.6913 53.3915 49.2407C53.3915 42.79 42.3006 37.5608 28.6194 37.5608C14.9381 37.5608 3.84729 42.79 3.84729 49.2407C3.84729 55.6913 14.9381 60.9206 28.6194 60.9206Z" fill="#878585"/>
<path opacity="0.91" d="M28.6194 60.8881C42.2827 60.8881 53.359 55.6733 53.359 49.2406C53.359 42.8079 42.2827 37.5932 28.6194 37.5932C14.9561 37.5932 3.87976 42.8079 3.87976 49.2406C3.87976 55.6733 14.9561 60.8881 28.6194 60.8881Z" fill="#868484"/>
<path opacity="0.92" d="M28.6194 60.8637C42.2648 60.8637 53.3266 55.6599 53.3266 49.2406C53.3266 42.8214 42.2648 37.6176 28.6194 37.6176C14.974 37.6176 3.91223 42.8214 3.91223 49.2406C3.91223 55.6599 14.974 60.8637 28.6194 60.8637Z" fill="#858383"/>
<path opacity="0.92" d="M28.6194 60.8313C42.2469 60.8313 53.2941 55.642 53.2941 49.2406C53.2941 42.8393 42.2469 37.65 28.6194 37.65C14.9919 37.65 3.9447 42.8393 3.9447 49.2406C3.9447 55.642 14.9919 60.8313 28.6194 60.8313Z" fill="#848282"/>
<path opacity="0.93" d="M28.6194 60.7988C42.2289 60.7988 53.2616 55.624 53.2616 49.2406C53.2616 42.8573 42.2289 37.6825 28.6194 37.6825C15.0099 37.6825 3.97717 42.8573 3.97717 49.2406C3.97717 55.624 15.0099 60.7988 28.6194 60.7988Z" fill="#838181"/>
<path opacity="0.94" d="M28.6194 60.7744C42.211 60.7744 53.2292 55.6106 53.2292 49.2406C53.2292 42.8707 42.211 37.7068 28.6194 37.7068C15.0278 37.7068 4.00964 42.8707 4.00964 49.2406C4.00964 55.6106 15.0278 60.7744 28.6194 60.7744Z" fill="#828080"/>
<path opacity="0.95" d="M28.6194 60.742C42.1931 60.742 53.1967 55.5927 53.1967 49.2406C53.1967 42.8886 42.1931 37.7393 28.6194 37.7393C15.0457 37.7393 4.04211 42.8886 4.04211 49.2406C4.04211 55.5927 15.0457 60.742 28.6194 60.742Z" fill="#817F7F"/>
<path opacity="0.95" d="M28.6194 60.7095C42.1752 60.7095 53.1642 55.5747 53.1642 49.2407C53.1642 42.9066 42.1752 37.7718 28.6194 37.7718C15.0637 37.7718 4.07458 42.9066 4.07458 49.2407C4.07458 55.5747 15.0637 60.7095 28.6194 60.7095Z" fill="#807E7E"/>
<path opacity="0.96" d="M28.6194 60.6852C42.1572 60.6852 53.1318 55.5613 53.1318 49.2407C53.1318 42.92 42.1572 37.7961 28.6194 37.7961C15.0816 37.7961 4.10706 42.92 4.10706 49.2407C4.10706 55.5613 15.0816 60.6852 28.6194 60.6852Z" fill="#7F7D7D"/>
<path opacity="0.97" d="M28.6194 60.6527C42.1393 60.6527 53.0993 55.5434 53.0993 49.2407C53.0993 42.938 42.1393 37.8286 28.6194 37.8286C15.0995 37.8286 4.13953 42.938 4.13953 49.2407C4.13953 55.5434 15.0995 60.6527 28.6194 60.6527Z" fill="#7E7C7C"/>
<path opacity="0.98" d="M28.6194 60.6202C42.1258 60.6202 53.0749 55.5254 53.0749 49.2406C53.0749 42.9559 42.1258 37.8611 28.6194 37.8611C15.1129 37.8611 4.16382 42.9559 4.16382 49.2406C4.16382 55.5254 15.1129 60.6202 28.6194 60.6202Z" fill="#7D7B7B"/>
<path opacity="0.98" d="M28.6194 60.5959C42.1079 60.5959 53.0425 55.512 53.0425 49.2406C53.0425 42.9693 42.1079 37.8854 28.6194 37.8854C15.1309 37.8854 4.19629 42.9693 4.19629 49.2406C4.19629 55.512 15.1309 60.5959 28.6194 60.5959Z" fill="#7C7A7A"/>
<path opacity="0.99" d="M28.6194 60.5634C42.0899 60.5634 53.01 55.494 53.01 49.2406C53.01 42.9873 42.0899 37.9179 28.6194 37.9179C15.1488 37.9179 4.22876 42.9873 4.22876 49.2406C4.22876 55.494 15.1488 60.5634 28.6194 60.5634Z" fill="#7B7979"/>
<path d="M28.6194 60.5309C42.072 60.5309 52.9775 55.4761 52.9775 49.2406C52.9775 43.0052 42.072 37.9503 28.6194 37.9503C15.1667 37.9503 4.26123 43.0052 4.26123 49.2406C4.26123 55.4761 15.1667 60.5309 28.6194 60.5309Z" fill="#7A7878"/>
</g>
<path d="M55.2746 43.0152V45.1499C55.2583 49.1433 52.6285 53.1367 47.3689 56.1885C36.7442 62.3653 19.5693 62.3653 8.92023 56.221C3.55511 53.1204 0.868489 49.054 0.876605 44.9875V42.8447C0.868489 46.9112 3.55511 50.9776 8.92023 54.0863C19.5612 60.2225 36.7361 60.2225 47.3689 54.0457C52.6204 50.9939 55.2502 47.0005 55.2665 43.0071L55.2746 43.0152Z" fill="#00902C"/>
<g style="mix-blend-mode:color-burn">
<path d="M55.2746 43.0152V45.1499C55.2583 49.1433 52.6285 53.1367 47.3689 56.1885C36.7442 62.3653 19.5693 62.3653 8.92023 56.221C3.55511 53.1204 0.868489 49.054 0.876605 44.9875V42.8447C0.868489 46.9112 3.55511 50.9776 8.92023 54.0863C19.5612 60.2225 36.7361 60.2225 47.3689 54.0457C52.6204 50.9939 55.2502 47.0005 55.2665 43.0071L55.2746 43.0152Z" fill="url(#paint0_linear_339_652)"/>
</g>
<path d="M47.2472 31.8142C57.8963 37.9585 57.945 47.9095 47.3771 54.0539C36.7361 60.2307 19.5693 60.2306 8.92836 54.0944C-1.72072 47.9501 -1.83435 37.9585 8.7985 31.7817C19.3745 25.6374 36.6062 25.6617 47.2472 31.8142Z" fill="#E5F6E8"/>
<path style="mix-blend-mode:color-burn" d="M47.2472 31.8142C57.8963 37.9585 57.945 47.9095 47.3771 54.0539C36.7361 60.2307 19.5693 60.2306 8.92836 54.0944C-1.72072 47.9501 -1.83435 37.9585 8.7985 31.7817C19.3745 25.6374 36.6062 25.6617 47.2472 31.8142Z" fill="url(#paint1_radial_339_652)"/>
<path d="M22.7835 37.2767L7.50793 28.1535L33.8547 12.9104L49.1303 22.0335L22.7835 37.2767Z" fill="#334142"/>
<path d="M49.2763 36.254L38.1565 42.7067L22.8241 51.5539L22.8322 55.4174L38.1646 46.5621L49.2845 40.1094L49.2763 36.254Z" fill="#C1E7C6"/>
<path d="M49.2601 30.8077L38.1403 37.2604L22.8079 46.1076V47.6985L38.1403 38.8513L49.2682 32.3985L49.2601 30.8077Z" fill="#C1E7C6"/>
<path d="M49.2358 21.9524L33.9034 30.7996L22.7836 37.2523V39.1679L29.2282 35.4504L30.2915 34.8336L33.9034 32.7151L49.2358 23.8679V21.9524Z" fill="#9EAFB2"/>
<path d="M39.2929 33.681V32.4554L45.3317 28.9652V30.1908L39.2929 33.6729V33.681ZM49.2439 23.8679L33.9115 32.7232L30.2996 34.8417V37.6825L32.7914 36.2459V37.4715L30.3077 38.9081V41.7814L29.2444 42.3983V39.525L26.7445 40.9616V39.736L29.2282 38.2994V35.4585L22.7836 39.176L22.7998 46.1157L38.1322 37.2604L49.2521 30.8077L49.2358 23.8679H49.2439Z" fill="#6AC97B"/>
<path d="M49.2682 32.3986L38.1403 38.8513L22.8079 47.6985L22.8241 51.5539L38.1565 42.7067L49.2763 36.254L49.2682 32.3986Z" fill="#C1E7C6"/>
<path d="M45.3236 28.9652L39.2848 32.4554L39.2929 33.681L45.3317 30.1989L45.3236 28.9652Z" fill="white"/>
<path d="M30.2915 34.8336L29.2282 35.4504V38.2913L26.7445 39.7279V40.9535L29.2363 39.5169L29.2444 42.3902L30.3158 41.7733L30.3077 38.9L32.7914 37.4715L32.7833 36.2377L30.2996 37.6744L30.2915 34.8336Z" fill="white"/>
<path d="M22.8241 55.4174V51.5539L7.54041 42.4389V46.2943L12.938 49.338L22.8241 55.4174Z" fill="#6AC97B"/>
<path d="M22.8079 47.6985V46.1076L7.52417 36.9926L7.53229 38.5835L22.8079 47.6985Z" fill="#6AC97B"/>
<path d="M22.7836 39.1679V37.2767L7.50799 28.1535L7.49988 30.061L22.7836 39.1679Z" fill="#778386"/>
<path d="M22.8079 46.1076L22.7836 39.1679L7.49988 30.0609L7.52423 36.9926L22.8079 46.1076Z" fill="#00902C"/>
<path d="M7.53235 38.5835L7.54047 42.4389L22.8242 51.5539L22.8079 47.6985L7.53235 38.5835Z" fill="#6AC97B"/>
<path d="M22.0774 40.8561L4.40741 30.5885L4.39929 27.1958L22.0612 37.4634L22.0774 40.8561Z" fill="url(#paint2_linear_339_652)"/>
<path d="M22.0612 37.4634L4.39929 27.1958L33.246 10.516L50.9079 20.7755L22.0612 37.4634Z" fill="#00B140"/>
<path d="M50.9078 20.7755L50.9159 24.1683L22.0774 40.8561L22.0612 37.4634L50.9078 20.7755Z" fill="#00902C"/>
<path d="M20.4298 30.7833L16.2822 28.397L16.274 26.311L20.4217 28.7055L20.4298 30.7833Z" fill="#58595B"/>
<path d="M20.4217 28.7055L16.274 26.311L20.9898 23.6082L25.1293 26.0026L20.4217 28.7055Z" fill="white"/>
<path d="M25.1293 26.0026L25.1374 28.0805L20.4297 30.7833L20.4216 28.7054L25.1293 26.0026Z" fill="#B0B0B0"/>
<path d="M34.5771 22.2771L30.4295 19.8826L30.4214 17.8048L34.569 20.1911L34.5771 22.2771Z" fill="#58595B"/>
<path d="M34.569 20.1911L30.4214 17.8048L35.1372 15.1019L39.2848 17.4882L34.569 20.1911Z" fill="white"/>
<path d="M39.2848 17.4882V19.5661L34.5771 22.2771L34.569 20.1911L39.2848 17.4882Z" fill="#B0B0B0"/>
<path d="M32.2395 22.8939V23.6569C32.2395 24.2332 31.858 24.8013 31.1032 25.2396C29.5772 26.1244 27.1098 26.1244 25.5838 25.2396C24.8128 24.7932 24.4313 24.2088 24.4313 23.6244V22.8615C24.4313 23.4459 24.8128 24.0303 25.5838 24.4767C27.1098 25.3614 29.5772 25.3614 31.1032 24.4767C31.858 24.0384 32.2314 23.4621 32.2395 22.8939Z" fill="#25734A"/>
<g style="mix-blend-mode:multiply">
<path d="M32.2395 22.8939V23.6569C32.2395 24.2332 31.858 24.8013 31.1032 25.2396C29.5772 26.1244 27.1098 26.1244 25.5838 25.2396C24.8128 24.7932 24.4313 24.2088 24.4313 23.6244V22.8615C24.4313 23.4459 24.8128 24.0303 25.5838 24.4767C27.1098 25.3614 29.5772 25.3614 31.1032 24.4767C31.858 24.0384 32.2314 23.4621 32.2395 22.8939Z" fill="url(#paint3_linear_339_652)"/>
</g>
<path d="M31.087 21.2787C32.6129 22.1634 32.621 23.5919 31.1032 24.4685C29.5773 25.3533 27.1098 25.3533 25.5839 24.4685C24.0579 23.5838 24.0417 22.1553 25.5676 21.2625C27.0855 20.3777 29.561 20.3859 31.087 21.2625V21.2787Z" fill="#319963"/>
<path d="M30.4538 21.0433V22.5774C30.4538 22.8858 30.2509 23.1861 29.8532 23.4215C29.0415 23.8923 27.7266 23.8923 26.915 23.4215C26.5091 23.1861 26.2981 22.8696 26.2981 22.5612V21.0271C26.2981 21.3355 26.501 21.6521 26.915 21.8875C27.7266 22.3582 29.0415 22.3582 29.8532 21.8875C30.2509 21.6521 30.4538 21.3518 30.4538 21.0433Z" fill="#25734A"/>
<g style="mix-blend-mode:multiply">
<path d="M30.4538 21.0433V22.5774C30.4538 22.8858 30.2509 23.1861 29.8532 23.4215C29.0415 23.8923 27.7266 23.8923 26.915 23.4215C26.5091 23.1861 26.2981 22.8696 26.2981 22.5612V21.0271C26.2981 21.3355 26.501 21.6521 26.915 21.8875C27.7266 22.3582 29.0415 22.3582 29.8532 21.8875C30.2509 21.6521 30.4538 21.3518 30.4538 21.0433Z" fill="url(#paint4_linear_339_652)"/>
</g>
<path d="M29.837 20.1911C30.6487 20.6618 30.6568 21.4248 29.8451 21.8875C29.0335 22.3582 27.7186 22.3582 26.9069 21.8875C26.0952 21.4167 26.0871 20.6537 26.8988 20.183C27.7104 19.7122 29.0253 19.7203 29.837 20.183V20.1911Z" fill="#319963"/>
</g>
<defs>
<linearGradient id="paint0_linear_339_652" x1="0.876605" y1="51.8461" x2="55.2746" y2="51.8461" gradientUnits="userSpaceOnUse">
<stop stop-color="#4C4C4C"/>
<stop offset="0.02" stop-color="#5C5C5C"/>
<stop offset="0.08" stop-color="#878787"/>
<stop offset="0.14" stop-color="#ACACAC"/>
<stop offset="0.2" stop-color="#CACACA"/>
<stop offset="0.27" stop-color="#E1E1E1"/>
<stop offset="0.34" stop-color="#F2F2F2"/>
<stop offset="0.41" stop-color="#FBFBFB"/>
<stop offset="0.52" stop-color="white"/>
<stop offset="0.64" stop-color="#FCFCFC"/>
<stop offset="0.72" stop-color="#F4F4F4"/>
<stop offset="0.78" stop-color="#E6E6E6"/>
<stop offset="0.83" stop-color="#D2D2D2"/>
<stop offset="0.88" stop-color="#B8B8B8"/>
<stop offset="0.92" stop-color="#999999"/>
<stop offset="0.96" stop-color="#747474"/>
<stop offset="1" stop-color="#4C4C4C"/>
</linearGradient>
<radialGradient id="paint1_radial_339_652" cx="0" cy="0" r="1" gradientUnits="userSpaceOnUse" gradientTransform="translate(28.0756 42.947) scale(35.7621 21.8149)">
<stop stop-color="white"/>
<stop offset="0.35" stop-color="#FCFCFC"/>
<stop offset="0.5" stop-color="#F5F5F5"/>
<stop offset="0.61" stop-color="#E9E9E9"/>
<stop offset="0.7" stop-color="#D7D7D7"/>
<stop offset="0.78" stop-color="#C0C0C0"/>
<stop offset="0.85" stop-color="#A4A4A4"/>
<stop offset="0.92" stop-color="#828282"/>
<stop offset="0.98" stop-color="#5C5C5C"/>
<stop offset="1" stop-color="#4C4C4C"/>
</radialGradient>
<linearGradient id="paint2_linear_339_652" x1="4.39929" y1="27.1873" x2="24.2493" y2="32.1253" gradientUnits="userSpaceOnUse">
<stop stop-color="#00B140"/>
<stop offset="1" stop-color="#007F21"/>
</linearGradient>
<linearGradient id="paint3_linear_339_652" x1="24.4313" y1="24.3874" x2="32.2395" y2="24.3874" gradientUnits="userSpaceOnUse">
<stop stop-color="#4C4C4C"/>
<stop offset="0.02" stop-color="#5C5C5C"/>
<stop offset="0.08" stop-color="#878787"/>
<stop offset="0.14" stop-color="#ACACAC"/>
<stop offset="0.2" stop-color="#CACACA"/>
<stop offset="0.27" stop-color="#E1E1E1"/>
<stop offset="0.34" stop-color="#F2F2F2"/>
<stop offset="0.41" stop-color="#FBFBFB"/>
<stop offset="0.52" stop-color="white"/>
<stop offset="0.64" stop-color="#FCFCFC"/>
<stop offset="0.72" stop-color="#F4F4F4"/>
<stop offset="0.78" stop-color="#E6E6E6"/>
<stop offset="0.83" stop-color="#D2D2D2"/>
<stop offset="0.88" stop-color="#B8B8B8"/>
<stop offset="0.92" stop-color="#999999"/>
<stop offset="0.96" stop-color="#747474"/>
<stop offset="1" stop-color="#4C4C4C"/>
</linearGradient>
<linearGradient id="paint4_linear_339_652" x1="26.2981" y1="22.4069" x2="30.4538" y2="22.4069" gradientUnits="userSpaceOnUse">
<stop stop-color="#4C4C4C"/>
<stop offset="0.02" stop-color="#5C5C5C"/>
<stop offset="0.08" stop-color="#878787"/>
<stop offset="0.14" stop-color="#ACACAC"/>
<stop offset="0.2" stop-color="#CACACA"/>
<stop offset="0.27" stop-color="#E1E1E1"/>
<stop offset="0.34" stop-color="#F2F2F2"/>
<stop offset="0.41" stop-color="#FBFBFB"/>
<stop offset="0.52" stop-color="white"/>
<stop offset="0.64" stop-color="#FCFCFC"/>
<stop offset="0.72" stop-color="#F4F4F4"/>
<stop offset="0.78" stop-color="#E6E6E6"/>
<stop offset="0.83" stop-color="#D2D2D2"/>
<stop offset="0.88" stop-color="#B8B8B8"/>
<stop offset="0.92" stop-color="#999999"/>
<stop offset="0.96" stop-color="#747474"/>
<stop offset="1" stop-color="#4C4C4C"/>
</linearGradient>
<clipPath id="clip0_339_652">
<rect width="57.2307" height="64" fill="white" transform="translate(0 0.5)"/>
</clipPath>
</defs>
</svg>
