<svg width="32" height="32" viewBox="0 0 32 32" fill="none" xmlns="http://www.w3.org/2000/svg">
<path d="M1.59755 9.93359C1.52787 9.93359 1.38852 9.93359 1.31885 9.93359C2.15494 11.6457 2.57299 13.5632 2.57299 15.5491C2.57299 17.5351 2.08527 19.4526 1.31885 21.1647C1.38852 21.1647 1.52787 21.1647 1.59755 21.1647C4.7329 21.1647 7.31086 18.6308 7.31086 15.5491C7.31086 12.4674 4.7329 9.93359 1.59755 9.93359Z" fill="white"/>
<path d="M30.7221 9.93359C30.7918 9.93359 30.9311 9.93359 31.0008 9.93359C30.1647 11.6457 29.7467 13.5632 29.7467 15.5491C29.7467 17.5351 30.2344 19.4526 31.0008 21.1647C30.9311 21.1647 30.7918 21.1647 30.7221 21.1647C27.5868 21.1647 25.0088 18.6308 25.0088 15.5491C25.0088 12.4674 27.5171 9.93359 30.7221 9.93359Z" fill="white"/>
<path d="M3.96552 25.1344C3.89584 25.2029 3.89585 25.2714 3.82617 25.3399C5.70739 25.4768 7.65827 26.0247 9.40014 27.0519C11.142 28.0791 12.6052 29.3803 13.72 30.9554C13.7896 30.8869 13.7896 30.8184 13.8593 30.75C15.4618 28.0791 14.4864 24.655 11.7691 23.0799C9.05176 21.5048 5.49836 22.4636 3.96552 25.1344Z" fill="white"/>
<path d="M18.4572 0.346072C18.5269 0.27759 18.5269 0.209107 18.5966 0.140625C19.7114 1.71572 21.1049 3.01688 22.9164 4.04412C24.728 5.07135 26.6092 5.61921 28.4904 5.75617C28.4207 5.82466 28.4207 5.89314 28.351 5.96162C26.7485 8.63243 23.2648 9.59118 20.5475 8.01609C17.8302 6.441 16.9244 3.08536 18.4572 0.346072Z" fill="white"/>
<path d="M18.4587 30.75C18.5284 30.8184 18.5284 30.8869 18.5981 30.9554C19.7128 29.3803 21.1063 28.0791 22.9179 27.0519C24.7294 26.0247 26.6106 25.4768 28.4918 25.3399C28.4222 25.2714 28.4222 25.2029 28.3525 25.1344C26.75 22.4636 23.2663 21.5048 20.5489 23.0799C17.8316 24.5865 16.9259 28.0791 18.4587 30.75Z" fill="white"/>
<path d="M3.96552 5.96162C3.89584 5.89314 3.89585 5.82466 3.82617 5.75617C5.70739 5.61921 7.65827 5.07135 9.40014 4.04412C11.142 3.01688 12.6052 1.71572 13.72 0.140625C13.7896 0.209107 13.7896 0.27759 13.8593 0.346072C15.4618 3.01688 14.4864 6.441 11.7691 8.01609C9.05176 9.59118 5.49836 8.63243 3.96552 5.96162Z" fill="white"/>
</svg>
