<svg width="20" height="20" viewBox="0 0 20 20" fill="none" xmlns="http://www.w3.org/2000/svg">
<path d="M17 8.44531C17 13.8898 10 18.5564 10 18.5564C10 18.5564 3 13.8898 3 8.44531C3 6.5888 3.7375 4.80832 5.05025 3.49556C6.36301 2.18281 8.14348 1.44531 10 1.44531C11.8565 1.44531 13.637 2.18281 14.9497 3.49556C16.2625 4.80832 17 6.5888 17 8.44531Z" fill="#00902C"/>
<path d="M6.89239 7.33447C6.8762 7.33447 6.84383 7.33447 6.82764 7.33447C7.0219 7.73227 7.11904 8.17781 7.11904 8.63925C7.11904 9.1007 7.00572 9.54623 6.82764 9.94403C6.84383 9.94403 6.8762 9.94403 6.89239 9.94403C7.6209 9.94403 8.21989 9.35529 8.21989 8.63925C8.21989 7.92321 7.6209 7.33447 6.89239 7.33447Z" fill="white"/>
<path d="M13.6593 7.33447C13.6755 7.33447 13.7079 7.33447 13.724 7.33447C13.5298 7.73227 13.4326 8.17781 13.4326 8.63925C13.4326 9.1007 13.546 9.54623 13.724 9.94403C13.7079 9.94403 13.6755 9.94403 13.6593 9.94403C12.9308 9.94403 12.3318 9.35529 12.3318 8.63925C12.3318 7.92321 12.9146 7.33447 13.6593 7.33447Z" fill="white"/>
<path d="M7.44278 10.8666C7.42659 10.8825 7.42659 10.8984 7.4104 10.9143C7.8475 10.9462 8.30079 11.0735 8.70552 11.3121C9.11024 11.5508 9.45021 11.8531 9.70923 12.2191C9.72542 12.2032 9.72542 12.1873 9.74161 12.1714C10.114 11.5508 9.88731 10.7552 9.25594 10.3892C8.62457 10.0233 7.79893 10.246 7.44278 10.8666Z" fill="white"/>
<path d="M10.8099 5.10682C10.8261 5.09091 10.8261 5.07499 10.8423 5.05908C11.1013 5.42506 11.4251 5.72738 11.846 5.96606C12.2669 6.20474 12.704 6.33204 13.1411 6.36386C13.125 6.37977 13.125 6.39569 13.1088 6.4116C12.7364 7.03216 11.927 7.25493 11.2956 6.88896C10.6642 6.52298 10.4538 5.7433 10.8099 5.10682Z" fill="white"/>
<path d="M10.8102 12.1714C10.8264 12.1873 10.8264 12.2032 10.8426 12.2191C11.1016 11.8531 11.4254 11.5508 11.8463 11.3121C12.2672 11.0735 12.7043 10.9462 13.1414 10.9143C13.1252 10.8984 13.1252 10.8825 13.109 10.8666C12.7367 10.246 11.9272 10.0233 11.2958 10.3892C10.6645 10.7393 10.454 11.5508 10.8102 12.1714Z" fill="white"/>
<path d="M7.44278 6.4116C7.42659 6.39569 7.42659 6.37977 7.4104 6.36386C7.8475 6.33204 8.30079 6.20474 8.70552 5.96606C9.11024 5.72738 9.45021 5.42506 9.70923 5.05908C9.72542 5.07499 9.72542 5.09091 9.74161 5.10682C10.114 5.72738 9.88731 6.52298 9.25594 6.88896C8.62457 7.25493 7.79893 7.03216 7.44278 6.4116Z" fill="white"/>
</svg>
