<svg width="436" height="429" viewBox="0 0 436 429" fill="none" xmlns="http://www.w3.org/2000/svg">
<g opacity="0.2" clip-path="url(#clip0_2896_104760)">
<path d="M4.69531 72.496C3.52149 72.496 1.17382 72.496 0 72.496C14.0859 101.57 21.1288 134.134 21.1288 167.86C21.1288 201.586 12.9121 234.15 0 263.224C1.17382 263.224 3.52149 263.224 4.69531 263.224C57.5173 263.224 100.949 220.194 100.949 167.86C100.949 115.526 57.5173 72.496 4.69531 72.496Z" fill="#C1E7C6"/>
<path d="M495.355 72.4962C496.529 72.4962 498.876 72.4962 500.05 72.4962C485.964 101.571 478.921 134.134 478.921 167.86C478.921 201.587 487.138 234.15 500.05 263.224C498.876 263.224 496.529 263.224 495.355 263.224C442.533 263.224 399.101 220.194 399.101 167.86C399.101 115.526 441.359 72.4962 495.355 72.4962Z" fill="#C1E7C6"/>
<path d="M44.6049 330.679C43.4311 331.842 43.4311 333.005 42.2573 334.168C73.9505 336.493 106.818 345.797 136.163 363.242C165.509 380.687 190.159 402.783 208.94 429.532C210.114 428.369 210.114 427.206 211.288 426.043C238.286 380.687 221.852 322.538 176.073 295.789C130.294 269.041 70.429 285.323 44.6049 330.679Z" fill="#C1E7C6"/>
<path d="M288.762 -90.3197C289.936 -91.4826 289.936 -92.6456 291.11 -93.8086C309.891 -67.0601 333.368 -44.9636 363.887 -27.519C394.406 -10.0743 426.1 -0.770499 457.793 1.55545C456.619 2.71843 456.619 3.88141 455.445 5.04438C428.447 50.4005 369.756 66.6821 323.977 39.9337C278.198 13.1852 262.938 -43.8006 288.762 -90.3197Z" fill="#C1E7C6"/>
<path d="M288.762 426.043C289.936 427.206 289.936 428.369 291.11 429.532C309.891 402.783 333.368 380.687 363.887 363.242C394.406 345.797 426.1 336.493 457.793 334.168C456.619 333.005 456.619 331.842 455.445 330.679C428.447 285.323 369.756 269.041 323.977 295.789C278.198 321.375 262.938 380.687 288.762 426.043Z" fill="#C1E7C6"/>
<path d="M44.605 5.04438C43.4311 3.88141 43.4312 2.71843 42.2574 1.55545C73.9506 -0.770499 106.818 -10.0743 136.163 -27.519C165.509 -44.9636 190.159 -67.0601 208.94 -93.8086C210.114 -92.6456 210.114 -91.4826 211.288 -90.3197C238.286 -44.9636 221.852 13.1852 176.073 39.9337C130.294 66.6821 70.4291 50.4005 44.605 5.04438Z" fill="#C1E7C6"/>
</g>
<defs>
<clipPath id="clip0_2896_104760">
<rect width="436" height="429" fill="white"/>
</clipPath>
</defs>
</svg>
