<svg width="313" height="308" viewBox="0 0 313 308" fill="none" xmlns="http://www.w3.org/2000/svg">
<g opacity="0.2" clip-path="url(#clip0_2913_89072)">
<path d="M3.37072 52.0486C2.52804 52.0486 0.842676 52.0486 0 52.0486C10.1121 72.9225 15.1681 96.3013 15.1681 120.515C15.1681 144.729 9.26943 168.108 0 188.982C0.842676 188.982 2.52804 188.982 3.37072 188.982C41.2911 188.982 72.4701 158.088 72.4701 120.515C72.4701 82.942 41.2911 52.0486 3.37072 52.0486Z" fill="#C1E7C6"/>
<path d="M355.61 52.0487C356.453 52.0487 358.138 52.0487 358.981 52.0487C348.869 72.9226 343.813 96.3014 343.813 120.515C343.813 144.729 349.711 168.108 358.981 188.982C358.138 188.982 356.453 188.982 355.61 188.982C317.69 188.982 286.511 158.088 286.511 120.515C286.511 82.9421 316.847 52.0487 355.61 52.0487Z" fill="#C1E7C6"/>
<path d="M32.0214 237.41C31.1788 238.245 31.1788 239.08 30.3361 239.915C53.0883 241.585 76.6833 248.265 97.7501 260.789C118.817 273.314 136.513 289.178 149.996 308.382C150.839 307.547 150.839 306.712 151.681 305.877C171.063 273.314 159.265 231.566 126.401 212.362C93.5367 193.158 50.5603 204.847 32.0214 237.41Z" fill="#C1E7C6"/>
<path d="M207.3 -64.8447C208.142 -65.6797 208.142 -66.5147 208.985 -67.3496C222.468 -48.1456 239.321 -32.2814 261.231 -19.757C283.14 -7.23269 305.893 -0.553024 328.645 1.11688C327.802 1.95184 327.802 2.7868 326.96 3.62176C307.578 36.1851 265.444 47.8745 232.58 28.6705C199.716 9.46646 188.761 -31.4464 207.3 -64.8447Z" fill="#C1E7C6"/>
<path d="M207.3 305.877C208.142 306.712 208.142 307.547 208.985 308.382C222.468 289.178 239.321 273.314 261.231 260.789C283.14 248.265 305.893 241.585 328.645 239.915C327.802 239.08 327.802 238.245 326.96 237.41C307.578 204.847 265.444 193.158 232.58 212.362C199.716 230.731 188.761 273.314 207.3 305.877Z" fill="#C1E7C6"/>
<path d="M32.0215 3.62176C31.1788 2.7868 31.1788 1.95184 30.3361 1.11688C53.0884 -0.553024 76.6833 -7.23269 97.7502 -19.757C118.817 -32.2814 136.513 -48.1456 149.996 -67.3496C150.839 -66.5147 150.839 -65.6797 151.681 -64.8447C171.063 -32.2814 159.265 9.46646 126.401 28.6705C93.5368 47.8745 50.5603 36.1851 32.0215 3.62176Z" fill="#C1E7C6"/>
</g>
<defs>
<clipPath id="clip0_2913_89072">
<rect width="313" height="308" fill="white"/>
</clipPath>
</defs>
</svg>
