<svg width="473" height="608" viewBox="0 0 473 608" fill="none" xmlns="http://www.w3.org/2000/svg">
<g opacity="0.06">
<path d="M-10.7596 600.221C-10.7596 601.81 -10.7596 604.986 -10.7596 606.574C28.6183 587.516 72.7215 577.987 118.4 577.987C164.078 577.987 208.182 589.104 247.56 606.574C247.56 604.986 247.56 601.81 247.56 600.221C247.56 528.753 189.28 469.989 118.4 469.989C47.5196 469.989 -10.7596 528.753 -10.7596 600.221Z" fill="url(#paint0_linear_2896_105517)"/>
<path d="M-10.7595 -63.6469C-10.7595 -65.2351 -10.7595 -68.4114 -10.7595 -69.9996C28.6184 -50.9413 72.7217 -41.4121 118.4 -41.4121C164.078 -41.4121 208.182 -52.5295 247.56 -69.9997C247.56 -68.4115 247.56 -65.2351 247.56 -63.6469C247.56 7.82188 189.28 66.5854 118.4 66.5854C47.5198 66.5854 -10.7595 9.41009 -10.7595 -63.6469Z" fill="url(#paint1_linear_2896_105517)"/>
<path d="M338.919 546.223C340.494 547.811 342.069 547.811 343.644 549.4C346.794 506.518 359.395 462.049 383.022 422.344C406.649 382.639 436.576 349.287 472.804 323.876C471.229 322.287 469.653 322.287 468.078 320.699C406.649 284.171 327.893 306.405 291.665 368.345C255.438 430.285 277.489 511.283 338.919 546.223Z" fill="url(#paint2_linear_2896_105517)"/>
<path d="M-231.275 215.875C-232.85 214.287 -234.425 214.287 -236 212.699C-199.772 187.288 -169.845 155.524 -146.218 114.231C-122.592 72.9374 -109.991 30.0561 -106.84 -12.8252C-105.265 -11.237 -103.69 -11.2371 -102.115 -9.64887C-40.6856 26.8796 -18.6339 106.289 -54.8616 168.229C-91.0893 230.169 -168.27 250.815 -231.275 215.875Z" fill="url(#paint3_linear_2896_105517)"/>
<path d="M468.078 215.875C469.653 214.287 471.228 214.287 472.804 212.699C436.576 187.288 406.649 155.524 383.022 114.231C359.395 72.9374 346.794 30.0561 343.644 -12.8252C342.069 -11.237 340.494 -11.2371 338.919 -9.64889C277.489 26.8796 255.438 106.289 291.665 168.229C326.318 230.169 406.649 250.815 468.078 215.875Z" fill="url(#paint4_linear_2896_105517)"/>
<path d="M-102.115 546.223C-103.69 547.811 -105.265 547.811 -106.84 549.399C-109.991 506.518 -122.592 462.049 -146.218 422.344C-169.845 382.639 -199.772 349.287 -236 323.876C-234.425 322.287 -232.85 322.287 -231.275 320.699C-169.845 284.171 -91.0893 306.405 -54.8616 368.345C-18.6339 430.285 -40.6856 511.283 -102.115 546.223Z" fill="url(#paint5_linear_2896_105517)"/>
</g>
<defs>
<linearGradient id="paint0_linear_2896_105517" x1="-236" y1="312.634" x2="631.65" y2="103.297" gradientUnits="userSpaceOnUse">
<stop stop-color="#00B140"/>
<stop offset="1" stop-color="#007F21"/>
</linearGradient>
<linearGradient id="paint1_linear_2896_105517" x1="-236" y1="312.634" x2="631.65" y2="103.297" gradientUnits="userSpaceOnUse">
<stop stop-color="#00B140"/>
<stop offset="1" stop-color="#007F21"/>
</linearGradient>
<linearGradient id="paint2_linear_2896_105517" x1="-236" y1="312.634" x2="631.65" y2="103.297" gradientUnits="userSpaceOnUse">
<stop stop-color="#00B140"/>
<stop offset="1" stop-color="#007F21"/>
</linearGradient>
<linearGradient id="paint3_linear_2896_105517" x1="-236" y1="312.634" x2="631.65" y2="103.297" gradientUnits="userSpaceOnUse">
<stop stop-color="#00B140"/>
<stop offset="1" stop-color="#007F21"/>
</linearGradient>
<linearGradient id="paint4_linear_2896_105517" x1="-236" y1="312.634" x2="631.65" y2="103.297" gradientUnits="userSpaceOnUse">
<stop stop-color="#00B140"/>
<stop offset="1" stop-color="#007F21"/>
</linearGradient>
<linearGradient id="paint5_linear_2896_105517" x1="-236" y1="312.634" x2="631.65" y2="103.297" gradientUnits="userSpaceOnUse">
<stop stop-color="#00B140"/>
<stop offset="1" stop-color="#007F21"/>
</linearGradient>
</defs>
</svg>
