<svg width="454" height="444" viewBox="0 0 454 444" fill="none" xmlns="http://www.w3.org/2000/svg">
<g opacity="0.4" clip-path="url(#clip0_2117_107263)">
<path d="M263.477 3.54447C263.477 2.61685 263.477 0.761598 263.477 -0.166021C240.484 10.9654 214.731 16.5311 188.058 16.5311C161.386 16.5311 135.633 10.0378 112.639 -0.166028C112.639 0.761591 112.639 2.61684 112.639 3.54446C112.639 45.2873 146.67 79.6092 188.058 79.6092C229.447 79.6092 263.477 45.2873 263.477 3.54447Z" fill="url(#paint0_linear_2117_107263)"/>
<path d="M263.477 391.291C263.477 392.218 263.477 394.073 263.477 395.001C240.484 383.87 214.731 378.304 188.058 378.304C161.386 378.304 135.633 384.797 112.639 395.001C112.639 394.073 112.639 392.218 112.639 391.291C112.639 349.548 146.67 315.226 188.058 315.226C229.447 315.226 263.477 348.62 263.477 391.291Z" fill="url(#paint1_linear_2117_107263)"/>
<path d="M59.2928 35.0832C58.3731 34.1556 57.4534 34.1556 56.5336 33.228C54.6941 58.2738 47.3362 84.2471 33.54 107.438C19.7439 130.628 2.26873 150.108 -18.8854 164.95C-17.9656 165.878 -17.0459 165.878 -16.1261 166.805C19.7439 188.14 65.731 175.154 86.8852 138.977C108.039 102.799 95.1628 55.4909 59.2928 35.0832Z" fill="url(#paint2_linear_2117_107263)"/>
<path d="M392.241 228.03C393.161 228.958 394.08 228.958 395 229.885C373.846 244.727 356.371 263.279 342.575 287.398C328.778 311.516 321.42 336.561 319.581 361.607C318.661 360.679 317.742 360.68 316.822 359.752C280.952 338.417 268.075 292.036 289.229 255.859C310.384 219.681 355.451 207.622 392.241 228.03Z" fill="url(#paint3_linear_2117_107263)"/>
<path d="M-16.1261 228.03C-17.0459 228.958 -17.9656 228.958 -18.8854 229.885C2.26873 244.727 19.7439 263.279 33.54 287.398C47.3362 311.516 54.6941 336.561 56.5336 361.607C57.4534 360.679 58.3731 360.679 59.2928 359.752C95.1628 338.417 108.039 292.036 86.8852 255.859C66.6508 219.681 19.7439 207.622 -16.1261 228.03Z" fill="url(#paint4_linear_2117_107263)"/>
<path d="M316.822 35.0833C317.742 34.1557 318.661 34.1557 319.581 33.2281C321.421 58.2738 328.778 84.2471 342.575 107.438C356.371 130.628 373.846 150.108 395 164.95C394.08 165.878 393.161 165.878 392.241 166.805C356.371 188.14 310.384 175.154 289.229 138.977C268.075 102.799 280.952 55.4909 316.822 35.0833Z" fill="url(#paint5_linear_2117_107263)"/>
</g>
<defs>
<linearGradient id="paint0_linear_2117_107263" x1="314.931" y1="241.743" x2="87.4971" y2="-0.267006" gradientUnits="userSpaceOnUse">
<stop stop-color="#B7B7B7"/>
<stop offset="1" stop-color="white" stop-opacity="0"/>
</linearGradient>
<linearGradient id="paint1_linear_2117_107263" x1="314.931" y1="241.743" x2="87.4971" y2="-0.267006" gradientUnits="userSpaceOnUse">
<stop stop-color="#B7B7B7"/>
<stop offset="1" stop-color="white" stop-opacity="0"/>
</linearGradient>
<linearGradient id="paint2_linear_2117_107263" x1="314.931" y1="241.743" x2="87.4971" y2="-0.267006" gradientUnits="userSpaceOnUse">
<stop stop-color="#B7B7B7"/>
<stop offset="1" stop-color="white" stop-opacity="0"/>
</linearGradient>
<linearGradient id="paint3_linear_2117_107263" x1="314.931" y1="241.743" x2="87.4971" y2="-0.267006" gradientUnits="userSpaceOnUse">
<stop stop-color="#B7B7B7"/>
<stop offset="1" stop-color="white" stop-opacity="0"/>
</linearGradient>
<linearGradient id="paint4_linear_2117_107263" x1="314.931" y1="241.743" x2="87.4971" y2="-0.267006" gradientUnits="userSpaceOnUse">
<stop stop-color="#B7B7B7"/>
<stop offset="1" stop-color="white" stop-opacity="0"/>
</linearGradient>
<linearGradient id="paint5_linear_2117_107263" x1="314.931" y1="241.743" x2="87.4971" y2="-0.267006" gradientUnits="userSpaceOnUse">
<stop stop-color="#B7B7B7"/>
<stop offset="1" stop-color="white" stop-opacity="0"/>
</linearGradient>
<clipPath id="clip0_2117_107263">
<rect width="444" height="454" fill="white" transform="matrix(-4.37114e-08 1 1 4.37114e-08 0 0)"/>
</clipPath>
</defs>
</svg>
