<svg width="291" height="396" viewBox="0 0 291 396" fill="none" xmlns="http://www.w3.org/2000/svg">
<g opacity="0.5">
<path d="M8.52258 391.456C8.52258 392.383 8.52258 394.238 8.52258 395.166C31.5162 384.035 57.269 378.469 83.9416 378.469C110.614 378.469 136.367 384.962 159.361 395.166C159.361 394.238 159.361 392.383 159.361 391.456C159.361 349.713 125.33 315.391 83.9416 315.391C42.5531 315.391 8.52258 349.713 8.52258 391.456Z" fill="url(#paint0_linear_2122_120954)"/>
<path d="M8.52267 3.70941C8.52267 2.78179 8.52267 0.926599 8.52267 -0.00101283C31.5163 11.1304 57.2691 16.6962 83.9416 16.6962C110.614 16.6962 136.367 10.2028 159.361 -0.00101942C159.361 0.926593 159.361 2.78179 159.361 3.7094C159.361 45.4523 125.33 79.7743 83.9417 79.7743C42.5532 79.7743 8.52267 46.3799 8.52267 3.70941Z" fill="url(#paint1_linear_2122_120954)"/>
<path d="M212.707 359.917C213.627 360.844 214.547 360.844 215.466 361.772C217.306 336.726 224.664 310.753 238.46 287.562C252.256 264.372 269.731 244.892 290.885 230.05C289.966 229.122 289.046 229.122 288.126 228.195C252.256 206.86 206.269 219.846 185.115 256.023C163.961 292.201 176.837 339.509 212.707 359.917Z" fill="url(#paint2_linear_2122_120954)"/>
<path d="M-120.241 166.97C-121.161 166.042 -122.08 166.042 -123 165.115C-101.846 150.273 -84.3708 131.721 -70.5746 107.602C-56.7785 83.4843 -49.4205 58.4386 -47.581 33.3929C-46.6613 34.3205 -45.7415 34.3205 -44.8218 35.2481C-8.9518 56.5833 3.92461 102.964 -17.2295 139.141C-38.3836 175.319 -83.451 187.378 -120.241 166.97Z" fill="url(#paint3_linear_2122_120954)"/>
<path d="M288.126 166.97C289.046 166.042 289.966 166.042 290.885 165.115C269.731 150.273 252.256 131.721 238.46 107.602C224.664 83.4843 217.306 58.4386 215.466 33.3929C214.547 34.3205 213.627 34.3205 212.707 35.2481C176.837 56.5833 163.961 102.964 185.115 139.141C205.349 175.319 252.256 187.378 288.126 166.97Z" fill="url(#paint4_linear_2122_120954)"/>
<path d="M-44.8218 359.917C-45.7415 360.844 -46.6613 360.844 -47.581 361.772C-49.4205 336.726 -56.7785 310.753 -70.5746 287.562C-84.3708 264.372 -101.846 244.892 -123 230.05C-122.08 229.122 -121.161 229.122 -120.241 228.195C-84.3708 206.86 -38.3836 219.846 -17.2295 256.023C3.92462 292.201 -8.95178 339.509 -44.8218 359.917Z" fill="url(#paint5_linear_2122_120954)"/>
</g>
<defs>
<linearGradient id="paint0_linear_2122_120954" x1="-42.9308" y1="153.257" x2="184.503" y2="395.267" gradientUnits="userSpaceOnUse">
<stop stop-color="#B7B7B7"/>
<stop offset="1" stop-color="white" stop-opacity="0"/>
</linearGradient>
<linearGradient id="paint1_linear_2122_120954" x1="-42.9308" y1="153.257" x2="184.503" y2="395.267" gradientUnits="userSpaceOnUse">
<stop stop-color="#B7B7B7"/>
<stop offset="1" stop-color="white" stop-opacity="0"/>
</linearGradient>
<linearGradient id="paint2_linear_2122_120954" x1="-42.9308" y1="153.257" x2="184.503" y2="395.267" gradientUnits="userSpaceOnUse">
<stop stop-color="#B7B7B7"/>
<stop offset="1" stop-color="white" stop-opacity="0"/>
</linearGradient>
<linearGradient id="paint3_linear_2122_120954" x1="-42.9308" y1="153.257" x2="184.503" y2="395.267" gradientUnits="userSpaceOnUse">
<stop stop-color="#B7B7B7"/>
<stop offset="1" stop-color="white" stop-opacity="0"/>
</linearGradient>
<linearGradient id="paint4_linear_2122_120954" x1="-42.9308" y1="153.257" x2="184.503" y2="395.267" gradientUnits="userSpaceOnUse">
<stop stop-color="#B7B7B7"/>
<stop offset="1" stop-color="white" stop-opacity="0"/>
</linearGradient>
<linearGradient id="paint5_linear_2122_120954" x1="-42.9308" y1="153.257" x2="184.503" y2="395.267" gradientUnits="userSpaceOnUse">
<stop stop-color="#B7B7B7"/>
<stop offset="1" stop-color="white" stop-opacity="0"/>
</linearGradient>
</defs>
</svg>
