<svg width="21" height="24" viewBox="0 0 21 24" fill="none" xmlns="http://www.w3.org/2000/svg">
<path d="M16.7548 10.4453C16.7548 15.8898 10.2675 20.5564 10.2675 20.5564C10.2675 20.5564 3.78027 15.8898 3.78027 10.4453C3.78027 8.5888 4.46375 6.80832 5.68035 5.49556C6.89695 4.18281 8.54701 3.44531 10.2675 3.44531C11.9881 3.44531 13.6381 4.18281 14.8547 5.49556C16.0713 6.80832 16.7548 8.5888 16.7548 10.4453Z" fill="#00902C"/>
<path d="M7.38765 9.33203C7.37265 9.33203 7.34264 9.33203 7.32764 9.33203C7.50767 9.72983 7.59769 10.1754 7.59769 10.6368C7.59769 11.0983 7.49267 11.5438 7.32764 11.9416C7.34264 11.9416 7.37265 11.9416 7.38765 11.9416C8.06279 11.9416 8.61791 11.3528 8.61791 10.6368C8.61791 9.92077 8.06279 9.33203 7.38765 9.33203Z" fill="white"/>
<path d="M13.659 9.33203C13.674 9.33203 13.704 9.33203 13.719 9.33203C13.5389 9.72983 13.4489 10.1754 13.4489 10.6368C13.4489 11.0983 13.5539 11.5438 13.719 11.9416C13.704 11.9416 13.674 11.9416 13.659 11.9416C12.9838 11.9416 12.4287 11.3528 12.4287 10.6368C12.4287 9.92077 12.9688 9.33203 13.659 9.33203Z" fill="white"/>
<path d="M7.89768 12.8651C7.88268 12.881 7.88268 12.897 7.86768 12.9129C8.27276 12.9447 8.69285 13.072 9.06793 13.3107C9.44301 13.5493 9.75807 13.8517 9.99812 14.2177C10.0131 14.2017 10.0131 14.1858 10.0281 14.1699C10.3732 13.5493 10.1632 12.7538 9.57803 12.3878C8.99291 12.0218 8.22775 12.2446 7.89768 12.8651Z" fill="white"/>
<path d="M11.0185 7.10633C11.0335 7.09042 11.0335 7.07451 11.0485 7.05859C11.2885 7.42457 11.5886 7.7269 11.9787 7.96557C12.3688 8.20425 12.7738 8.33155 13.1789 8.36337C13.1639 8.37928 13.1639 8.3952 13.1489 8.41111C12.8038 9.03167 12.0537 9.25444 11.4686 8.88847C10.8834 8.52249 10.6884 7.74281 11.0185 7.10633Z" fill="white"/>
<path d="M11.0185 14.1699C11.0335 14.1858 11.0335 14.2017 11.0485 14.2177C11.2885 13.8517 11.5886 13.5493 11.9787 13.3107C12.3688 13.072 12.7738 12.9447 13.1789 12.9129C13.1639 12.897 13.1639 12.881 13.1489 12.8651C12.8038 12.2446 12.0537 12.0218 11.4686 12.3878C10.8834 12.7378 10.6884 13.5493 11.0185 14.1699Z" fill="white"/>
<path d="M7.89768 8.41111C7.88268 8.3952 7.88268 8.37928 7.86768 8.36337C8.27276 8.33155 8.69285 8.20425 9.06793 7.96557C9.44301 7.7269 9.75807 7.42457 9.99812 7.05859C10.0131 7.07451 10.0131 7.09042 10.0281 7.10633C10.3732 7.7269 10.1632 8.52249 9.57803 8.88847C8.99291 9.25444 8.22775 9.03167 7.89768 8.41111Z" fill="white"/>
</svg>
