<svg width="12" height="12" viewBox="0 0 12 12" fill="none" xmlns="http://www.w3.org/2000/svg">
<g clip-path="url(#clip0_2165_45725)">
<path d="M2.70908 3.94531H0.199951V11.9455H2.70908V3.94531Z" fill="#00B140"/>
<path d="M9.49084 3.76696C9.39605 3.75655 9.29894 3.74904 9.2001 3.74499C7.79555 3.68777 7.00136 4.52125 6.72739 4.87673C6.65456 4.9721 6.61815 5.03337 6.61815 5.03337V3.9629H4.21826V11.9631H6.72739V8.20431C6.72739 7.66157 6.68519 7.08125 6.95686 6.58821C7.1869 6.17146 7.60249 5.9628 8.07299 5.9628C9.45847 5.9628 9.49142 7.2165 9.49142 7.33557V11.9995H12.0005V6.78126C12.0005 4.9958 11.0931 3.93978 9.49142 3.76696H9.49084Z" fill="#00B140"/>
<path d="M1.45484 2.90969C2.25833 2.90969 2.90969 2.25833 2.90969 1.45484C2.90969 0.651356 2.25833 0 1.45484 0C0.651356 0 0 0.651356 0 1.45484C0 2.25833 0.651356 2.90969 1.45484 2.90969Z" fill="#00B140"/>
</g>
<defs>
<clipPath id="clip0_2165_45725">
<rect width="12" height="12" fill="white"/>
</clipPath>
</defs>
</svg>
