<svg width="24" height="24" viewBox="0 0 24 24" fill="none" xmlns="http://www.w3.org/2000/svg">
<path d="M11.7344 20C11.3889 19.728 11.2533 19.3728 11.3066 18.9381C11.3224 18.8095 11.2926 18.6748 11.3119 18.5471C11.3819 18.0773 11.2515 17.8683 10.7188 17.7607C8.35529 17.2822 6.58134 15.3945 6.15797 13.0144C6.14048 12.9164 6.10986 12.8202 6.07575 12.682C5.655 12.682 5.23776 12.6873 4.82139 12.6811C4.32104 12.6733 3.99739 12.3916 4.00002 11.9761C4.00177 11.5912 4.32804 11.3201 4.81089 11.3104C5.20189 11.3026 5.59377 11.3061 5.98478 11.3017C6.01189 11.3017 6.03901 11.2842 6.081 11.2702C6.63383 8.38709 8.34742 6.64288 11.3093 6.07431C11.3093 5.67106 11.3058 5.25644 11.3101 4.84269C11.3163 4.33272 11.5787 4.01344 11.9924 4.00032C12.3922 3.98808 12.673 4.32397 12.6808 4.83307C12.687 5.23807 12.6817 5.64307 12.6817 6.06818C15.6033 6.63326 17.358 8.3556 17.9117 11.3096C18.2931 11.3096 18.6692 11.3314 19.041 11.3043C19.4836 11.2719 19.7968 11.4346 19.9997 11.8222V12.2569C19.7259 12.5945 19.3769 12.7327 18.9404 12.6864C18.6972 12.661 18.4479 12.6969 18.2039 12.6776C17.9441 12.6566 17.8706 12.7669 17.8216 13.0127C17.3475 15.3937 15.9366 16.9463 13.6308 17.6872C13.3316 17.7834 13.0176 17.8315 12.6817 17.9076C12.6817 18.2812 12.6598 18.6424 12.687 18.9993C12.7219 19.4515 12.575 19.7866 12.1691 19.9983H11.7344V20ZM16.52 11.9936C16.5148 9.30643 14.5501 7.41789 11.7414 7.44851C9.59741 7.47212 7.31524 9.40178 7.43158 12.2359C7.52168 14.4332 9.45395 16.6743 12.2225 16.5544C14.9018 16.439 16.7186 13.9924 16.52 11.9936Z" fill="#00B140"/>
<path d="M14.2579 11.9922C14.2614 13.2291 13.2249 14.263 11.9898 14.2534C10.7581 14.2447 9.74257 13.2387 9.73733 12.0211C9.73208 10.7711 10.7371 9.74769 11.9819 9.73544C13.2109 9.72407 14.2536 10.758 14.2571 11.9914L14.2579 11.9922ZM12.8662 12.008C12.8706 11.4849 12.5277 11.121 12.0204 11.1096C11.4999 11.0983 11.1072 11.4849 11.1115 12.0036C11.115 12.5031 11.4938 12.8792 11.9941 12.881C12.5041 12.8827 12.8627 12.5241 12.8662 12.008Z" fill="#00B140"/>
</svg>
