<svg width="20" height="12" viewBox="0 0 20 12" fill="none" xmlns="http://www.w3.org/2000/svg">
<path d="M1.46349 0C1.17579 0 0.911747 0.0817764 0.685964 0.21635L9.34447 7.14698C9.74088 7.46458 10.2751 7.46458 10.6706 7.14698L19.3139 0.21635C19.0881 0.0817764 18.8241 0 18.5364 0H1.46327H1.46349ZM0.0838759 0.930266C0.0316461 1.07273 0 1.22469 0 1.38452V10.6155C0 10.8935 0.0882966 11.1489 0.236314 11.3654L6.43316 6.0218L0.0838759 0.930266ZM19.9161 0.930266L13.5821 6.01471L19.7637 11.3658C19.9117 11.1493 20 10.8938 20 10.6158V1.38485C20 1.225 19.9684 1.07304 19.9161 0.930595V0.930266ZM12.8356 6.62008L11.2959 7.85332C10.5512 8.45102 9.45671 8.4502 8.71207 7.85332L7.18002 6.62733L1.02891 11.9351C1.16655 11.9754 1.31133 12 1.46343 12H18.5365C18.6885 12 18.8334 11.9754 18.9711 11.9351L12.8356 6.61991L12.8356 6.62008Z" fill="#00B140"/>
</svg>
