<svg width="39" height="72" viewBox="0 0 39 72" fill="none" xmlns="http://www.w3.org/2000/svg">
<g clip-path="url(#clip0_1960_34779)">
<path fill-rule="evenodd" clip-rule="evenodd" d="M3.83735 71.3406L1.16241 69.8056C0.644554 69.4294 0.51416 68.9599 0.51416 68.3341V22.1372C0.558867 20.5613 1.41947 19.0413 2.75694 18.1956L7.62996 15.3791L10.562 13.7063L25.0991 5.30145L27.6436 3.84104L32.9041 0.812163C33.4629 0.52157 33.8951 0.372548 34.4986 0.65569L37.1289 2.19062C36.5663 1.9112 36.0932 2.0565 35.5343 2.34709L30.3148 5.37596L27.7703 6.84383L13.1959 15.2487L10.3049 16.9214L5.43189 19.738C4.09441 20.5837 3.23381 22.1037 3.14812 23.6759V69.8727C3.19283 70.5023 3.27852 70.968 3.83735 71.3443V71.3406Z" fill="#C1E7C6"/>
<path fill-rule="evenodd" clip-rule="evenodd" d="M33.8504 1.0096C33.679 1.0096 33.4629 1.08784 33.1164 1.26667L3.0177 18.6352C1.8516 19.3803 1.07668 20.7401 0.990997 22.1596V68.334C1.0357 68.9301 1.12139 69.1574 1.46414 69.3846L2.67122 70.085V23.6721C2.71593 21.9099 3.70692 20.2446 5.17107 19.3095L35.2735 1.91491C35.3592 1.88511 35.4039 1.85158 35.4896 1.81432L34.2378 1.09529C34.1074 1.03941 33.9808 1.0096 33.8504 1.0096ZM3.83732 71.851C3.75163 71.851 3.66594 71.8249 3.58025 71.7802L0.905309 70.2415C0.130394 69.6939 0.0409811 68.9823 0 68.3564V22.1372C0.0856877 20.3676 1.0357 18.706 2.49985 17.7671L32.6433 0.372533C33.2021 0.0744893 33.8504 -0.201201 34.7147 0.197433L37.3896 1.75844C37.6467 1.89256 37.7361 2.1906 37.6057 2.43276C37.4753 2.6712 37.1735 2.76806 36.9575 2.65257C36.57 2.48492 36.3539 2.51473 35.7951 2.80532L5.69264 20.1738C4.53027 20.9264 3.75163 22.2825 3.66594 23.7019V69.8727C3.71065 70.4725 3.79634 70.6998 4.09811 70.9233C4.35517 71.0798 4.39988 71.3853 4.26948 71.6125C4.13909 71.7653 4.01242 71.851 3.83732 71.851Z" fill="#00902C"/>
<path fill-rule="evenodd" clip-rule="evenodd" d="M35.5344 53.8044L5.43196 71.1878C4.18017 71.9106 3.14819 71.3182 3.14819 69.8727V23.6722C3.14819 22.2266 4.1839 20.4533 5.43196 19.7342L10.305 16.9177L13.196 15.245L27.7704 6.84011L30.3149 5.37224L35.5344 2.34337C36.7862 1.62434 37.8182 2.21298 37.8182 3.65849V49.8553C37.8182 51.3008 36.7825 53.0742 35.5344 53.797V53.8044Z" fill="#C1E7C6"/>
<path fill-rule="evenodd" clip-rule="evenodd" d="M36.5664 2.55198C36.3503 2.55198 36.0932 2.63021 35.7915 2.79041L5.69275 20.1738C4.61606 20.8072 3.66605 22.4129 3.66605 23.6759V69.8727C3.66605 70.3756 3.79644 70.7519 4.09821 70.9047C4.35527 71.0611 4.74646 70.9978 5.17489 70.7482L35.2736 53.3648C36.395 52.7314 37.3003 51.1257 37.3003 49.8628V3.66592C37.3003 3.16669 37.1699 2.78669 36.9129 2.63394C36.7825 2.57805 36.6968 2.55198 36.5664 2.55198ZM4.44096 72C4.09821 72 3.83742 71.9292 3.58036 71.7802C2.97682 71.4337 2.67505 70.7594 2.67505 69.869V23.6721C2.67505 22.0366 3.75173 20.1142 5.17489 19.2946L35.2736 1.91491C36.0485 1.47157 36.8272 1.41568 37.386 1.75471C37.9895 2.10118 38.336 2.77551 38.336 3.66592V49.8628C38.336 51.4983 37.2146 53.4207 35.7915 54.2403L5.69275 71.6274C5.26058 71.877 4.82842 72.0037 4.44096 72.0037V72Z" fill="#00902C"/>
<path fill-rule="evenodd" clip-rule="evenodd" d="M7.33179 22.9978V66.978L34.7146 51.1593V7.17914C25.5721 12.4471 16.4743 17.7224 7.33179 22.9978Z" fill="white"/>
<path fill-rule="evenodd" clip-rule="evenodd" d="M7.84985 23.2884V66.1025L34.1969 50.8687V8.05467L7.84985 23.2884ZM7.332 67.4847C7.24631 67.4847 7.16062 67.4586 7.07493 67.4139C6.90356 67.3245 6.81787 67.1568 6.81787 66.9743V22.9979C6.81787 22.8153 6.90356 22.6476 7.07493 22.5582L34.454 6.73955C34.6254 6.65013 34.8005 6.65013 34.9719 6.73955C35.1432 6.82523 35.2289 6.99661 35.2289 7.17916V51.1593C35.2289 51.3418 35.1432 51.5095 34.9719 51.5989L7.58906 67.4176C7.50337 67.4623 7.41769 67.4884 7.332 67.4884V67.4847Z" fill="#00902C"/>
<path fill-rule="evenodd" clip-rule="evenodd" d="M16.9029 19.4474V14.9395C20.2671 12.9984 23.6313 11.0612 26.9954 9.1276V13.6392C23.6313 15.5765 20.2671 17.5101 16.9029 19.4474ZM28.4596 14.2428V6.80286L15.4351 14.3322V21.7721L28.4596 14.2428Z" fill="white"/>
<path fill-rule="evenodd" clip-rule="evenodd" d="M17.4207 15.2338V18.5682L26.4775 13.3449V10.0031L17.4207 15.2338ZM16.9028 19.9541C16.8171 19.9541 16.7315 19.928 16.6458 19.8833C16.5154 19.7939 16.3887 19.63 16.3887 19.4437V14.9358C16.3887 14.7532 16.5191 14.5856 16.6458 14.4961L26.7383 8.68428C26.8687 8.59487 27.0848 8.59487 27.2561 8.68428C27.3865 8.77742 27.4722 8.94135 27.4722 9.1239V13.6355C27.4722 13.8106 27.3865 13.982 27.2561 14.0714L17.1636 19.8833C17.0779 19.928 16.9922 19.9541 16.9066 19.9541H16.9028ZM15.9118 14.6228L27.9416 7.67466V13.9448L15.9118 20.8892V14.6228ZM15.4387 22.2788C15.353 22.2788 15.2673 22.2565 15.1816 22.208C15.0102 22.1186 14.9246 21.951 14.9246 21.7684V14.3285C14.9246 14.1459 15.0102 13.9783 15.1816 13.8889L28.2061 6.35954C28.3775 6.27013 28.5489 6.27013 28.724 6.35954C28.8954 6.44895 28.9811 6.6166 28.9811 6.79916V14.2391C28.9811 14.4216 28.8954 14.5893 28.724 14.6787L15.6585 22.208C15.6138 22.2565 15.5281 22.2788 15.4424 22.2788H15.4387Z" fill="#00902C"/>
<path fill-rule="evenodd" clip-rule="evenodd" d="M15.4386 14.3322L28.4594 6.80288L26.6935 5.77463L25.6131 5.15619L12.5923 12.6855L15.4386 14.3322Z" fill="white"/>
<path fill-rule="evenodd" clip-rule="evenodd" d="M13.5832 12.6855L15.4386 13.7473L27.4684 6.80284L25.6131 5.73734L13.5832 12.6855ZM15.4386 14.8389C15.3529 14.8389 15.2672 14.8165 15.1815 14.7755L12.3352 13.1251C12.1638 13.0357 12.0781 12.868 12.0781 12.6892C12.0781 12.5104 12.1638 12.339 12.3352 12.2496L25.356 4.71654C25.5274 4.62712 25.7025 4.62712 25.8738 4.71654L28.7202 6.36323C28.8915 6.45264 28.9772 6.62029 28.9772 6.80284C28.9772 6.9854 28.8915 7.15305 28.7202 7.24246L15.6547 14.7718C15.6099 14.8165 15.5243 14.8351 15.4386 14.8351V14.8389Z" fill="#00902C"/>
<path fill-rule="evenodd" clip-rule="evenodd" d="M3.83735 71.3406L1.16241 69.8056C0.644554 69.4256 0.51416 68.9636 0.51416 68.334V22.1372C0.558867 21.3474 0.771223 20.5576 1.16241 19.8832L3.83735 21.4368C3.40519 22.2043 3.18911 22.8003 3.18911 23.6759V69.8727C3.18911 70.5023 3.27479 70.968 3.83735 71.3443V71.3406Z" fill="#6AC97B"/>
<path fill-rule="evenodd" clip-rule="evenodd" d="M1.37845 20.5874C1.16237 21.0792 1.03198 21.6119 0.990997 22.1633V68.3378C1.0357 68.9339 1.12139 69.1611 1.46414 69.3884L2.67122 70.0888V23.6721C2.67122 22.8451 2.8873 22.2415 3.14437 21.6268L1.37473 20.5837L1.37845 20.5874ZM3.83732 71.851C3.75163 71.851 3.66594 71.8249 3.58025 71.7802L0.905309 70.2415C0.130394 69.6939 0.0409811 68.9786 0 68.3564V22.1372C0.0447066 21.2245 0.30177 20.3601 0.733934 19.6187C0.864328 19.3803 1.1661 19.3095 1.42316 19.4474L4.09811 20.9972C4.31419 21.135 4.39988 21.4368 4.26948 21.679C3.92301 22.357 3.71065 22.8786 3.66594 23.6982V69.8727C3.71065 70.4725 3.79634 70.6998 4.09811 70.9233C4.35517 71.0798 4.39988 71.3853 4.26948 71.6125C4.13909 71.7653 4.01242 71.851 3.83732 71.851Z" fill="#00902C"/>
<path fill-rule="evenodd" clip-rule="evenodd" d="M12.5923 14.1459L13.8403 14.8836V20.8593L15.4386 21.7721V14.3322L12.5923 12.6855V14.1459Z" fill="#C1E7C6"/>
<path fill-rule="evenodd" clip-rule="evenodd" d="M14.3582 20.565L14.9207 20.8929V14.6265L13.0654 13.561V13.8591L14.1011 14.444C14.2315 14.5334 14.3582 14.701 14.3582 14.8836V20.5613V20.565ZM15.4348 22.2825C15.3492 22.2825 15.2635 22.2602 15.1778 22.2117L13.5832 21.299C13.4119 21.2096 13.3262 21.0419 13.3262 20.8594V15.1816L12.3352 14.5893C12.1638 14.4998 12.0781 14.3359 12.0781 14.1496V12.6892C12.0781 12.503 12.1638 12.339 12.3352 12.2496C12.4656 12.1602 12.6817 12.1602 12.8083 12.2496L15.6547 13.8963C15.826 13.9857 15.9117 14.1534 15.9117 14.3359V21.7759C15.9117 21.9584 15.826 22.1261 15.6547 22.2155C15.6099 22.2639 15.5243 22.2863 15.4386 22.2863L15.4348 22.2825Z" fill="#00902C"/>
<path fill-rule="evenodd" clip-rule="evenodd" d="M25.4009 10.0441V12.5663L26.9954 13.6393V9.12762L25.4009 10.0441Z" fill="white"/>
<path fill-rule="evenodd" clip-rule="evenodd" d="M25.9188 12.298L26.4776 12.6818V10.0031L25.9188 10.3347V12.298ZM26.9954 14.1422C26.865 14.1422 26.7794 14.1161 26.6937 14.0565L25.0991 12.9873C24.9687 12.8941 24.8831 12.7339 24.8831 12.5626V10.0404C24.8831 9.85781 24.9687 9.69016 25.1401 9.60447L26.7347 8.68426C26.8651 8.59485 27.0811 8.59857 27.2525 8.68426C27.3829 8.7774 27.4686 8.94132 27.4686 9.12388V13.6355C27.4686 13.8218 27.3829 13.9932 27.2115 14.0826C27.1258 14.1198 27.0811 14.1385 26.9954 14.1385V14.1422Z" fill="#00902C"/>
<path fill-rule="evenodd" clip-rule="evenodd" d="M16.9028 17.4654L25.4008 12.5663L26.9953 13.6392L16.9028 19.4474V17.4654Z" fill="white"/>
<path fill-rule="evenodd" clip-rule="evenodd" d="M17.4206 17.756V18.5682L26.0006 13.6057L25.3523 13.1661L17.4169 17.7597L17.4206 17.756ZM16.9028 19.9541C16.8171 19.9541 16.7314 19.928 16.6457 19.8833C16.5153 19.7939 16.3887 19.63 16.3887 19.4437V17.4617C16.3887 17.2791 16.5191 17.1115 16.6457 17.0221L25.14 12.123C25.3114 12.0298 25.5274 12.0373 25.6578 12.1453L27.2524 13.2146C27.4238 13.3151 27.5094 13.4791 27.4685 13.6542C27.4685 13.8255 27.3828 13.9857 27.2524 14.0714L17.1599 19.8833C17.0742 19.928 16.9885 19.9541 16.9028 19.9541Z" fill="#00902C"/>
</g>
<defs>
<clipPath id="clip0_1960_34779">
<rect width="38.3359" height="72" fill="white"/>
</clipPath>
</defs>
</svg>
