<svg width="44" height="44" viewBox="0 0 44 44" fill="none" xmlns="http://www.w3.org/2000/svg">
<path d="M6.28564 11C6.28564 10.1321 6.9892 9.42859 7.85707 9.42859H37.7142C38.5821 9.42859 39.2856 10.1321 39.2856 11C39.2856 11.8679 38.5821 12.5714 37.7142 12.5714H7.85707C6.9892 12.5714 6.28564 11.8679 6.28564 11Z" fill="black"/>
<path d="M6.28564 21.9997C6.28564 21.1318 6.9892 20.4281 7.85707 20.4281L25.1428 20.4286C26.0107 20.4286 26.7142 21.1321 26.7142 22C26.7142 22.8679 26.0107 23.5714 25.1428 23.5714L7.85707 23.5711C6.9892 23.5711 6.28564 22.8674 6.28564 21.9997Z" fill="black"/>
<path d="M7.85707 31.4282C6.9892 31.4282 6.28564 32.1318 6.28564 32.9997C6.28564 33.8674 6.9892 34.5709 7.85707 34.5709H34.5714C35.4393 34.5709 36.1428 33.8674 36.1428 32.9997C36.1428 32.1318 35.4393 31.4282 34.5714 31.4282H7.85707Z" fill="black"/>
</svg>
