<svg width="20" height="20" viewBox="0 0 20 20" fill="none" xmlns="http://www.w3.org/2000/svg">
<path d="M13.4304 13.0656L12.9149 13.8389C12.812 13.9932 12.6759 14.1249 12.4966 14.1723C11.9091 14.3275 10.3496 14.3976 7.97518 12.0232C5.60078 9.64882 5.67086 8.08924 5.82608 7.5018C5.87347 7.32246 6.00517 7.18638 6.15951 7.08348L6.93275 6.56798C7.50846 6.18418 7.66402 5.40635 7.28022 4.83065L5.81981 2.64004C5.48482 2.13754 4.839 1.94556 4.28391 2.18346L3.62511 2.4658C3.12465 2.68028 2.71642 3.06521 2.47291 3.55221C2.26948 3.95909 2.1118 4.38755 2.09044 4.84194C2.02311 6.27393 2.33711 9.8019 6.2668 13.7316C10.1965 17.6613 13.7244 17.9753 15.1564 17.9079C15.6108 17.8866 16.0393 17.7289 16.4462 17.5255C16.9332 17.282 17.3181 16.8737 17.5326 16.3733L17.8149 15.7145C18.0528 15.1594 17.8608 14.5136 17.3583 14.1786L15.1677 12.7182C14.592 12.3343 13.8142 12.4899 13.4304 13.0656Z" fill="#00902C"/>
</svg>
